# MagicaVoxel @ Ephtracy

# group
g golemHead

# material
mtllib golemHead.mtl
usemtl palette

# normals
vn -1 0 0
vn 1 0 0
vn 0 0 1
vn 0 0 -1
vn 0 -1 0
vn 0 1 0

# texcoords
vt 0.927734 0.5
vt 0.931641 0.5
vt 0.935547 0.5
vt 0.962891 0.5
vt 0.966797 0.5
vt 0.990234 0.5
vt 0.994141 0.5

# verts
v -5 18 4
v -5 18 3
v -5 19 3
v -5 19 2
v -5 21 5
v -5 21 4
v -5 21 3
v -5 21 2
v -5 22 6
v -5 22 5
v -5 22 4
v -5 22 3
v -5 22 2
v -5 23 6
v -5 23 4
v -4 16 4
v -4 16 3
v -4 17 5
v -4 17 4
v -4 17 3
v -4 17 2
v -4 18 4
v -4 18 3
v -4 18 2
v -4 19 5
v -4 19 4
v -4 19 3
v -4 19 2
v -4 19 1
v -4 21 5
v -4 21 4
v -4 21 2
v -4 22 4
v -4 22 3
v -4 22 2
v -4 23 4
v -4 23 3
v -4 23 1
v -3 16 6
v -3 16 5
v -3 16 4
v -3 17 5
v -3 17 4
v -3 18 2
v -3 18 1
v -3 19 6
v -3 19 5
v -3 19 2
v -3 19 1
v -3 21 6
v -3 21 5
v -3 22 6
v -3 22 5
v -2 16 3
v -2 16 2
v -2 17 3
v -2 17 2
v -2 17 1
v -2 18 2
v -2 18 1
v 0 16 6
v 0 16 5
v 0 18 6
v 0 18 5
v 0 22 6
v 0 22 5
v 0 22 1
v 0 23 6
v 0 23 5
v 0 23 1
v -1 16 6
v -1 16 5
v -1 18 6
v -1 18 5
v -1 22 6
v -1 22 5
v -1 22 1
v -1 23 6
v -1 23 5
v -1 23 1
v 1 16 3
v 1 16 2
v 1 17 3
v 1 17 2
v 1 17 1
v 1 18 2
v 1 18 1
v 2 16 6
v 2 16 5
v 2 16 4
v 2 16 3
v 2 17 4
v 2 17 3
v 2 18 2
v 2 18 1
v 2 19 6
v 2 19 5
v 2 19 2
v 2 19 1
v 2 21 6
v 2 21 5
v 2 22 6
v 2 22 5
v 3 16 5
v 3 16 4
v 3 17 4
v 3 17 2
v 3 18 4
v 3 18 3
v 3 18 2
v 3 19 5
v 3 19 4
v 3 19 3
v 3 19 2
v 3 19 1
v 3 21 5
v 3 21 4
v 3 21 2
v 3 22 4
v 3 22 3
v 3 22 2
v 3 23 4
v 3 23 3
v 3 23 1
v 4 18 4
v 4 18 3
v 4 19 3
v 4 19 2
v 4 21 5
v 4 21 4
v 4 21 3
v 4 21 2
v 4 22 6
v 4 22 5
v 4 22 4
v 4 22 3
v 4 22 2
v 4 23 6
v 4 23 4
v -5 22 6
v -5 23 6
v -4 22 6
v -4 23 6
v -3 16 6
v -3 19 6
v -3 21 6
v -3 22 6
v -3 23 6
v -2 16 6
v -2 18 6
v -2 19 6
v -2 21 6
v -2 22 6
v -2 23 6
v -1 16 6
v -1 18 6
v -1 22 6
v -1 23 6
v 0 16 6
v 0 18 6
v 0 22 6
v 0 23 6
v 1 16 6
v 1 18 6
v 1 19 6
v 1 21 6
v 1 22 6
v 1 23 6
v 2 16 6
v 2 19 6
v 2 21 6
v 2 22 6
v 2 23 6
v 3 22 6
v 3 23 6
v 4 22 6
v 4 23 6
v -5 21 5
v -5 22 5
v -4 17 5
v -4 19 5
v -4 21 5
v -4 22 5
v -3 17 5
v -3 19 5
v -3 21 5
v -3 22 5
v -1 16 5
v -1 18 5
v -1 22 5
v 0 16 5
v 0 18 5
v 0 22 5
v 2 16 5
v 2 19 5
v 2 21 5
v 2 22 5
v 3 16 5
v 3 19 5
v 3 21 5
v 3 22 5
v 4 21 5
v 4 22 5
v -5 18 4
v -5 21 4
v -4 16 4
v -4 17 4
v -4 18 4
v -4 19 4
v -4 21 4
v -3 16 4
v -3 17 4
v 3 18 4
v 3 19 4
v 3 21 4
v 4 18 4
v 4 21 4
v -5 22 4
v -5 23 4
v -4 22 4
v -4 23 4
v 2 16 4
v 2 17 4
v 3 16 4
v 3 17 4
v 3 22 4
v 3 23 4
v 4 22 4
v 4 23 4
v -5 18 3
v -5 19 3
v -4 16 3
v -4 17 3
v -4 18 3
v -4 19 3
v -3 17 3
v -2 16 3
v -2 17 3
v 1 16 3
v 1 17 3
v 2 16 3
v 2 17 3
v 3 18 3
v 3 19 3
v 4 18 3
v 4 19 3
v -5 19 2
v -5 21 2
v -5 22 2
v -4 17 2
v -4 18 2
v -4 19 2
v -4 21 2
v -4 22 2
v -3 17 2
v -3 18 2
v -3 19 2
v -2 16 2
v -2 17 2
v -2 18 2
v -1 16 2
v -1 17 2
v 0 16 2
v 0 17 2
v 1 16 2
v 1 17 2
v 1 18 2
v 2 17 2
v 2 18 2
v 2 19 2
v 3 17 2
v 3 18 2
v 3 19 2
v 3 21 2
v 3 22 2
v 4 19 2
v 4 21 2
v 4 22 2
v -4 19 1
v -4 23 1
v -3 18 1
v -3 19 1
v -3 20 1
v -3 21 1
v -3 22 1
v -3 23 1
v -2 17 1
v -2 18 1
v -2 19 1
v -2 20 1
v -2 21 1
v -2 22 1
v -2 23 1
v -1 17 1
v -1 18 1
v -1 19 1
v -1 20 1
v -1 21 1
v -1 22 1
v -1 23 1
v 0 17 1
v 0 18 1
v 0 19 1
v 0 20 1
v 0 21 1
v 0 22 1
v 0 23 1
v 1 17 1
v 1 18 1
v 1 19 1
v 1 20 1
v 1 21 1
v 1 22 1
v 1 23 1
v 2 18 1
v 2 19 1
v 2 20 1
v 2 21 1
v 2 22 1
v 2 23 1
v 3 19 1
v 3 23 1
v -3 16 6
v -2 16 6
v -1 16 6
v 0 16 6
v 1 16 6
v 2 16 6
v -3 16 5
v -2 16 5
v -1 16 5
v 0 16 5
v 1 16 5
v 2 16 5
v 3 16 5
v -4 16 4
v -3 16 4
v -2 16 4
v -1 16 4
v 0 16 4
v 1 16 4
v 2 16 4
v 3 16 4
v -4 16 3
v -2 16 3
v -1 16 3
v 0 16 3
v 1 16 3
v 2 16 3
v -2 16 2
v -1 16 2
v 0 16 2
v 1 16 2
v -4 17 5
v -3 17 5
v -4 17 4
v -3 17 4
v 2 17 4
v 3 17 4
v -4 17 3
v -3 17 3
v -2 17 3
v 1 17 3
v 2 17 3
v -4 17 2
v -3 17 2
v -2 17 2
v -1 17 2
v 0 17 2
v 1 17 2
v 2 17 2
v 3 17 2
v -2 17 1
v -1 17 1
v 0 17 1
v 1 17 1
v -5 18 4
v -4 18 4
v 3 18 4
v 4 18 4
v -5 18 3
v -4 18 3
v 3 18 3
v 4 18 3
v -3 18 2
v -2 18 2
v 1 18 2
v 2 18 2
v -3 18 1
v -2 18 1
v 1 18 1
v 2 18 1
v -5 19 3
v -4 19 3
v 3 19 3
v 4 19 3
v -5 19 2
v -4 19 2
v -3 19 2
v 2 19 2
v 3 19 2
v 4 19 2
v -4 19 1
v -3 19 1
v 2 19 1
v 3 19 1
v -5 21 5
v -4 21 5
v 3 21 5
v 4 21 5
v -5 21 4
v -4 21 4
v 3 21 4
v 4 21 4
v -5 22 6
v -4 22 6
v -3 22 6
v 2 22 6
v 3 22 6
v 4 22 6
v -5 22 5
v -4 22 5
v -3 22 5
v 2 22 5
v 3 22 5
v 4 22 5
v -1 22 5
v 0 22 5
v -5 22 4
v -4 22 4
v 3 22 4
v 4 22 4
v -5 22 3
v -4 22 3
v 3 22 3
v 4 22 3
v -5 22 2
v -4 22 2
v 3 22 2
v 4 22 2
v -1 22 1
v 0 22 1
v -5 23 6
v -4 23 6
v -3 23 6
v -2 23 6
v -1 23 6
v 0 23 6
v 1 23 6
v 2 23 6
v 3 23 6
v 4 23 6
v -4 23 5
v -3 23 5
v -2 23 5
v -1 23 5
v 0 23 5
v 1 23 5
v 2 23 5
v 3 23 5
v -5 23 4
v -4 23 4
v -3 23 4
v 2 23 4
v 3 23 4
v 4 23 4
v -4 23 3
v -3 23 3
v 2 23 3
v 3 23 3
v -4 23 1
v -3 23 1
v -2 23 1
v -1 23 1
v 0 23 1
v 1 23 1
v 2 23 1
v 3 23 1

# faces
f 3/7/1 2/7/1 1/7/1
f 6/7/1 3/7/1 1/7/1
f 6/7/1 4/7/1 3/7/1
f 7/7/1 4/7/1 6/7/1
f 8/7/1 4/7/1 7/7/1
f 10/7/1 6/7/1 5/7/1
f 10/7/1 7/7/1 6/7/1
f 11/7/1 7/7/1 10/7/1
f 12/6/1 8/6/1 7/6/1
f 12/7/1 7/7/1 11/7/1
f 13/6/1 8/6/1 12/6/1
f 14/7/1 11/7/1 10/7/1
f 14/7/1 10/7/1 9/7/1
f 15/7/1 11/7/1 14/7/1
f 19/7/1 17/7/1 16/7/1
f 20/7/1 17/7/1 19/7/1
f 22/6/1 19/6/1 18/6/1
f 22/7/1 21/7/1 20/7/1
f 22/7/1 20/7/1 19/7/1
f 23/7/1 21/7/1 22/7/1
f 24/7/1 21/7/1 23/7/1
f 25/6/1 22/6/1 18/6/1
f 26/6/1 22/6/1 25/6/1
f 27/6/1 24/6/1 23/6/1
f 28/6/1 24/6/1 27/6/1
f 30/7/1 26/7/1 25/7/1
f 31/7/1 26/7/1 30/7/1
f 32/7/1 29/7/1 28/7/1
f 35/7/1 29/7/1 32/7/1
f 36/6/1 34/6/1 33/6/1
f 37/7/1 35/7/1 34/7/1
f 37/6/1 34/6/1 36/6/1
f 38/7/1 29/7/1 35/7/1
f 38/7/1 35/7/1 37/7/1
f 42/5/1 40/5/1 39/5/1
f 42/7/1 41/7/1 40/7/1
f 43/7/1 41/7/1 42/7/1
f 46/5/1 42/5/1 39/5/1
f 47/5/1 42/5/1 46/5/1
f 48/2/1 45/2/1 44/2/1
f 49/2/1 45/2/1 48/2/1
f 50/4/1 47/4/1 46/4/1
f 51/4/1 47/4/1 50/4/1
f 52/5/1 51/5/1 50/5/1
f 53/5/1 51/5/1 52/5/1
f 56/7/1 55/7/1 54/7/1
f 57/7/1 55/7/1 56/7/1
f 59/7/1 58/7/1 57/7/1
f 60/7/1 58/7/1 59/7/1
f 63/6/1 62/6/1 61/6/1
f 64/6/1 62/6/1 63/6/1
f 65/7/1 64/7/1 63/7/1
f 66/7/1 64/7/1 65/7/1
f 68/6/1 66/6/1 65/6/1
f 69/7/1 67/7/1 66/7/1
f 69/6/1 66/6/1 68/6/1
f 70/7/1 67/7/1 69/7/1
f 71/6/2 72/6/2 73/6/2
f 73/6/2 72/6/2 74/6/2
f 73/7/2 74/7/2 75/7/2
f 75/7/2 74/7/2 76/7/2
f 75/6/2 76/6/2 78/6/2
f 76/7/2 77/7/2 79/7/2
f 78/6/2 76/6/2 79/6/2
f 79/7/2 77/7/2 80/7/2
f 81/7/2 82/7/2 83/7/2
f 83/7/2 82/7/2 84/7/2
f 84/7/2 85/7/2 86/7/2
f 86/7/2 85/7/2 87/7/2
f 90/7/2 91/7/2 92/7/2
f 92/7/2 91/7/2 93/7/2
f 88/5/2 89/5/2 96/5/2
f 96/5/2 89/5/2 97/5/2
f 94/2/2 95/2/2 98/2/2
f 98/2/2 95/2/2 99/2/2
f 96/4/2 97/4/2 100/4/2
f 100/4/2 97/4/2 101/4/2
f 100/5/2 101/5/2 102/5/2
f 102/5/2 101/5/2 103/5/2
f 104/6/2 105/6/2 106/6/2
f 104/6/2 106/6/2 108/6/2
f 106/7/2 107/7/2 108/7/2
f 108/7/2 107/7/2 109/7/2
f 109/7/2 107/7/2 110/7/2
f 104/6/2 108/6/2 111/6/2
f 111/6/2 108/6/2 112/6/2
f 109/6/2 110/6/2 113/6/2
f 113/6/2 110/6/2 114/6/2
f 111/7/2 112/7/2 116/7/2
f 116/7/2 112/7/2 117/7/2
f 114/7/2 115/7/2 118/7/2
f 118/7/2 115/7/2 121/7/2
f 119/6/2 120/6/2 122/6/2
f 120/7/2 121/7/2 123/7/2
f 122/6/2 120/6/2 123/6/2
f 121/7/2 115/7/2 124/7/2
f 123/7/2 121/7/2 124/7/2
f 125/7/2 126/7/2 127/7/2
f 125/7/2 127/7/2 130/7/2
f 127/7/2 128/7/2 130/7/2
f 130/7/2 128/7/2 131/7/2
f 131/7/2 128/7/2 132/7/2
f 129/7/2 130/7/2 134/7/2
f 130/7/2 131/7/2 134/7/2
f 134/7/2 131/7/2 135/7/2
f 131/6/2 132/6/2 136/6/2
f 135/7/2 131/7/2 136/7/2
f 136/6/2 132/6/2 137/6/2
f 134/7/2 135/7/2 138/7/2
f 133/7/2 134/7/2 138/7/2
f 138/7/2 135/7/2 139/7/2
f 142/7/3 141/7/3 140/7/3
f 143/7/3 141/7/3 142/7/3
f 147/6/3 143/6/3 142/6/3
f 148/6/3 143/6/3 147/6/3
f 149/5/3 145/5/3 144/5/3
f 150/5/3 145/5/3 149/5/3
f 151/4/3 146/4/3 145/4/3
f 151/5/3 145/5/3 150/5/3
f 152/5/3 147/5/3 146/5/3
f 152/4/3 146/4/3 151/4/3
f 152/5/3 148/5/3 147/5/3
f 153/5/3 148/5/3 152/5/3
f 154/5/3 148/5/3 153/5/3
f 155/6/3 150/6/3 149/6/3
f 156/7/3 151/7/3 150/7/3
f 156/6/3 150/6/3 155/6/3
f 156/7/3 152/7/3 151/7/3
f 156/7/3 153/7/3 152/7/3
f 157/6/3 154/6/3 153/6/3
f 157/7/3 153/7/3 156/7/3
f 158/6/3 154/6/3 157/6/3
f 163/6/3 160/6/3 159/6/3
f 164/7/3 161/7/3 160/7/3
f 164/6/3 160/6/3 163/6/3
f 165/7/3 161/7/3 164/7/3
f 166/7/3 161/7/3 165/7/3
f 167/6/3 162/6/3 161/6/3
f 167/7/3 161/7/3 166/7/3
f 168/6/3 162/6/3 167/6/3
f 169/5/3 164/5/3 163/5/3
f 169/5/3 165/5/3 164/5/3
f 170/4/3 166/4/3 165/4/3
f 170/5/3 165/5/3 169/5/3
f 171/5/3 168/5/3 167/5/3
f 171/4/3 166/4/3 170/4/3
f 171/5/3 167/5/3 166/5/3
f 172/5/3 168/5/3 171/5/3
f 173/5/3 168/5/3 172/5/3
f 174/6/3 173/6/3 172/6/3
f 175/6/3 173/6/3 174/6/3
f 176/7/3 175/7/3 174/7/3
f 177/7/3 175/7/3 176/7/3
f 182/7/3 179/7/3 178/7/3
f 183/7/3 179/7/3 182/7/3
f 184/6/3 181/6/3 180/6/3
f 185/7/3 182/7/3 181/7/3
f 185/6/3 181/6/3 184/6/3
f 186/6/3 183/6/3 182/6/3
f 186/7/3 182/7/3 185/7/3
f 187/6/3 183/6/3 186/6/3
f 191/6/3 189/6/3 188/6/3
f 191/6/3 190/6/3 189/6/3
f 192/6/3 190/6/3 191/6/3
f 193/6/3 190/6/3 192/6/3
f 198/6/3 195/6/3 194/6/3
f 199/7/3 196/7/3 195/7/3
f 199/6/3 195/6/3 198/6/3
f 200/6/3 197/6/3 196/6/3
f 200/7/3 196/7/3 199/7/3
f 201/6/3 197/6/3 200/6/3
f 202/7/3 201/7/3 200/7/3
f 203/7/3 201/7/3 202/7/3
f 208/7/3 205/7/3 204/7/3
f 209/7/3 205/7/3 208/7/3
f 210/7/3 205/7/3 209/7/3
f 211/7/3 207/7/3 206/7/3
f 212/7/3 207/7/3 211/7/3
f 216/7/3 214/7/3 213/7/3
f 216/7/3 215/7/3 214/7/3
f 217/7/3 215/7/3 216/7/3
f 218/7/4 219/7/4 220/7/4
f 220/7/4 219/7/4 221/7/4
f 222/6/4 223/6/4 224/6/4
f 224/6/4 223/6/4 225/6/4
f 226/7/4 227/7/4 228/7/4
f 228/7/4 227/7/4 229/7/4
f 230/7/4 231/7/4 234/7/4
f 234/7/4 231/7/4 235/7/4
f 232/7/4 233/7/4 236/7/4
f 232/7/4 236/7/4 237/7/4
f 237/7/4 236/7/4 238/7/4
f 239/7/4 240/7/4 241/7/4
f 241/7/4 240/7/4 242/7/4
f 243/7/4 244/7/4 245/7/4
f 245/7/4 244/7/4 246/7/4
f 247/7/4 248/7/4 252/7/4
f 248/6/4 249/6/4 253/6/4
f 252/7/4 248/7/4 253/7/4
f 253/6/4 249/6/4 254/6/4
f 250/7/4 251/7/4 255/7/4
f 251/6/4 252/6/4 256/6/4
f 255/7/4 251/7/4 256/7/4
f 256/6/4 252/6/4 257/6/4
f 255/1/4 256/1/4 259/1/4
f 259/1/4 256/1/4 260/1/4
f 258/7/4 259/7/4 261/7/4
f 261/7/4 259/7/4 262/7/4
f 261/2/4 262/2/4 263/2/4
f 263/2/4 262/2/4 264/2/4
f 263/7/4 264/7/4 265/7/4
f 265/7/4 264/7/4 266/7/4
f 266/1/4 267/1/4 268/1/4
f 268/1/4 267/1/4 269/1/4
f 268/7/4 269/7/4 271/7/4
f 269/6/4 270/6/4 272/6/4
f 271/7/4 269/7/4 272/7/4
f 272/6/4 270/6/4 273/6/4
f 273/7/4 274/7/4 276/7/4
f 274/6/4 275/6/4 277/6/4
f 276/7/4 274/7/4 277/7/4
f 277/6/4 275/6/4 278/6/4
f 279/7/4 280/7/4 282/7/4
f 282/7/4 280/7/4 283/7/4
f 283/7/4 280/7/4 284/7/4
f 284/7/4 280/7/4 285/7/4
f 285/7/4 280/7/4 286/7/4
f 281/2/4 282/2/4 288/2/4
f 282/6/4 283/6/4 289/6/4
f 288/2/4 282/2/4 289/2/4
f 283/7/4 284/7/4 290/7/4
f 289/6/4 283/6/4 290/6/4
f 284/6/4 285/6/4 291/6/4
f 290/7/4 284/7/4 291/7/4
f 285/5/4 286/5/4 292/5/4
f 291/6/4 285/6/4 292/6/4
f 292/5/4 286/5/4 293/5/4
f 287/7/4 288/7/4 294/7/4
f 288/7/4 289/7/4 294/7/4
f 294/7/4 289/7/4 295/7/4
f 289/3/4 290/3/4 296/3/4
f 295/7/4 289/7/4 296/7/4
f 290/6/4 291/6/4 297/6/4
f 296/3/4 290/3/4 297/3/4
f 292/7/4 293/7/4 298/7/4
f 297/6/4 291/6/4 298/6/4
f 291/7/4 292/7/4 298/7/4
f 298/7/4 293/7/4 299/7/4
f 299/7/4 293/7/4 300/7/4
f 294/1/4 295/1/4 301/1/4
f 295/2/4 296/2/4 302/2/4
f 301/1/4 295/1/4 302/1/4
f 296/6/4 297/6/4 303/6/4
f 302/2/4 296/2/4 303/2/4
f 297/7/4 298/7/4 304/7/4
f 303/6/4 297/6/4 304/6/4
f 298/6/4 299/6/4 305/6/4
f 304/7/4 298/7/4 305/7/4
f 305/6/4 299/6/4 306/6/4
f 301/7/4 302/7/4 308/7/4
f 302/7/4 303/7/4 308/7/4
f 308/7/4 303/7/4 309/7/4
f 303/3/4 304/3/4 310/3/4
f 309/7/4 303/7/4 310/7/4
f 304/6/4 305/6/4 311/6/4
f 310/3/4 304/3/4 311/3/4
f 306/7/4 307/7/4 312/7/4
f 311/6/4 305/6/4 312/6/4
f 305/7/4 306/7/4 312/7/4
f 312/7/4 307/7/4 313/7/4
f 313/7/4 307/7/4 314/7/4
f 309/2/4 310/2/4 315/2/4
f 310/6/4 311/6/4 316/6/4
f 315/2/4 310/2/4 316/2/4
f 311/7/4 312/7/4 317/7/4
f 316/6/4 311/6/4 317/6/4
f 312/6/4 313/6/4 318/6/4
f 317/7/4 312/7/4 318/7/4
f 313/5/4 314/5/4 319/5/4
f 318/6/4 313/6/4 319/6/4
f 319/5/4 314/5/4 320/5/4
f 317/7/4 318/7/4 321/7/4
f 319/7/4 320/7/4 321/7/4
f 318/7/4 319/7/4 321/7/4
f 316/7/4 317/7/4 321/7/4
f 321/7/4 320/7/4 322/7/4
f 329/5/5 324/5/5 323/5/5
f 330/6/5 325/6/5 324/6/5
f 330/5/5 324/5/5 329/5/5
f 331/6/5 325/6/5 330/6/5
f 332/6/5 327/6/5 326/6/5
f 333/5/5 328/5/5 327/5/5
f 333/6/5 327/6/5 332/6/5
f 334/5/5 328/5/5 333/5/5
f 337/7/5 331/7/5 330/7/5
f 337/7/5 330/7/5 329/7/5
f 338/7/5 331/7/5 337/7/5
f 339/6/5 332/6/5 331/6/5
f 339/7/5 331/7/5 338/7/5
f 340/7/5 334/7/5 333/7/5
f 340/6/5 332/6/5 339/6/5
f 340/7/5 333/7/5 332/7/5
f 341/7/5 334/7/5 340/7/5
f 342/6/5 335/6/5 334/6/5
f 342/7/5 334/7/5 341/7/5
f 343/6/5 335/6/5 342/6/5
f 344/7/5 338/7/5 337/7/5
f 344/7/5 337/7/5 336/7/5
f 345/3/5 339/3/5 338/3/5
f 345/7/5 338/7/5 344/7/5
f 346/7/5 340/7/5 339/7/5
f 346/3/5 339/3/5 345/3/5
f 347/3/5 341/3/5 340/3/5
f 347/7/5 340/7/5 346/7/5
f 348/7/5 342/7/5 341/7/5
f 348/3/5 341/3/5 347/3/5
f 349/7/5 342/7/5 348/7/5
f 350/7/5 346/7/5 345/7/5
f 351/2/5 347/2/5 346/2/5
f 351/7/5 346/7/5 350/7/5
f 352/7/5 348/7/5 347/7/5
f 352/2/5 347/2/5 351/2/5
f 353/7/5 348/7/5 352/7/5
f 356/6/5 355/6/5 354/6/5
f 357/6/5 355/6/5 356/6/5
f 364/7/5 359/7/5 358/7/5
f 365/7/5 361/7/5 360/7/5
f 366/1/5 362/1/5 361/1/5
f 366/7/5 361/7/5 365/7/5
f 367/1/5 362/1/5 366/1/5
f 370/1/5 364/1/5 363/1/5
f 371/7/5 359/7/5 364/7/5
f 371/1/5 364/1/5 370/1/5
f 372/7/5 359/7/5 371/7/5
f 373/7/5 368/7/5 367/7/5
f 374/1/5 369/1/5 368/1/5
f 374/7/5 368/7/5 373/7/5
f 375/7/5 370/7/5 369/7/5
f 375/1/5 369/1/5 374/1/5
f 376/7/5 370/7/5 375/7/5
f 381/7/5 378/7/5 377/7/5
f 382/7/5 378/7/5 381/7/5
f 383/7/5 380/7/5 379/7/5
f 384/7/5 380/7/5 383/7/5
f 389/2/5 386/2/5 385/2/5
f 390/2/5 386/2/5 389/2/5
f 391/2/5 388/2/5 387/2/5
f 392/2/5 388/2/5 391/2/5
f 397/7/5 394/7/5 393/7/5
f 398/7/5 394/7/5 397/7/5
f 401/7/5 396/7/5 395/7/5
f 402/7/5 396/7/5 401/7/5
f 403/7/5 399/7/5 398/7/5
f 404/7/5 399/7/5 403/7/5
f 405/7/5 401/7/5 400/7/5
f 406/7/5 401/7/5 405/7/5
f 411/7/5 408/7/5 407/7/5
f 412/7/5 408/7/5 411/7/5
f 413/7/5 410/7/5 409/7/5
f 414/7/5 410/7/5 413/7/5
f 421/7/5 416/7/5 415/7/5
f 422/6/5 417/6/5 416/6/5
f 422/7/5 416/7/5 421/7/5
f 423/6/5 417/6/5 422/6/5
f 424/6/5 419/6/5 418/6/5
f 425/7/5 420/7/5 419/7/5
f 425/6/5 419/6/5 424/6/5
f 426/7/5 420/7/5 425/7/5
f 429/7/6 430/7/6 433/7/6
f 433/7/6 430/7/6 434/7/6
f 431/7/6 432/7/6 435/7/6
f 435/7/6 432/7/6 436/7/6
f 433/6/6 434/6/6 437/6/6
f 437/6/6 434/6/6 438/6/6
f 435/6/6 436/6/6 439/6/6
f 439/6/6 436/6/6 440/6/6
f 427/6/6 428/6/6 441/6/6
f 441/6/6 428/6/6 442/6/6
f 443/7/6 444/7/6 453/7/6
f 444/6/6 445/6/6 453/6/6
f 445/5/6 446/5/6 454/5/6
f 453/6/6 445/6/6 454/6/6
f 446/6/6 447/6/6 455/6/6
f 454/5/6 446/5/6 455/5/6
f 455/6/6 447/6/6 456/6/6
f 448/6/6 449/6/6 457/6/6
f 449/5/6 450/5/6 458/5/6
f 457/6/6 449/6/6 458/6/6
f 450/6/6 451/6/6 459/6/6
f 458/5/6 450/5/6 459/5/6
f 451/7/6 452/7/6 460/7/6
f 459/6/6 451/6/6 460/6/6
f 443/7/6 453/7/6 461/7/6
f 453/7/6 454/7/6 461/7/6
f 461/7/6 454/7/6 462/7/6
f 454/5/6 455/5/6 463/5/6
f 462/7/6 454/7/6 463/7/6
f 458/5/6 459/5/6 464/5/6
f 459/7/6 460/7/6 464/7/6
f 460/7/6 452/7/6 465/7/6
f 464/7/6 460/7/6 465/7/6
f 465/7/6 452/7/6 466/7/6
f 462/6/6 463/6/6 467/6/6
f 463/5/6 455/5/6 468/5/6
f 467/6/6 463/6/6 468/6/6
f 458/5/6 464/5/6 469/5/6
f 464/6/6 465/6/6 469/6/6
f 469/6/6 465/6/6 470/6/6
f 467/7/6 468/7/6 471/7/6
f 468/5/6 455/5/6 472/5/6
f 471/7/6 468/7/6 472/7/6
f 455/7/6 456/7/6 473/7/6
f 472/5/6 455/5/6 473/5/6
f 473/7/6 456/7/6 474/7/6
f 457/7/6 458/7/6 475/7/6
f 458/5/6 469/5/6 476/5/6
f 475/7/6 458/7/6 476/7/6
f 469/7/6 470/7/6 477/7/6
f 476/5/6 469/5/6 477/5/6
f 477/7/6 470/7/6 478/7/6
