# MagicaVoxel @ Ephtracy

# group
g golemLegRight

# material
mtllib golemLegRight.mtl
usemtl palette

# normals
vn -1 0 0
vn 1 0 0
vn 0 0 1
vn 0 0 -1
vn 0 -1 0
vn 0 1 0

# texcoords
vt 0.927734 0.5
vt 0.931641 0.5
vt 0.935547 0.5
vt 0.990234 0.5
vt 0.994141 0.5

# verts
v -5 0 4
v -5 0 3
v -5 0 1
v -5 0 -0
v -5 0 -2
v -5 1 4
v -5 1 3
v -5 1 2
v -5 1 1
v -5 1 -0
v -5 1 -1
v -5 2 2
v -5 2 1
v -5 2 -1
v -5 2 -2
v -4 0 5
v -4 0 4
v -4 1 5
v -4 1 4
v -4 1 3
v -4 1 2
v -4 2 3
v -4 2 2
v -2 0 5
v -2 0 4
v -2 0 2
v -2 0 1
v -2 0 -2
v -2 1 5
v -2 1 4
v -2 1 3
v -2 1 2
v -2 2 3
v -2 2 2
v -2 2 1
v -2 2 -2
v -4 0 5
v -4 1 5
v -3 0 5
v -3 1 5
v -2 0 5
v -2 1 5
v -5 0 4
v -5 1 4
v -4 0 4
v -4 1 4
v -4 1 3
v -4 2 3
v -3 1 3
v -3 2 3
v -2 1 3
v -2 2 3
v -5 1 2
v -5 2 2
v -4 1 2
v -4 2 2
v -5 0 -2
v -5 2 -2
v -2 0 -2
v -2 2 -2
v -4 0 5
v -3 0 5
v -2 0 5
v -5 0 4
v -4 0 4
v -3 0 4
v -2 0 4
v -5 0 3
v -4 0 3
v -3 0 3
v -3 0 2
v -2 0 2
v -5 0 1
v -4 0 1
v -2 0 1
v -5 0 -0
v -4 0 -0
v -5 0 -2
v -2 0 -2
v -4 1 5
v -3 1 5
v -2 1 5
v -5 1 4
v -4 1 4
v -3 1 4
v -2 1 4
v -5 1 3
v -4 1 3
v -3 1 3
v -2 1 3
v -5 1 2
v -4 1 2
v -4 2 3
v -3 2 3
v -2 2 3
v -5 2 2
v -4 2 2
v -3 2 2
v -2 2 2
v -5 2 1
v -4 2 1
v -2 2 1
v -5 2 -1
v -4 2 -1
v -5 2 -2
v -2 2 -2

# faces
f 6/3/1 2/3/1 1/3/1
f 7/2/1 3/2/1 2/2/1
f 7/3/1 2/3/1 6/3/1
f 8/2/1 3/2/1 7/2/1
f 9/5/1 4/5/1 3/5/1
f 9/2/1 3/2/1 8/2/1
f 10/4/1 5/4/1 4/4/1
f 10/5/1 4/5/1 9/5/1
f 11/4/1 5/4/1 10/4/1
f 12/1/1 9/1/1 8/1/1
f 13/5/1 11/5/1 10/5/1
f 13/1/1 9/1/1 12/1/1
f 13/5/1 10/5/1 9/5/1
f 14/4/1 5/4/1 11/4/1
f 14/5/1 11/5/1 13/5/1
f 15/4/1 5/4/1 14/4/1
f 18/5/1 17/5/1 16/5/1
f 19/5/1 17/5/1 18/5/1
f 22/2/1 21/2/1 20/2/1
f 23/2/1 21/2/1 22/2/1
f 24/3/2 25/3/2 29/3/2
f 25/2/2 26/2/2 30/2/2
f 29/3/2 25/3/2 30/3/2
f 30/2/2 26/2/2 31/2/2
f 26/5/2 27/5/2 32/5/2
f 31/2/2 26/2/2 32/2/2
f 31/1/2 32/1/2 33/1/2
f 32/5/2 27/5/2 34/5/2
f 33/1/2 32/1/2 34/1/2
f 27/4/2 28/4/2 35/4/2
f 34/5/2 27/5/2 35/5/2
f 35/4/2 28/4/2 36/4/2
f 39/5/3 38/5/3 37/5/3
f 40/5/3 38/5/3 39/5/3
f 41/3/3 40/3/3 39/3/3
f 42/3/3 40/3/3 41/3/3
f 45/3/3 44/3/3 43/3/3
f 46/3/3 44/3/3 45/3/3
f 49/2/3 48/2/3 47/2/3
f 50/2/3 48/2/3 49/2/3
f 51/1/3 50/1/3 49/1/3
f 52/1/3 50/1/3 51/1/3
f 55/1/3 54/1/3 53/1/3
f 56/1/3 54/1/3 55/1/3
f 57/4/4 58/4/4 59/4/4
f 59/4/4 58/4/4 60/4/4
f 65/5/5 62/5/5 61/5/5
f 66/3/5 63/3/5 62/3/5
f 66/5/5 62/5/5 65/5/5
f 67/3/5 63/3/5 66/3/5
f 68/3/5 65/3/5 64/3/5
f 69/4/5 66/4/5 65/4/5
f 69/3/5 65/3/5 68/3/5
f 70/2/5 67/2/5 66/2/5
f 70/4/5 66/4/5 69/4/5
f 71/5/5 70/5/5 69/5/5
f 71/2/5 67/2/5 70/2/5
f 72/2/5 67/2/5 71/2/5
f 73/2/5 69/2/5 68/2/5
f 74/5/5 71/5/5 69/5/5
f 74/2/5 69/2/5 73/2/5
f 74/5/5 72/5/5 71/5/5
f 75/5/5 72/5/5 74/5/5
f 76/5/5 74/5/5 73/5/5
f 77/4/5 75/4/5 74/4/5
f 77/5/5 74/5/5 76/5/5
f 78/4/5 77/4/5 76/4/5
f 79/4/5 75/4/5 77/4/5
f 79/4/5 77/4/5 78/4/5
f 80/5/6 81/5/6 84/5/6
f 81/3/6 82/3/6 85/3/6
f 84/5/6 81/5/6 85/5/6
f 85/3/6 82/3/6 86/3/6
f 83/3/6 84/3/6 87/3/6
f 84/4/6 85/4/6 88/4/6
f 87/3/6 84/3/6 88/3/6
f 85/2/6 86/2/6 89/2/6
f 88/4/6 85/4/6 89/4/6
f 89/2/6 86/2/6 90/2/6
f 87/2/6 88/2/6 91/2/6
f 91/2/6 88/2/6 92/2/6
f 93/2/6 94/2/6 97/2/6
f 94/1/6 95/1/6 98/1/6
f 97/2/6 94/2/6 98/2/6
f 98/1/6 95/1/6 99/1/6
f 96/1/6 97/1/6 100/1/6
f 97/5/6 98/5/6 101/5/6
f 100/1/6 97/1/6 101/1/6
f 98/5/6 99/5/6 101/5/6
f 101/5/6 99/5/6 102/5/6
f 100/5/6 101/5/6 103/5/6
f 101/4/6 102/4/6 104/4/6
f 103/5/6 101/5/6 104/5/6
f 103/4/6 104/4/6 105/4/6
f 104/4/6 102/4/6 106/4/6
f 105/4/6 104/4/6 106/4/6
