# MagicaVoxel @ Ephtracy

# group
g golemArmRight

# material
mtllib golemArmRight.mtl
usemtl palette

# normals
vn -1 0 0
vn 1 0 0
vn 0 0 1
vn 0 0 -1
vn 0 -1 0
vn 0 1 0

# texcoords
vt 0.927734 0.5
vt 0.931641 0.5
vt 0.935547 0.5
vt 0.990234 0.5
vt 0.994141 0.5

# verts
v -12 3 4
v -12 3 2
v -12 4 4
v -12 4 2
v -12 5 4
v -12 5 2
v -12 6 4
v -12 6 3
v -12 7 3
v -12 7 2
v -12 8 4
v -12 8 3
v -12 8 2
v -12 9 3
v -12 9 2
v -12 10 3
v -12 10 2
v -12 11 4
v -12 11 3
v -12 12 3
v -12 12 2
v -12 13 4
v -12 13 3
v -12 14 4
v -12 14 3
v -12 14 2
v -12 15 3
v -12 15 2
v -11 2 4
v -11 2 2
v -11 3 4
v -11 3 2
v -10 14 4
v -10 14 3
v -10 15 4
v -10 15 3
v -11 7 4
v -11 7 3
v -11 8 4
v -11 8 3
v -11 9 3
v -11 10 4
v -11 10 3
v -10 3 4
v -10 3 2
v -10 4 4
v -10 4 3
v -10 5 4
v -10 5 3
v -10 5 2
v -9 2 4
v -9 2 2
v -9 3 4
v -9 3 2
v -9 5 4
v -9 5 3
v -9 5 2
v -9 6 4
v -9 6 3
v -9 6 2
v -9 7 4
v -9 7 3
v -9 7 2
v -9 8 3
v -9 8 2
v -9 9 3
v -9 9 2
v -9 10 4
v -9 10 3
v -9 10 2
v -9 11 4
v -9 11 2
v -9 12 4
v -9 12 2
v -9 13 4
v -9 13 2
v -9 15 4
v -9 15 2
v -12 3 4
v -12 4 4
v -12 5 4
v -12 6 4
v -12 8 4
v -12 11 4
v -12 13 4
v -12 14 4
v -11 2 4
v -11 3 4
v -11 4 4
v -11 5 4
v -11 6 4
v -11 7 4
v -11 8 4
v -11 10 4
v -11 11 4
v -11 12 4
v -11 13 4
v -11 14 4
v -10 2 4
v -10 3 4
v -10 4 4
v -10 5 4
v -10 6 4
v -10 7 4
v -10 11 4
v -10 12 4
v -10 13 4
v -10 14 4
v -10 15 4
v -9 2 4
v -9 3 4
v -9 5 4
v -9 6 4
v -9 7 4
v -9 10 4
v -9 11 4
v -9 12 4
v -9 13 4
v -9 15 4
v -12 14 3
v -12 15 3
v -11 7 3
v -11 8 3
v -11 9 3
v -11 10 3
v -11 14 3
v -11 15 3
v -10 7 3
v -10 14 3
v -10 15 3
v -9 7 3
v -9 8 3
v -9 9 3
v -9 10 3
v -12 8 3
v -12 9 3
v -11 8 3
v -11 9 3
v -12 3 2
v -12 4 2
v -12 5 2
v -12 7 2
v -12 8 2
v -12 9 2
v -12 10 2
v -12 12 2
v -12 14 2
v -12 15 2
v -11 2 2
v -11 3 2
v -11 4 2
v -11 5 2
v -11 6 2
v -11 7 2
v -11 10 2
v -11 12 2
v -11 14 2
v -11 15 2
v -10 2 2
v -10 3 2
v -10 5 2
v -10 6 2
v -10 7 2
v -10 11 2
v -10 12 2
v -10 13 2
v -9 2 2
v -9 3 2
v -9 5 2
v -9 6 2
v -9 7 2
v -9 8 2
v -9 9 2
v -9 10 2
v -9 11 2
v -9 12 2
v -9 13 2
v -9 15 2
v -11 2 4
v -10 2 4
v -9 2 4
v -11 2 2
v -10 2 2
v -9 2 2
v -12 3 4
v -11 3 4
v -12 3 2
v -11 3 2
v -10 5 4
v -9 5 4
v -10 5 3
v -9 5 3
v -10 5 2
v -9 5 2
v -12 9 3
v -11 9 3
v -9 9 3
v -12 9 2
v -9 9 2
v -11 10 4
v -9 10 4
v -11 10 3
v -9 10 3
v -10 3 4
v -9 3 4
v -10 3 2
v -9 3 2
v -11 7 4
v -10 7 4
v -9 7 4
v -11 7 3
v -10 7 3
v -9 7 3
v -12 8 3
v -11 8 3
v -9 8 3
v -12 8 2
v -9 8 2
v -12 14 4
v -11 14 4
v -10 14 4
v -12 14 3
v -11 14 3
v -10 14 3
v -10 15 4
v -9 15 4
v -12 15 3
v -11 15 3
v -10 15 3
v -12 15 2
v -11 15 2
v -9 15 2

# faces
f 3/3/1 2/3/1 1/3/1
f 4/3/1 2/3/1 3/3/1
f 5/2/1 4/2/1 3/2/1
f 6/2/1 4/2/1 5/2/1
f 7/1/1 6/1/1 5/1/1
f 8/1/1 6/1/1 7/1/1
f 9/2/1 8/2/1 7/2/1
f 9/1/1 6/1/1 8/1/1
f 10/1/1 6/1/1 9/1/1
f 11/2/1 9/2/1 7/2/1
f 11/2/1 10/2/1 9/2/1
f 12/2/1 10/2/1 11/2/1
f 13/2/1 10/2/1 12/2/1
f 14/3/1 12/3/1 11/3/1
f 16/3/1 14/3/1 11/3/1
f 16/2/1 15/2/1 14/2/1
f 17/2/1 15/2/1 16/2/1
f 18/3/1 16/3/1 11/3/1
f 18/3/1 17/3/1 16/3/1
f 19/3/1 17/3/1 18/3/1
f 20/2/1 19/2/1 18/2/1
f 20/3/1 17/3/1 19/3/1
f 21/3/1 17/3/1 20/3/1
f 22/2/1 20/2/1 18/2/1
f 22/2/1 21/2/1 20/2/1
f 23/2/1 21/2/1 22/2/1
f 24/1/1 23/1/1 22/1/1
f 25/2/1 21/2/1 23/2/1
f 25/1/1 23/1/1 24/1/1
f 26/2/1 21/2/1 25/2/1
f 27/1/1 26/1/1 25/1/1
f 28/1/1 26/1/1 27/1/1
f 31/3/1 30/3/1 29/3/1
f 32/3/1 30/3/1 31/3/1
f 35/5/1 34/5/1 33/5/1
f 36/5/1 34/5/1 35/5/1
f 37/2/2 38/2/2 39/2/2
f 39/2/2 38/2/2 40/2/2
f 39/3/2 40/3/2 41/3/2
f 39/3/2 41/3/2 42/3/2
f 42/3/2 41/3/2 43/3/2
f 44/2/2 45/2/2 46/2/2
f 46/2/2 45/2/2 47/2/2
f 46/1/2 47/1/2 48/1/2
f 47/2/2 45/2/2 49/2/2
f 48/1/2 47/1/2 49/1/2
f 49/2/2 45/2/2 50/2/2
f 51/2/2 52/2/2 53/2/2
f 53/2/2 52/2/2 54/2/2
f 55/1/2 56/1/2 58/1/2
f 56/2/2 57/2/2 59/2/2
f 58/1/2 56/1/2 59/1/2
f 59/2/2 57/2/2 60/2/2
f 58/5/2 59/5/2 61/5/2
f 59/5/2 60/5/2 61/5/2
f 61/5/2 60/5/2 62/5/2
f 62/5/2 60/5/2 63/5/2
f 62/2/2 63/2/2 64/2/2
f 64/2/2 63/2/2 65/2/2
f 66/2/2 67/2/2 69/2/2
f 69/2/2 67/2/2 70/2/2
f 68/4/2 69/4/2 71/4/2
f 69/4/2 70/4/2 71/4/2
f 71/4/2 70/4/2 72/4/2
f 71/5/2 72/5/2 73/5/2
f 73/5/2 72/5/2 74/5/2
f 73/4/2 74/4/2 75/4/2
f 75/4/2 74/4/2 76/4/2
f 75/5/2 76/5/2 77/5/2
f 77/5/2 76/5/2 78/5/2
f 88/3/3 80/3/3 79/3/3
f 89/2/3 81/2/3 80/2/3
f 89/3/3 80/3/3 88/3/3
f 90/1/3 82/1/3 81/1/3
f 90/2/3 81/2/3 89/2/3
f 91/2/3 83/2/3 82/2/3
f 91/1/3 82/1/3 90/1/3
f 92/2/3 83/2/3 91/2/3
f 93/3/3 84/3/3 83/3/3
f 93/2/3 83/2/3 92/2/3
f 94/3/3 84/3/3 93/3/3
f 95/2/3 85/2/3 84/2/3
f 95/3/3 84/3/3 94/3/3
f 96/2/3 85/2/3 95/2/3
f 97/1/3 86/1/3 85/1/3
f 97/2/3 85/2/3 96/2/3
f 98/1/3 86/1/3 97/1/3
f 99/3/3 88/3/3 87/3/3
f 100/2/3 89/2/3 88/2/3
f 100/3/3 88/3/3 99/3/3
f 101/1/3 90/1/3 89/1/3
f 101/2/3 89/2/3 100/2/3
f 102/5/3 91/5/3 90/5/3
f 102/1/3 90/1/3 101/1/3
f 103/4/3 92/4/3 91/4/3
f 103/5/3 91/5/3 102/5/3
f 104/4/3 92/4/3 103/4/3
f 105/4/3 96/4/3 95/4/3
f 105/4/3 95/4/3 94/4/3
f 106/5/3 98/5/3 97/5/3
f 106/4/3 96/4/3 105/4/3
f 106/5/3 97/5/3 96/5/3
f 107/5/3 98/5/3 106/5/3
f 108/5/3 98/5/3 107/5/3
f 110/2/3 100/2/3 99/2/3
f 111/2/3 100/2/3 110/2/3
f 112/1/3 103/1/3 102/1/3
f 113/5/3 104/5/3 103/5/3
f 113/1/3 103/1/3 112/1/3
f 114/5/3 104/5/3 113/5/3
f 115/4/3 105/4/3 94/4/3
f 116/5/3 106/5/3 105/5/3
f 116/4/3 105/4/3 115/4/3
f 117/4/3 107/4/3 106/4/3
f 117/5/3 106/5/3 116/5/3
f 118/5/3 108/5/3 107/5/3
f 118/4/3 107/4/3 117/4/3
f 118/5/3 109/5/3 108/5/3
f 119/5/3 109/5/3 118/5/3
f 126/1/3 121/1/3 120/1/3
f 127/1/3 121/1/3 126/1/3
f 128/2/3 123/2/3 122/2/3
f 129/5/3 127/5/3 126/5/3
f 130/5/3 127/5/3 129/5/3
f 131/2/3 123/2/3 128/2/3
f 132/2/3 123/2/3 131/2/3
f 133/2/3 125/2/3 124/2/3
f 134/2/3 125/2/3 133/2/3
f 135/3/4 136/3/4 137/3/4
f 137/3/4 136/3/4 138/3/4
f 139/3/4 140/3/4 150/3/4
f 140/2/4 141/2/4 151/2/4
f 150/3/4 140/3/4 151/3/4
f 141/1/4 142/1/4 152/1/4
f 151/2/4 141/2/4 152/2/4
f 152/1/4 142/1/4 153/1/4
f 142/2/4 143/2/4 154/2/4
f 153/1/4 142/1/4 154/1/4
f 144/2/4 145/2/4 155/2/4
f 145/3/4 146/3/4 155/3/4
f 146/2/4 147/2/4 156/2/4
f 155/3/4 146/3/4 156/3/4
f 147/1/4 148/1/4 157/1/4
f 156/2/4 147/2/4 157/2/4
f 157/1/4 148/1/4 158/1/4
f 149/3/4 150/3/4 159/3/4
f 150/2/4 151/2/4 160/2/4
f 159/3/4 150/3/4 160/3/4
f 151/2/4 152/2/4 160/2/4
f 152/5/4 153/5/4 161/5/4
f 160/2/4 152/2/4 161/2/4
f 153/4/4 154/4/4 162/4/4
f 161/5/4 153/5/4 162/5/4
f 154/2/4 143/2/4 163/2/4
f 162/4/4 154/4/4 163/4/4
f 155/4/4 156/4/4 164/4/4
f 157/5/4 158/5/4 165/5/4
f 164/4/4 156/4/4 165/4/4
f 156/5/4 157/5/4 165/5/4
f 165/5/4 158/5/4 166/5/4
f 159/2/4 160/2/4 167/2/4
f 167/2/4 160/2/4 168/2/4
f 161/2/4 162/2/4 169/2/4
f 162/5/4 163/5/4 170/5/4
f 169/2/4 162/2/4 170/2/4
f 163/2/4 143/2/4 171/2/4
f 170/5/4 163/5/4 171/5/4
f 171/2/4 143/2/4 172/2/4
f 144/2/4 155/2/4 173/2/4
f 155/4/4 164/4/4 174/4/4
f 173/2/4 155/2/4 174/2/4
f 164/5/4 165/5/4 175/5/4
f 174/4/4 164/4/4 175/4/4
f 165/4/4 166/4/4 176/4/4
f 175/5/4 165/5/4 176/5/4
f 166/5/4 158/5/4 177/5/4
f 176/4/4 166/4/4 177/4/4
f 177/5/4 158/5/4 178/5/4
f 182/3/5 180/3/5 179/3/5
f 183/2/5 181/2/5 180/2/5
f 183/3/5 180/3/5 182/3/5
f 184/2/5 181/2/5 183/2/5
f 187/3/5 186/3/5 185/3/5
f 188/3/5 186/3/5 187/3/5
f 191/1/5 190/1/5 189/1/5
f 192/1/5 190/1/5 191/1/5
f 193/2/5 192/2/5 191/2/5
f 194/2/5 192/2/5 193/2/5
f 198/2/5 196/2/5 195/2/5
f 198/2/5 197/2/5 196/2/5
f 199/2/5 197/2/5 198/2/5
f 202/4/5 201/4/5 200/4/5
f 203/4/5 201/4/5 202/4/5
f 204/2/6 205/2/6 206/2/6
f 206/2/6 205/2/6 207/2/6
f 208/4/6 209/4/6 211/4/6
f 209/5/6 210/5/6 212/5/6
f 211/4/6 209/4/6 212/4/6
f 212/5/6 210/5/6 213/5/6
f 214/2/6 215/2/6 217/2/6
f 215/2/6 216/2/6 217/2/6
f 217/2/6 216/2/6 218/2/6
f 219/1/6 220/1/6 222/1/6
f 220/5/6 221/5/6 223/5/6
f 222/1/6 220/1/6 223/1/6
f 223/5/6 221/5/6 224/5/6
f 225/5/6 226/5/6 229/5/6
f 227/1/6 228/1/6 230/1/6
f 228/5/6 229/5/6 231/5/6
f 230/1/6 228/1/6 231/1/6
f 229/5/6 226/5/6 232/5/6
f 231/5/6 229/5/6 232/5/6
