# MagicaVoxel @ Ephtracy

# group
g tilestart

# material
mtllib tilestart.mtl
usemtl palette

# normals
vn -1 0 0
vn 1 0 0
vn 0 0 1
vn 0 0 -1
vn 0 -1 0
vn 0 1 0

# texcoords
vt 0.966797 0.5
vt 0.986328 0.5
vt 0.990234 0.5
vt 0.994141 0.5

# verts
v -16 0 16
v -16 0 15
v -16 0 -15
v -16 0 -16
v -16 1 16
v -16 1 15
v -16 1 -15
v -16 1 -16
v -16 2 16
v -16 2 15
v -16 2 -15
v -16 2 -16
v 16 0 16
v 16 0 15
v 16 0 -15
v 16 0 -16
v 16 1 16
v 16 1 15
v 16 1 -15
v 16 1 -16
v 16 2 16
v 16 2 15
v 16 2 -15
v 16 2 -16
v -16 0 16
v -16 1 16
v -16 2 16
v -15 0 16
v -15 1 16
v -15 2 16
v 15 0 16
v 15 1 16
v 15 2 16
v 16 0 16
v 16 1 16
v 16 2 16
v -16 0 -16
v -16 1 -16
v -16 2 -16
v -15 0 -16
v -15 1 -16
v -15 2 -16
v 15 0 -16
v 15 1 -16
v 15 2 -16
v 16 0 -16
v 16 1 -16
v 16 2 -16
v -16 0 16
v -15 0 16
v 15 0 16
v 16 0 16
v -16 0 15
v -15 0 15
v 15 0 15
v 16 0 15
v -16 0 -15
v -15 0 -15
v 15 0 -15
v 16 0 -15
v -16 0 -16
v -15 0 -16
v 15 0 -16
v 16 0 -16
v -16 2 16
v -15 2 16
v 15 2 16
v 16 2 16
v -16 2 15
v -15 2 15
v 15 2 15
v 16 2 15
v -14 2 14
v -13 2 14
v 13 2 14
v 14 2 14
v -14 2 13
v -13 2 13
v 13 2 13
v 14 2 13
v -12 2 12
v -11 2 12
v -10 2 12
v -9 2 12
v -8 2 12
v 8 2 12
v 9 2 12
v 10 2 12
v 11 2 12
v 12 2 12
v -12 2 11
v -11 2 11
v -8 2 11
v 8 2 11
v 11 2 11
v 12 2 11
v -12 2 10
v -10 2 10
v -9 2 10
v -8 2 10
v 8 2 10
v 9 2 10
v 10 2 10
v 12 2 10
v -12 2 9
v -10 2 9
v -9 2 9
v -8 2 9
v 8 2 9
v 9 2 9
v 10 2 9
v 12 2 9
v -12 2 8
v -11 2 8
v -10 2 8
v -9 2 8
v 9 2 8
v 10 2 8
v 11 2 8
v 12 2 8
v -12 2 -8
v -11 2 -8
v -10 2 -8
v -9 2 -8
v 9 2 -8
v 10 2 -8
v 11 2 -8
v 12 2 -8
v -12 2 -9
v -10 2 -9
v -9 2 -9
v -8 2 -9
v 8 2 -9
v 9 2 -9
v 10 2 -9
v 12 2 -9
v -12 2 -10
v -10 2 -10
v -9 2 -10
v -8 2 -10
v 8 2 -10
v 9 2 -10
v 10 2 -10
v 12 2 -10
v -12 2 -11
v -11 2 -11
v -8 2 -11
v 8 2 -11
v 11 2 -11
v 12 2 -11
v -12 2 -12
v -11 2 -12
v -10 2 -12
v -9 2 -12
v -8 2 -12
v 8 2 -12
v 9 2 -12
v 10 2 -12
v 11 2 -12
v 12 2 -12
v -14 2 -13
v -13 2 -13
v 13 2 -13
v 14 2 -13
v -14 2 -14
v -13 2 -14
v 13 2 -14
v 14 2 -14
v -16 2 -15
v -15 2 -15
v 15 2 -15
v 16 2 -15
v -16 2 -16
v -15 2 -16
v 15 2 -16
v 16 2 -16

# faces
f 5/2/1 2/2/1 1/2/1
f 6/3/1 3/3/1 2/3/1
f 6/2/1 2/2/1 5/2/1
f 7/2/1 4/2/1 3/2/1
f 7/3/1 3/3/1 6/3/1
f 8/2/1 4/2/1 7/2/1
f 9/3/1 6/3/1 5/3/1
f 10/4/1 7/4/1 6/4/1
f 10/3/1 6/3/1 9/3/1
f 11/3/1 8/3/1 7/3/1
f 11/4/1 7/4/1 10/4/1
f 12/3/1 8/3/1 11/3/1
f 13/2/2 14/2/2 17/2/2
f 14/3/2 15/3/2 18/3/2
f 17/2/2 14/2/2 18/2/2
f 15/2/2 16/2/2 19/2/2
f 18/3/2 15/3/2 19/3/2
f 19/2/2 16/2/2 20/2/2
f 17/3/2 18/3/2 21/3/2
f 18/4/2 19/4/2 22/4/2
f 21/3/2 18/3/2 22/3/2
f 19/3/2 20/3/2 23/3/2
f 22/4/2 19/4/2 23/4/2
f 23/3/2 20/3/2 24/3/2
f 28/2/3 26/2/3 25/2/3
f 29/3/3 27/3/3 26/3/3
f 29/2/3 26/2/3 28/2/3
f 30/3/3 27/3/3 29/3/3
f 31/3/3 29/3/3 28/3/3
f 32/4/3 30/4/3 29/4/3
f 32/3/3 29/3/3 31/3/3
f 33/4/3 30/4/3 32/4/3
f 34/2/3 32/2/3 31/2/3
f 35/3/3 33/3/3 32/3/3
f 35/2/3 32/2/3 34/2/3
f 36/3/3 33/3/3 35/3/3
f 37/2/4 38/2/4 40/2/4
f 38/3/4 39/3/4 41/3/4
f 40/2/4 38/2/4 41/2/4
f 41/3/4 39/3/4 42/3/4
f 40/3/4 41/3/4 43/3/4
f 41/4/4 42/4/4 44/4/4
f 43/3/4 41/3/4 44/3/4
f 44/4/4 42/4/4 45/4/4
f 43/2/4 44/2/4 46/2/4
f 44/3/4 45/3/4 47/3/4
f 46/2/4 44/2/4 47/2/4
f 47/3/4 45/3/4 48/3/4
f 53/2/5 50/2/5 49/2/5
f 54/3/5 51/3/5 50/3/5
f 54/2/5 50/2/5 53/2/5
f 55/2/5 52/2/5 51/2/5
f 55/3/5 51/3/5 54/3/5
f 56/2/5 52/2/5 55/2/5
f 57/3/5 54/3/5 53/3/5
f 57/3/5 55/3/5 54/3/5
f 57/3/5 56/3/5 55/3/5
f 58/3/5 56/3/5 57/3/5
f 59/3/5 56/3/5 58/3/5
f 60/3/5 56/3/5 59/3/5
f 61/2/5 58/2/5 57/2/5
f 62/3/5 59/3/5 58/3/5
f 62/2/5 58/2/5 61/2/5
f 63/2/5 60/2/5 59/2/5
f 63/3/5 59/3/5 62/3/5
f 64/2/5 60/2/5 63/2/5
f 65/3/6 66/3/6 69/3/6
f 66/4/6 67/4/6 70/4/6
f 69/3/6 66/3/6 70/3/6
f 67/3/6 68/3/6 71/3/6
f 70/4/6 67/4/6 71/4/6
f 71/3/6 68/3/6 72/3/6
f 70/1/6 71/1/6 73/1/6
f 73/1/6 71/1/6 74/1/6
f 74/1/6 71/1/6 75/1/6
f 75/1/6 71/1/6 76/1/6
f 70/1/6 73/1/6 77/1/6
f 73/2/6 74/2/6 77/2/6
f 74/3/6 75/3/6 78/3/6
f 77/2/6 74/2/6 78/2/6
f 75/2/6 76/2/6 79/2/6
f 78/3/6 75/3/6 79/3/6
f 76/1/6 71/1/6 80/1/6
f 79/2/6 76/2/6 80/2/6
f 78/4/6 79/4/6 81/4/6
f 81/4/6 79/4/6 82/4/6
f 82/4/6 79/4/6 83/4/6
f 83/4/6 79/4/6 84/4/6
f 84/4/6 79/4/6 85/4/6
f 85/4/6 79/4/6 86/4/6
f 86/4/6 79/4/6 87/4/6
f 87/4/6 79/4/6 88/4/6
f 88/4/6 79/4/6 89/4/6
f 89/4/6 79/4/6 90/4/6
f 78/4/6 81/4/6 91/4/6
f 81/3/6 82/3/6 91/3/6
f 82/4/6 83/4/6 92/4/6
f 91/3/6 82/3/6 92/3/6
f 84/3/6 85/3/6 93/3/6
f 85/4/6 86/4/6 93/4/6
f 86/3/6 87/3/6 94/3/6
f 93/4/6 86/4/6 94/4/6
f 89/3/6 90/3/6 95/3/6
f 88/4/6 89/4/6 95/4/6
f 90/4/6 79/4/6 96/4/6
f 95/3/6 90/3/6 96/3/6
f 78/4/6 91/4/6 97/4/6
f 91/4/6 92/4/6 97/4/6
f 83/1/6 84/1/6 98/1/6
f 97/4/6 92/4/6 98/4/6
f 92/4/6 83/4/6 98/4/6
f 84/3/6 93/3/6 99/3/6
f 98/1/6 84/1/6 99/1/6
f 93/1/6 94/1/6 100/1/6
f 99/3/6 93/3/6 100/3/6
f 94/3/6 87/3/6 101/3/6
f 100/1/6 94/1/6 101/1/6
f 87/1/6 88/1/6 102/1/6
f 101/3/6 87/3/6 102/3/6
f 88/4/6 95/4/6 103/4/6
f 102/1/6 88/1/6 103/1/6
f 95/4/6 96/4/6 103/4/6
f 96/4/6 79/4/6 104/4/6
f 103/4/6 96/4/6 104/4/6
f 78/4/6 97/4/6 105/4/6
f 97/1/6 98/1/6 105/1/6
f 98/3/6 99/3/6 106/3/6
f 105/1/6 98/1/6 106/1/6
f 99/4/6 100/4/6 107/4/6
f 106/3/6 99/3/6 107/3/6
f 100/3/6 101/3/6 108/3/6
f 107/4/6 100/4/6 108/4/6
f 101/4/6 102/4/6 109/4/6
f 108/3/6 101/3/6 109/3/6
f 102/3/6 103/3/6 110/3/6
f 109/4/6 102/4/6 110/4/6
f 103/1/6 104/1/6 111/1/6
f 110/3/6 103/3/6 111/3/6
f 104/4/6 79/4/6 112/4/6
f 111/1/6 104/1/6 112/1/6
f 105/3/6 106/3/6 113/3/6
f 78/4/6 105/4/6 113/4/6
f 113/3/6 106/3/6 114/3/6
f 107/4/6 108/4/6 115/4/6
f 114/3/6 106/3/6 115/3/6
f 108/4/6 109/4/6 115/4/6
f 110/4/6 111/4/6 115/4/6
f 109/4/6 110/4/6 115/4/6
f 106/4/6 107/4/6 115/4/6
f 115/4/6 111/4/6 116/4/6
f 116/4/6 111/4/6 117/4/6
f 111/3/6 112/3/6 118/3/6
f 117/4/6 111/4/6 118/4/6
f 118/3/6 112/3/6 119/3/6
f 112/4/6 79/4/6 120/4/6
f 119/3/6 112/3/6 120/3/6
f 113/4/6 114/4/6 121/4/6
f 78/4/6 113/4/6 121/4/6
f 114/1/6 115/1/6 122/1/6
f 121/4/6 114/4/6 122/4/6
f 115/3/6 116/3/6 123/3/6
f 122/1/6 115/1/6 123/1/6
f 116/4/6 117/4/6 124/4/6
f 123/3/6 116/3/6 124/3/6
f 117/3/6 118/3/6 125/3/6
f 124/4/6 117/4/6 125/4/6
f 118/1/6 119/1/6 126/1/6
f 125/3/6 118/3/6 126/3/6
f 119/4/6 120/4/6 127/4/6
f 126/1/6 119/1/6 127/1/6
f 120/4/6 79/4/6 128/4/6
f 127/4/6 120/4/6 128/4/6
f 122/3/6 123/3/6 129/3/6
f 78/4/6 121/4/6 129/4/6
f 121/3/6 122/3/6 129/3/6
f 124/4/6 125/4/6 130/4/6
f 129/3/6 123/3/6 130/3/6
f 125/4/6 126/4/6 130/4/6
f 123/4/6 124/4/6 130/4/6
f 130/4/6 126/4/6 131/4/6
f 131/4/6 126/4/6 132/4/6
f 132/4/6 126/4/6 133/4/6
f 133/4/6 126/4/6 134/4/6
f 126/3/6 127/3/6 135/3/6
f 134/4/6 126/4/6 135/4/6
f 127/3/6 128/3/6 135/3/6
f 128/4/6 79/4/6 136/4/6
f 135/3/6 128/3/6 136/3/6
f 78/4/6 129/4/6 137/4/6
f 129/1/6 130/1/6 137/1/6
f 130/3/6 131/3/6 138/3/6
f 137/1/6 130/1/6 138/1/6
f 131/4/6 132/4/6 139/4/6
f 138/3/6 131/3/6 139/3/6
f 132/3/6 133/3/6 140/3/6
f 139/4/6 132/4/6 140/4/6
f 133/4/6 134/4/6 141/4/6
f 140/3/6 133/3/6 141/3/6
f 134/3/6 135/3/6 142/3/6
f 141/4/6 134/4/6 142/4/6
f 135/1/6 136/1/6 143/1/6
f 142/3/6 135/3/6 143/3/6
f 136/4/6 79/4/6 144/4/6
f 143/1/6 136/1/6 144/1/6
f 78/4/6 137/4/6 145/4/6
f 137/4/6 138/4/6 145/4/6
f 145/4/6 138/4/6 146/4/6
f 139/3/6 140/3/6 147/3/6
f 140/1/6 141/1/6 147/1/6
f 141/3/6 142/3/6 148/3/6
f 147/1/6 141/1/6 148/1/6
f 143/4/6 144/4/6 149/4/6
f 144/4/6 79/4/6 150/4/6
f 149/4/6 144/4/6 150/4/6
f 145/3/6 146/3/6 151/3/6
f 78/4/6 145/4/6 151/4/6
f 146/4/6 138/4/6 152/4/6
f 151/3/6 146/3/6 152/3/6
f 138/1/6 139/1/6 153/1/6
f 152/4/6 138/4/6 153/4/6
f 139/3/6 147/3/6 154/3/6
f 153/1/6 139/1/6 154/1/6
f 147/4/6 148/4/6 155/4/6
f 154/3/6 147/3/6 155/3/6
f 148/3/6 142/3/6 156/3/6
f 155/4/6 148/4/6 156/4/6
f 142/1/6 143/1/6 157/1/6
f 156/3/6 142/3/6 157/3/6
f 143/4/6 149/4/6 158/4/6
f 157/1/6 143/1/6 158/1/6
f 149/3/6 150/3/6 159/3/6
f 158/4/6 149/4/6 159/4/6
f 150/4/6 79/4/6 160/4/6
f 159/3/6 150/3/6 160/3/6
f 77/3/6 78/3/6 161/3/6
f 70/1/6 77/1/6 161/1/6
f 159/4/6 160/4/6 162/4/6
f 161/3/6 78/3/6 162/3/6
f 78/4/6 151/4/6 162/4/6
f 153/4/6 154/4/6 162/4/6
f 157/4/6 158/4/6 162/4/6
f 154/4/6 155/4/6 162/4/6
f 156/4/6 157/4/6 162/4/6
f 152/4/6 153/4/6 162/4/6
f 158/4/6 159/4/6 162/4/6
f 151/4/6 152/4/6 162/4/6
f 155/4/6 156/4/6 162/4/6
f 160/4/6 79/4/6 163/4/6
f 162/4/6 160/4/6 163/4/6
f 79/3/6 80/3/6 163/3/6
f 80/1/6 71/1/6 164/1/6
f 163/3/6 80/3/6 164/3/6
f 161/2/6 162/2/6 165/2/6
f 70/1/6 161/1/6 165/1/6
f 162/3/6 163/3/6 166/3/6
f 165/2/6 162/2/6 166/2/6
f 163/2/6 164/2/6 167/2/6
f 166/3/6 163/3/6 167/3/6
f 164/1/6 71/1/6 168/1/6
f 167/2/6 164/2/6 168/2/6
f 69/4/6 70/4/6 169/4/6
f 70/1/6 165/1/6 170/1/6
f 169/4/6 70/4/6 170/4/6
f 166/1/6 167/1/6 170/1/6
f 167/1/6 168/1/6 170/1/6
f 165/1/6 166/1/6 170/1/6
f 168/1/6 71/1/6 171/1/6
f 170/1/6 168/1/6 171/1/6
f 71/4/6 72/4/6 171/4/6
f 171/4/6 72/4/6 172/4/6
f 169/3/6 170/3/6 173/3/6
f 170/4/6 171/4/6 174/4/6
f 173/3/6 170/3/6 174/3/6
f 171/3/6 172/3/6 175/3/6
f 174/4/6 171/4/6 175/4/6
f 175/3/6 172/3/6 176/3/6
