# MagicaVoxel @ Ephtracy

# group
g powerupfreeze

# material
mtllib powerupfreeze.mtl
usemtl palette

# normals
vn -1 0 0
vn 1 0 0
vn 0 0 1
vn 0 0 -1
vn 0 -1 0
vn 0 1 0

# texcoords
vt 0.955078 0.5
vt 0.958984 0.5
vt 0.962891 0.5
vt 0.990234 0.5
vt 0.994141 0.5

# verts
v -6 3 1
v -6 3 -0
v -6 9 1
v -6 9 -0
v -5 1 1
v -5 1 -0
v -5 3 1
v -5 3 -0
v -5 9 1
v -5 9 -0
v -5 11 1
v -5 11 -0
v -3 0 1
v -3 0 -0
v -3 1 1
v -3 1 -0
v -3 11 1
v -3 11 -0
v -3 12 1
v -3 12 -0
v 3 0 1
v 3 0 -0
v 3 1 1
v 3 1 -0
v 3 11 1
v 3 11 -0
v 3 12 1
v 3 12 -0
v 5 1 1
v 5 1 -0
v 5 3 1
v 5 3 -0
v 5 9 1
v 5 9 -0
v 5 11 1
v 5 11 -0
v 6 3 1
v 6 3 -0
v 6 9 1
v 6 9 -0
v -6 3 1
v -6 9 1
v -5 1 1
v -5 3 1
v -5 9 1
v -5 11 1
v -4 2 1
v -4 3 1
v -4 9 1
v -4 10 1
v -3 0 1
v -3 1 1
v -3 2 1
v -3 3 1
v -3 4 1
v -3 10 1
v -3 11 1
v -3 12 1
v -2 2 1
v -2 3 1
v -2 4 1
v -2 5 1
v -2 6 1
v -1 4 1
v -1 5 1
v -1 6 1
v -1 7 1
v -1 8 1
v 0 3 1
v 0 4 1
v 0 5 1
v 0 6 1
v 0 7 1
v 0 8 1
v 0 9 1
v 1 5 1
v 1 6 1
v 1 7 1
v 2 4 1
v 2 5 1
v 2 6 1
v 2 8 1
v 3 0 1
v 3 1 1
v 3 2 1
v 3 5 1
v 3 6 1
v 3 9 1
v 3 10 1
v 3 11 1
v 3 12 1
v 4 2 1
v 4 3 1
v 4 6 1
v 4 9 1
v 4 10 1
v 5 1 1
v 5 3 1
v 5 9 1
v 5 11 1
v 6 3 1
v 6 9 1
v -6 3 -0
v -6 9 -0
v -5 1 -0
v -5 3 -0
v -5 9 -0
v -5 11 -0
v -4 2 -0
v -4 3 -0
v -4 9 -0
v -4 10 -0
v -3 0 -0
v -3 1 -0
v -3 2 -0
v -3 3 -0
v -3 4 -0
v -3 10 -0
v -3 11 -0
v -3 12 -0
v -2 2 -0
v -2 3 -0
v -2 4 -0
v -2 5 -0
v -2 6 -0
v -1 4 -0
v -1 5 -0
v -1 6 -0
v -1 7 -0
v -1 8 -0
v 0 3 -0
v 0 4 -0
v 0 5 -0
v 0 6 -0
v 0 7 -0
v 0 8 -0
v 0 9 -0
v 1 5 -0
v 1 6 -0
v 1 7 -0
v 2 4 -0
v 2 5 -0
v 2 6 -0
v 2 8 -0
v 3 0 -0
v 3 1 -0
v 3 2 -0
v 3 5 -0
v 3 6 -0
v 3 9 -0
v 3 10 -0
v 3 11 -0
v 3 12 -0
v 4 2 -0
v 4 3 -0
v 4 6 -0
v 4 9 -0
v 4 10 -0
v 5 1 -0
v 5 3 -0
v 5 9 -0
v 5 11 -0
v 6 3 -0
v 6 9 -0
v -3 0 1
v 3 0 1
v -3 0 -0
v 3 0 -0
v -5 1 1
v -3 1 1
v 3 1 1
v 5 1 1
v -5 1 -0
v -3 1 -0
v 3 1 -0
v 5 1 -0
v -6 3 1
v -5 3 1
v 5 3 1
v 6 3 1
v -6 3 -0
v -5 3 -0
v 5 3 -0
v 6 3 -0
v -6 9 1
v -5 9 1
v 5 9 1
v 6 9 1
v -6 9 -0
v -5 9 -0
v 5 9 -0
v 6 9 -0
v -5 11 1
v -3 11 1
v 3 11 1
v 5 11 1
v -5 11 -0
v -3 11 -0
v 3 11 -0
v 5 11 -0
v -3 12 1
v 3 12 1
v -3 12 -0
v 3 12 -0

# faces
f 3/4/1 2/4/1 1/4/1
f 4/4/1 2/4/1 3/4/1
f 7/4/1 6/4/1 5/4/1
f 8/4/1 6/4/1 7/4/1
f 11/4/1 10/4/1 9/4/1
f 12/4/1 10/4/1 11/4/1
f 15/4/1 14/4/1 13/4/1
f 16/4/1 14/4/1 15/4/1
f 19/4/1 18/4/1 17/4/1
f 20/4/1 18/4/1 19/4/1
f 21/4/2 22/4/2 23/4/2
f 23/4/2 22/4/2 24/4/2
f 25/4/2 26/4/2 27/4/2
f 27/4/2 26/4/2 28/4/2
f 29/4/2 30/4/2 31/4/2
f 31/4/2 30/4/2 32/4/2
f 33/4/2 34/4/2 35/4/2
f 35/4/2 34/4/2 36/4/2
f 37/4/2 38/4/2 39/4/2
f 39/4/2 38/4/2 40/4/2
f 44/4/3 42/4/3 41/4/3
f 45/4/3 42/4/3 44/4/3
f 47/4/3 44/4/3 43/4/3
f 48/5/3 45/5/3 44/5/3
f 48/4/3 44/4/3 47/4/3
f 49/4/3 46/4/3 45/4/3
f 49/5/3 45/5/3 48/5/3
f 50/4/3 46/4/3 49/4/3
f 52/4/3 47/4/3 43/4/3
f 53/5/3 48/5/3 47/5/3
f 53/5/3 49/5/3 48/5/3
f 53/4/3 47/4/3 52/4/3
f 53/5/3 50/5/3 49/5/3
f 54/5/3 50/5/3 53/5/3
f 55/5/3 50/5/3 54/5/3
f 56/4/3 46/4/3 50/4/3
f 56/5/3 50/5/3 55/5/3
f 57/4/3 46/4/3 56/4/3
f 59/5/3 53/5/3 52/5/3
f 59/4/3 54/4/3 53/4/3
f 60/3/3 55/3/3 54/3/3
f 60/4/3 54/4/3 59/4/3
f 61/5/3 57/5/3 56/5/3
f 61/3/3 55/3/3 60/3/3
f 61/5/3 56/5/3 55/5/3
f 62/5/3 57/5/3 61/5/3
f 63/5/3 57/5/3 62/5/3
f 64/4/3 61/4/3 60/4/3
f 64/2/3 62/2/3 61/2/3
f 65/3/3 63/3/3 62/3/3
f 65/2/3 62/2/3 64/2/3
f 66/5/3 57/5/3 63/5/3
f 66/3/3 63/3/3 65/3/3
f 67/5/3 57/5/3 66/5/3
f 68/5/3 57/5/3 67/5/3
f 69/5/3 60/5/3 59/5/3
f 69/4/3 64/4/3 60/4/3
f 70/3/3 65/3/3 64/3/3
f 70/4/3 64/4/3 69/4/3
f 70/3/3 66/3/3 65/3/3
f 70/3/3 67/3/3 66/3/3
f 71/3/3 67/3/3 70/3/3
f 72/3/3 67/3/3 71/3/3
f 73/2/3 68/2/3 67/2/3
f 73/3/3 67/3/3 72/3/3
f 74/5/3 57/5/3 68/5/3
f 74/2/3 68/2/3 73/2/3
f 75/5/3 57/5/3 74/5/3
f 76/3/3 72/3/3 71/3/3
f 76/4/3 71/4/3 70/4/3
f 77/2/3 73/2/3 72/2/3
f 77/3/3 72/3/3 76/3/3
f 78/1/3 74/1/3 73/1/3
f 78/2/3 73/2/3 77/2/3
f 79/4/3 76/4/3 70/4/3
f 79/5/3 70/5/3 69/5/3
f 80/2/3 77/2/3 76/2/3
f 80/4/3 76/4/3 79/4/3
f 81/1/3 78/1/3 77/1/3
f 81/2/3 77/2/3 80/2/3
f 82/1/3 74/1/3 78/1/3
f 82/1/3 78/1/3 81/1/3
f 82/2/3 75/2/3 74/2/3
f 83/4/3 52/4/3 51/4/3
f 84/5/3 59/5/3 52/5/3
f 84/4/3 52/4/3 83/4/3
f 84/5/3 69/5/3 59/5/3
f 84/5/3 80/5/3 79/5/3
f 84/5/3 79/5/3 69/5/3
f 85/5/3 80/5/3 84/5/3
f 86/4/3 81/4/3 80/4/3
f 86/5/3 80/5/3 85/5/3
f 87/2/3 82/2/3 81/2/3
f 87/4/3 81/4/3 86/4/3
f 88/2/3 75/2/3 82/2/3
f 88/2/3 82/2/3 87/2/3
f 88/5/3 57/5/3 75/5/3
f 89/5/3 57/5/3 88/5/3
f 90/4/3 58/4/3 57/4/3
f 90/5/3 57/5/3 89/5/3
f 91/4/3 58/4/3 90/4/3
f 92/5/3 87/5/3 86/5/3
f 92/4/3 85/4/3 84/4/3
f 92/5/3 86/5/3 85/5/3
f 93/5/3 87/5/3 92/5/3
f 94/4/3 88/4/3 87/4/3
f 94/5/3 87/5/3 93/5/3
f 95/5/3 89/5/3 88/5/3
f 95/4/3 88/4/3 94/4/3
f 96/4/3 90/4/3 89/4/3
f 96/5/3 89/5/3 95/5/3
f 97/4/3 93/4/3 92/4/3
f 97/4/3 92/4/3 84/4/3
f 98/5/3 94/5/3 93/5/3
f 98/4/3 93/4/3 97/4/3
f 98/5/3 95/5/3 94/5/3
f 99/4/3 96/4/3 95/4/3
f 99/5/3 95/5/3 98/5/3
f 100/4/3 90/4/3 96/4/3
f 100/4/3 96/4/3 99/4/3
f 101/4/3 99/4/3 98/4/3
f 102/4/3 99/4/3 101/4/3
f 103/4/4 104/4/4 106/4/4
f 106/4/4 104/4/4 107/4/4
f 105/4/4 106/4/4 109/4/4
f 106/5/4 107/5/4 110/5/4
f 109/4/4 106/4/4 110/4/4
f 107/4/4 108/4/4 111/4/4
f 110/5/4 107/5/4 111/5/4
f 111/4/4 108/4/4 112/4/4
f 105/4/4 109/4/4 114/4/4
f 109/5/4 110/5/4 115/5/4
f 110/5/4 111/5/4 115/5/4
f 114/4/4 109/4/4 115/4/4
f 111/5/4 112/5/4 115/5/4
f 115/5/4 112/5/4 116/5/4
f 116/5/4 112/5/4 117/5/4
f 112/4/4 108/4/4 118/4/4
f 117/5/4 112/5/4 118/5/4
f 118/4/4 108/4/4 119/4/4
f 114/5/4 115/5/4 121/5/4
f 115/4/4 116/4/4 121/4/4
f 116/3/4 117/3/4 122/3/4
f 121/4/4 116/4/4 122/4/4
f 118/5/4 119/5/4 123/5/4
f 122/3/4 117/3/4 123/3/4
f 117/5/4 118/5/4 123/5/4
f 123/5/4 119/5/4 124/5/4
f 124/5/4 119/5/4 125/5/4
f 122/4/4 123/4/4 126/4/4
f 123/2/4 124/2/4 126/2/4
f 124/3/4 125/3/4 127/3/4
f 126/2/4 124/2/4 127/2/4
f 125/5/4 119/5/4 128/5/4
f 127/3/4 125/3/4 128/3/4
f 128/5/4 119/5/4 129/5/4
f 129/5/4 119/5/4 130/5/4
f 121/5/4 122/5/4 131/5/4
f 122/4/4 126/4/4 131/4/4
f 126/3/4 127/3/4 132/3/4
f 131/4/4 126/4/4 132/4/4
f 127/3/4 128/3/4 132/3/4
f 128/3/4 129/3/4 132/3/4
f 132/3/4 129/3/4 133/3/4
f 133/3/4 129/3/4 134/3/4
f 129/2/4 130/2/4 135/2/4
f 134/3/4 129/3/4 135/3/4
f 130/5/4 119/5/4 136/5/4
f 135/2/4 130/2/4 136/2/4
f 136/5/4 119/5/4 137/5/4
f 133/3/4 134/3/4 138/3/4
f 132/4/4 133/4/4 138/4/4
f 134/2/4 135/2/4 139/2/4
f 138/3/4 134/3/4 139/3/4
f 135/1/4 136/1/4 140/1/4
f 139/2/4 135/2/4 140/2/4
f 132/4/4 138/4/4 141/4/4
f 131/5/4 132/5/4 141/5/4
f 138/2/4 139/2/4 142/2/4
f 141/4/4 138/4/4 142/4/4
f 139/1/4 140/1/4 143/1/4
f 142/2/4 139/2/4 143/2/4
f 140/1/4 136/1/4 144/1/4
f 143/1/4 140/1/4 144/1/4
f 136/2/4 137/2/4 144/2/4
f 113/4/4 114/4/4 145/4/4
f 114/5/4 121/5/4 146/5/4
f 145/4/4 114/4/4 146/4/4
f 121/5/4 131/5/4 146/5/4
f 141/5/4 142/5/4 146/5/4
f 131/5/4 141/5/4 146/5/4
f 146/5/4 142/5/4 147/5/4
f 142/4/4 143/4/4 148/4/4
f 147/5/4 142/5/4 148/5/4
f 143/2/4 144/2/4 149/2/4
f 148/4/4 143/4/4 149/4/4
f 144/2/4 137/2/4 150/2/4
f 149/2/4 144/2/4 150/2/4
f 137/5/4 119/5/4 150/5/4
f 150/5/4 119/5/4 151/5/4
f 119/4/4 120/4/4 152/4/4
f 151/5/4 119/5/4 152/5/4
f 152/4/4 120/4/4 153/4/4
f 148/5/4 149/5/4 154/5/4
f 146/4/4 147/4/4 154/4/4
f 147/5/4 148/5/4 154/5/4
f 154/5/4 149/5/4 155/5/4
f 149/4/4 150/4/4 156/4/4
f 155/5/4 149/5/4 156/5/4
f 150/5/4 151/5/4 157/5/4
f 156/4/4 150/4/4 157/4/4
f 151/4/4 152/4/4 158/4/4
f 157/5/4 151/5/4 158/5/4
f 154/4/4 155/4/4 159/4/4
f 146/4/4 154/4/4 159/4/4
f 155/5/4 156/5/4 160/5/4
f 159/4/4 155/4/4 160/4/4
f 156/5/4 157/5/4 160/5/4
f 157/4/4 158/4/4 161/4/4
f 160/5/4 157/5/4 161/5/4
f 158/4/4 152/4/4 162/4/4
f 161/4/4 158/4/4 162/4/4
f 160/4/4 161/4/4 163/4/4
f 163/4/4 161/4/4 164/4/4
f 167/4/5 166/4/5 165/4/5
f 168/4/5 166/4/5 167/4/5
f 173/4/5 170/4/5 169/4/5
f 174/4/5 170/4/5 173/4/5
f 175/4/5 172/4/5 171/4/5
f 176/4/5 172/4/5 175/4/5
f 181/4/5 178/4/5 177/4/5
f 182/4/5 178/4/5 181/4/5
f 183/4/5 180/4/5 179/4/5
f 184/4/5 180/4/5 183/4/5
f 185/4/6 186/4/6 189/4/6
f 189/4/6 186/4/6 190/4/6
f 187/4/6 188/4/6 191/4/6
f 191/4/6 188/4/6 192/4/6
f 193/4/6 194/4/6 197/4/6
f 197/4/6 194/4/6 198/4/6
f 195/4/6 196/4/6 199/4/6
f 199/4/6 196/4/6 200/4/6
f 201/4/6 202/4/6 203/4/6
f 203/4/6 202/4/6 204/4/6
