# MagicaVoxel @ Ephtracy

# group
g powerupthree

# material
mtllib powerupthree.mtl
usemtl palette

# normals
vn -1 0 0
vn 1 0 0
vn 0 0 1
vn 0 0 -1
vn 0 -1 0
vn 0 1 0

# texcoords
vt 0.966797 0.5
vt 0.990234 0.5
vt 0.994141 0.5

# verts
v -6 3 1
v -6 3 -0
v -6 9 1
v -6 9 -0
v -5 1 1
v -5 1 -0
v -5 3 1
v -5 3 -0
v -5 9 1
v -5 9 -0
v -5 11 1
v -5 11 -0
v -3 0 1
v -3 0 -0
v -3 1 1
v -3 1 -0
v -3 11 1
v -3 11 -0
v -3 12 1
v -3 12 -0
v 3 0 1
v 3 0 -0
v 3 1 1
v 3 1 -0
v 3 11 1
v 3 11 -0
v 3 12 1
v 3 12 -0
v 5 1 1
v 5 1 -0
v 5 3 1
v 5 3 -0
v 5 9 1
v 5 9 -0
v 5 11 1
v 5 11 -0
v 6 3 1
v 6 3 -0
v 6 9 1
v 6 9 -0
v -6 3 1
v -6 9 1
v -5 1 1
v -5 3 1
v -5 9 1
v -5 11 1
v -4 2 1
v -4 3 1
v -4 4 1
v -4 5 1
v -4 9 1
v -4 10 1
v -3 0 1
v -3 1 1
v -3 2 1
v -3 10 1
v -3 11 1
v -3 12 1
v -2 2 1
v -2 4 1
v -2 6 1
v -2 7 1
v -1 2 1
v -1 5 1
v 0 2 1
v 0 4 1
v 0 5 1
v 0 6 1
v 0 8 1
v 0 9 1
v 1 4 1
v 1 7 1
v 2 4 1
v 2 6 1
v 2 7 1
v 2 8 1
v 2 10 1
v 2 11 1
v 2 12 1
v 3 0 1
v 3 1 1
v 3 2 1
v 3 6 1
v 3 9 1
v 3 11 1
v 3 12 1
v 4 2 1
v 4 3 1
v 4 6 1
v 4 9 1
v 4 10 1
v 5 1 1
v 5 3 1
v 5 9 1
v 5 11 1
v 6 3 1
v 6 9 1
v -6 3 -0
v -6 9 -0
v -5 1 -0
v -5 3 -0
v -5 9 -0
v -5 11 -0
v -4 2 -0
v -4 3 -0
v -4 4 -0
v -4 5 -0
v -4 9 -0
v -4 10 -0
v -3 0 -0
v -3 1 -0
v -3 2 -0
v -3 10 -0
v -3 11 -0
v -3 12 -0
v -2 2 -0
v -2 4 -0
v -2 6 -0
v -2 7 -0
v -1 2 -0
v -1 5 -0
v 0 2 -0
v 0 4 -0
v 0 5 -0
v 0 6 -0
v 0 8 -0
v 0 9 -0
v 1 4 -0
v 1 7 -0
v 2 4 -0
v 2 6 -0
v 2 7 -0
v 2 8 -0
v 2 10 -0
v 2 11 -0
v 2 12 -0
v 3 0 -0
v 3 1 -0
v 3 2 -0
v 3 6 -0
v 3 9 -0
v 3 11 -0
v 3 12 -0
v 4 2 -0
v 4 3 -0
v 4 6 -0
v 4 9 -0
v 4 10 -0
v 5 1 -0
v 5 3 -0
v 5 9 -0
v 5 11 -0
v 6 3 -0
v 6 9 -0
v -3 0 1
v 3 0 1
v -3 0 -0
v 3 0 -0
v -5 1 1
v -3 1 1
v 3 1 1
v 5 1 1
v -5 1 -0
v -3 1 -0
v 3 1 -0
v 5 1 -0
v -6 3 1
v -5 3 1
v 5 3 1
v 6 3 1
v -6 3 -0
v -5 3 -0
v 5 3 -0
v 6 3 -0
v -6 9 1
v -5 9 1
v 5 9 1
v 6 9 1
v -6 9 -0
v -5 9 -0
v 5 9 -0
v 6 9 -0
v -5 11 1
v -3 11 1
v 3 11 1
v 5 11 1
v -5 11 -0
v -3 11 -0
v 3 11 -0
v 5 11 -0
v -3 12 1
v 2 12 1
v 3 12 1
v -3 12 -0
v 2 12 -0
v 3 12 -0

# faces
f 3/2/1 2/2/1 1/2/1
f 4/2/1 2/2/1 3/2/1
f 7/2/1 6/2/1 5/2/1
f 8/2/1 6/2/1 7/2/1
f 11/2/1 10/2/1 9/2/1
f 12/2/1 10/2/1 11/2/1
f 15/2/1 14/2/1 13/2/1
f 16/2/1 14/2/1 15/2/1
f 19/2/1 18/2/1 17/2/1
f 20/2/1 18/2/1 19/2/1
f 21/2/2 22/2/2 23/2/2
f 23/2/2 22/2/2 24/2/2
f 25/3/2 26/3/2 27/3/2
f 27/3/2 26/3/2 28/3/2
f 29/2/2 30/2/2 31/2/2
f 31/2/2 30/2/2 32/2/2
f 33/2/2 34/2/2 35/2/2
f 35/2/2 34/2/2 36/2/2
f 37/2/2 38/2/2 39/2/2
f 39/2/2 38/2/2 40/2/2
f 44/2/3 42/2/3 41/2/3
f 45/2/3 42/2/3 44/2/3
f 47/2/3 44/2/3 43/2/3
f 48/3/3 45/3/3 44/3/3
f 48/2/3 44/2/3 47/2/3
f 49/3/3 45/3/3 48/3/3
f 50/3/3 45/3/3 49/3/3
f 51/2/3 46/2/3 45/2/3
f 51/3/3 45/3/3 50/3/3
f 52/2/3 46/2/3 51/2/3
f 54/2/3 47/2/3 43/2/3
f 55/3/3 48/3/3 47/3/3
f 55/3/3 49/3/3 48/3/3
f 55/2/3 47/2/3 54/2/3
f 56/2/3 46/2/3 52/2/3
f 56/3/3 51/3/3 50/3/3
f 56/3/3 52/3/3 51/3/3
f 57/2/3 46/2/3 56/2/3
f 59/3/3 49/3/3 55/3/3
f 59/3/3 55/3/3 54/3/3
f 60/1/3 50/1/3 49/1/3
f 60/3/3 49/3/3 59/3/3
f 61/3/3 57/3/3 56/3/3
f 61/3/3 56/3/3 50/3/3
f 62/3/3 57/3/3 61/3/3
f 63/3/3 59/3/3 54/3/3
f 63/1/3 60/1/3 59/1/3
f 64/1/3 50/1/3 60/1/3
f 64/1/3 60/1/3 63/1/3
f 64/3/3 61/3/3 50/3/3
f 65/3/3 63/3/3 54/3/3
f 65/2/3 64/2/3 63/2/3
f 66/2/3 64/2/3 65/2/3
f 67/3/3 61/3/3 64/3/3
f 67/2/3 64/2/3 66/2/3
f 68/1/3 62/1/3 61/1/3
f 68/3/3 61/3/3 67/3/3
f 69/3/3 57/3/3 62/3/3
f 70/3/3 57/3/3 69/3/3
f 71/3/3 66/3/3 65/3/3
f 71/1/3 67/1/3 66/1/3
f 71/1/3 68/1/3 67/1/3
f 72/1/3 62/1/3 68/1/3
f 72/1/3 68/1/3 71/1/3
f 72/3/3 69/3/3 62/3/3
f 73/3/3 71/3/3 65/3/3
f 73/2/3 72/2/3 71/2/3
f 74/2/3 72/2/3 73/2/3
f 75/3/3 69/3/3 72/3/3
f 75/2/3 72/2/3 74/2/3
f 76/1/3 70/1/3 69/1/3
f 76/3/3 69/3/3 75/3/3
f 77/3/3 57/3/3 70/3/3
f 78/2/3 58/2/3 57/2/3
f 78/3/3 57/3/3 77/3/3
f 79/2/3 58/2/3 78/2/3
f 80/2/3 54/2/3 53/2/3
f 81/3/3 74/3/3 73/3/3
f 81/2/3 54/2/3 80/2/3
f 81/3/3 65/3/3 54/3/3
f 81/3/3 73/3/3 65/3/3
f 82/3/3 74/3/3 81/3/3
f 83/1/3 75/1/3 74/1/3
f 83/3/3 74/3/3 82/3/3
f 83/1/3 76/1/3 75/1/3
f 84/3/3 77/3/3 70/3/3
f 84/1/3 76/1/3 83/1/3
f 84/1/3 70/1/3 76/1/3
f 85/3/3 79/3/3 78/3/3
f 85/2/3 78/2/3 77/2/3
f 86/3/3 79/3/3 85/3/3
f 87/3/3 83/3/3 82/3/3
f 87/2/3 82/2/3 81/2/3
f 88/3/3 83/3/3 87/3/3
f 89/2/3 84/2/3 83/2/3
f 89/3/3 83/3/3 88/3/3
f 90/3/3 77/3/3 84/3/3
f 90/2/3 84/2/3 89/2/3
f 91/2/3 85/2/3 77/2/3
f 91/3/3 77/3/3 90/3/3
f 92/2/3 88/2/3 87/2/3
f 92/2/3 87/2/3 81/2/3
f 93/3/3 90/3/3 89/3/3
f 93/2/3 88/2/3 92/2/3
f 93/3/3 89/3/3 88/3/3
f 94/2/3 91/2/3 90/2/3
f 94/3/3 90/3/3 93/3/3
f 95/2/3 85/2/3 91/2/3
f 95/2/3 91/2/3 94/2/3
f 96/2/3 94/2/3 93/2/3
f 97/2/3 94/2/3 96/2/3
f 98/2/4 99/2/4 101/2/4
f 101/2/4 99/2/4 102/2/4
f 100/2/4 101/2/4 104/2/4
f 101/3/4 102/3/4 105/3/4
f 104/2/4 101/2/4 105/2/4
f 105/3/4 102/3/4 106/3/4
f 106/3/4 102/3/4 107/3/4
f 102/2/4 103/2/4 108/2/4
f 107/3/4 102/3/4 108/3/4
f 108/2/4 103/2/4 109/2/4
f 100/2/4 104/2/4 111/2/4
f 104/3/4 105/3/4 112/3/4
f 105/3/4 106/3/4 112/3/4
f 111/2/4 104/2/4 112/2/4
f 109/2/4 103/2/4 113/2/4
f 107/3/4 108/3/4 113/3/4
f 108/3/4 109/3/4 113/3/4
f 113/2/4 103/2/4 114/2/4
f 112/3/4 106/3/4 116/3/4
f 111/3/4 112/3/4 116/3/4
f 106/1/4 107/1/4 117/1/4
f 116/3/4 106/3/4 117/3/4
f 113/3/4 114/3/4 118/3/4
f 107/3/4 113/3/4 118/3/4
f 118/3/4 114/3/4 119/3/4
f 111/3/4 116/3/4 120/3/4
f 116/1/4 117/1/4 120/1/4
f 117/1/4 107/1/4 121/1/4
f 120/1/4 117/1/4 121/1/4
f 107/3/4 118/3/4 121/3/4
f 111/3/4 120/3/4 122/3/4
f 120/2/4 121/2/4 122/2/4
f 122/2/4 121/2/4 123/2/4
f 121/3/4 118/3/4 124/3/4
f 123/2/4 121/2/4 124/2/4
f 118/1/4 119/1/4 125/1/4
f 124/3/4 118/3/4 125/3/4
f 119/3/4 114/3/4 126/3/4
f 126/3/4 114/3/4 127/3/4
f 122/3/4 123/3/4 128/3/4
f 123/1/4 124/1/4 128/1/4
f 124/1/4 125/1/4 128/1/4
f 125/1/4 119/1/4 129/1/4
f 128/1/4 125/1/4 129/1/4
f 119/3/4 126/3/4 129/3/4
f 122/3/4 128/3/4 130/3/4
f 128/2/4 129/2/4 130/2/4
f 130/2/4 129/2/4 131/2/4
f 129/3/4 126/3/4 132/3/4
f 131/2/4 129/2/4 132/2/4
f 126/1/4 127/1/4 133/1/4
f 132/3/4 126/3/4 133/3/4
f 127/3/4 114/3/4 134/3/4
f 114/2/4 115/2/4 135/2/4
f 134/3/4 114/3/4 135/3/4
f 135/2/4 115/2/4 136/2/4
f 110/2/4 111/2/4 137/2/4
f 130/3/4 131/3/4 138/3/4
f 137/2/4 111/2/4 138/2/4
f 111/3/4 122/3/4 138/3/4
f 122/3/4 130/3/4 138/3/4
f 138/3/4 131/3/4 139/3/4
f 131/1/4 132/1/4 140/1/4
f 139/3/4 131/3/4 140/3/4
f 132/1/4 133/1/4 140/1/4
f 127/3/4 134/3/4 141/3/4
f 140/1/4 133/1/4 141/1/4
f 133/1/4 127/1/4 141/1/4
f 135/3/4 136/3/4 142/3/4
f 134/2/4 135/2/4 142/2/4
f 142/3/4 136/3/4 143/3/4
f 139/3/4 140/3/4 144/3/4
f 138/2/4 139/2/4 144/2/4
f 144/3/4 140/3/4 145/3/4
f 140/2/4 141/2/4 146/2/4
f 145/3/4 140/3/4 146/3/4
f 141/3/4 134/3/4 147/3/4
f 146/2/4 141/2/4 147/2/4
f 134/2/4 142/2/4 148/2/4
f 147/3/4 134/3/4 148/3/4
f 144/2/4 145/2/4 149/2/4
f 138/2/4 144/2/4 149/2/4
f 146/3/4 147/3/4 150/3/4
f 149/2/4 145/2/4 150/2/4
f 145/3/4 146/3/4 150/3/4
f 147/2/4 148/2/4 151/2/4
f 150/3/4 147/3/4 151/3/4
f 148/2/4 142/2/4 152/2/4
f 151/2/4 148/2/4 152/2/4
f 150/2/4 151/2/4 153/2/4
f 153/2/4 151/2/4 154/2/4
f 157/2/5 156/2/5 155/2/5
f 158/2/5 156/2/5 157/2/5
f 163/2/5 160/2/5 159/2/5
f 164/2/5 160/2/5 163/2/5
f 165/2/5 162/2/5 161/2/5
f 166/2/5 162/2/5 165/2/5
f 171/2/5 168/2/5 167/2/5
f 172/2/5 168/2/5 171/2/5
f 173/2/5 170/2/5 169/2/5
f 174/2/5 170/2/5 173/2/5
f 175/2/6 176/2/6 179/2/6
f 179/2/6 176/2/6 180/2/6
f 177/2/6 178/2/6 181/2/6
f 181/2/6 178/2/6 182/2/6
f 183/2/6 184/2/6 187/2/6
f 187/2/6 184/2/6 188/2/6
f 185/2/6 186/2/6 189/2/6
f 189/2/6 186/2/6 190/2/6
f 191/2/6 192/2/6 194/2/6
f 192/3/6 193/3/6 195/3/6
f 194/2/6 192/2/6 195/2/6
f 195/3/6 193/3/6 196/3/6
