# MagicaVoxel @ Ephtracy

# group
g puppetneonHead

# material
mtllib puppetneonHead.mtl
usemtl palette

# normals
vn -1 0 0
vn 1 0 0
vn 0 0 1
vn 0 0 -1
vn 0 -1 0
vn 0 1 0

# texcoords
vt 0.927734 0.5
vt 0.931641 0.5
vt 0.935547 0.5
vt 0.962891 0.5
vt 0.966797 0.5
vt 0.990234 0.5
vt 0.994141 0.5

# verts
v -2 15 2
v -2 15 1
v -2 15 -0
v -2 15 -1
v -2 16 2
v -2 16 1
v -2 16 -0
v -2 16 -1
v -2 16 -2
v -2 17 2
v -2 17 1
v -2 17 -1
v -2 17 -2
v -2 18 2
v -2 18 1
v -2 19 2
v -2 19 -2
v -1 15 -1
v -1 15 -2
v -1 16 -1
v -1 16 -2
v -1 16 -3
v -1 17 -2
v -1 17 -3
v -1 19 -2
v -1 19 -3
v 1 15 -1
v 1 15 -2
v 1 16 -1
v 1 16 -2
v 1 16 -3
v 1 17 -2
v 1 17 -3
v 1 19 -2
v 1 19 -3
v 2 15 2
v 2 15 1
v 2 15 -0
v 2 15 -1
v 2 16 2
v 2 16 1
v 2 16 -0
v 2 16 -1
v 2 16 -2
v 2 17 2
v 2 17 1
v 2 17 -1
v 2 17 -2
v 2 18 2
v 2 18 1
v 2 19 2
v 2 19 -2
v -2 15 2
v -2 16 2
v -2 17 2
v -2 18 2
v -2 19 2
v -1 15 2
v -1 16 2
v -1 17 2
v -1 18 2
v -1 19 2
v 1 15 2
v 1 16 2
v 1 17 2
v 1 18 2
v 1 19 2
v 2 15 2
v 2 16 2
v 2 17 2
v 2 18 2
v 2 19 2
v -2 15 -1
v -2 16 -1
v -1 15 -1
v -1 16 -1
v 1 15 -1
v 1 16 -1
v 2 15 -1
v 2 16 -1
v -2 16 -2
v -2 17 -2
v -2 19 -2
v -1 15 -2
v -1 16 -2
v -1 17 -2
v -1 19 -2
v 1 15 -2
v 1 16 -2
v 1 17 -2
v 1 19 -2
v 2 16 -2
v 2 17 -2
v 2 19 -2
v -1 16 -3
v -1 17 -3
v -1 19 -3
v 1 16 -3
v 1 17 -3
v 1 19 -3
v -2 15 2
v -1 15 2
v 1 15 2
v 2 15 2
v -2 15 1
v -1 15 1
v 1 15 1
v 2 15 1
v -2 15 -0
v -1 15 -0
v 1 15 -0
v 2 15 -0
v -2 15 -1
v -1 15 -1
v 1 15 -1
v 2 15 -1
v -1 15 -2
v 1 15 -2
v -2 16 -1
v -1 16 -1
v 1 16 -1
v 2 16 -1
v -2 16 -2
v -1 16 -2
v 1 16 -2
v 2 16 -2
v -1 16 -3
v 1 16 -3
v -2 19 2
v -1 19 2
v 1 19 2
v 2 19 2
v -2 19 -2
v -1 19 -2
v 1 19 -2
v 2 19 -2
v -1 19 -3
v 1 19 -3

# faces
f 5/2/1 2/2/1 1/2/1
f 6/3/1 3/3/1 2/3/1
f 6/2/1 2/2/1 5/2/1
f 7/2/1 4/2/1 3/2/1
f 7/3/1 3/3/1 6/3/1
f 8/2/1 4/2/1 7/2/1
f 10/6/1 6/6/1 5/6/1
f 10/6/1 7/6/1 6/6/1
f 10/6/1 8/6/1 7/6/1
f 11/6/1 8/6/1 10/6/1
f 12/3/1 9/3/1 8/3/1
f 12/6/1 8/6/1 11/6/1
f 13/3/1 9/3/1 12/3/1
f 14/5/1 11/5/1 10/5/1
f 15/6/1 12/6/1 11/6/1
f 15/5/1 11/5/1 14/5/1
f 15/6/1 13/6/1 12/6/1
f 16/6/1 15/6/1 14/6/1
f 17/6/1 13/6/1 15/6/1
f 17/6/1 15/6/1 16/6/1
f 20/1/1 19/1/1 18/1/1
f 21/1/1 19/1/1 20/1/1
f 23/2/1 22/2/1 21/2/1
f 24/2/1 22/2/1 23/2/1
f 25/6/1 24/6/1 23/6/1
f 26/6/1 24/6/1 25/6/1
f 27/1/2 28/1/2 29/1/2
f 29/1/2 28/1/2 30/1/2
f 30/2/2 31/2/2 32/2/2
f 32/2/2 31/2/2 33/2/2
f 32/6/2 33/6/2 34/6/2
f 34/6/2 33/6/2 35/6/2
f 36/2/2 37/2/2 40/2/2
f 37/3/2 38/3/2 41/3/2
f 40/2/2 37/2/2 41/2/2
f 38/2/2 39/2/2 42/2/2
f 41/3/2 38/3/2 42/3/2
f 42/2/2 39/2/2 43/2/2
f 40/6/2 41/6/2 45/6/2
f 41/6/2 42/6/2 45/6/2
f 42/6/2 43/6/2 45/6/2
f 45/6/2 43/6/2 46/6/2
f 43/3/2 44/3/2 47/3/2
f 46/6/2 43/6/2 47/6/2
f 47/3/2 44/3/2 48/3/2
f 45/5/2 46/5/2 49/5/2
f 46/6/2 47/6/2 50/6/2
f 49/5/2 46/5/2 50/5/2
f 47/6/2 48/6/2 50/6/2
f 49/6/2 50/6/2 51/6/2
f 50/6/2 48/6/2 52/6/2
f 51/6/2 50/6/2 52/6/2
f 58/2/3 54/2/3 53/2/3
f 59/6/3 55/6/3 54/6/3
f 59/2/3 54/2/3 58/2/3
f 60/5/3 56/5/3 55/5/3
f 60/6/3 55/6/3 59/6/3
f 61/6/3 57/6/3 56/6/3
f 61/5/3 56/5/3 60/5/3
f 62/6/3 57/6/3 61/6/3
f 63/3/3 59/3/3 58/3/3
f 64/6/3 60/6/3 59/6/3
f 64/3/3 59/3/3 63/3/3
f 65/4/3 61/4/3 60/4/3
f 65/6/3 60/6/3 64/6/3
f 66/7/3 62/7/3 61/7/3
f 66/4/3 61/4/3 65/4/3
f 67/7/3 62/7/3 66/7/3
f 68/2/3 64/2/3 63/2/3
f 69/6/3 65/6/3 64/6/3
f 69/2/3 64/2/3 68/2/3
f 70/5/3 66/5/3 65/5/3
f 70/6/3 65/6/3 69/6/3
f 71/6/3 67/6/3 66/6/3
f 71/5/3 66/5/3 70/5/3
f 72/6/3 67/6/3 71/6/3
f 73/2/4 74/2/4 75/2/4
f 75/2/4 74/2/4 76/2/4
f 77/2/4 78/2/4 79/2/4
f 79/2/4 78/2/4 80/2/4
f 81/3/4 82/3/4 85/3/4
f 82/6/4 83/6/4 86/6/4
f 85/3/4 82/3/4 86/3/4
f 86/6/4 83/6/4 87/6/4
f 84/1/4 85/1/4 88/1/4
f 88/1/4 85/1/4 89/1/4
f 89/3/4 90/3/4 92/3/4
f 90/6/4 91/6/4 93/6/4
f 92/3/4 90/3/4 93/3/4
f 93/6/4 91/6/4 94/6/4
f 95/2/4 96/2/4 98/2/4
f 96/6/4 97/6/4 99/6/4
f 98/2/4 96/2/4 99/2/4
f 99/6/4 97/6/4 100/6/4
f 105/2/5 102/2/5 101/2/5
f 106/3/5 103/3/5 102/3/5
f 106/2/5 102/2/5 105/2/5
f 107/2/5 104/2/5 103/2/5
f 107/3/5 103/3/5 106/3/5
f 108/2/5 104/2/5 107/2/5
f 109/3/5 106/3/5 105/3/5
f 110/6/5 107/6/5 106/6/5
f 110/3/5 106/3/5 109/3/5
f 111/3/5 108/3/5 107/3/5
f 111/6/5 107/6/5 110/6/5
f 112/3/5 108/3/5 111/3/5
f 113/2/5 110/2/5 109/2/5
f 114/6/5 111/6/5 110/6/5
f 114/2/5 110/2/5 113/2/5
f 115/2/5 112/2/5 111/2/5
f 115/6/5 111/6/5 114/6/5
f 116/2/5 112/2/5 115/2/5
f 117/1/5 115/1/5 114/1/5
f 118/1/5 115/1/5 117/1/5
f 123/3/5 120/3/5 119/3/5
f 124/3/5 120/3/5 123/3/5
f 125/3/5 122/3/5 121/3/5
f 126/3/5 122/3/5 125/3/5
f 127/2/5 125/2/5 124/2/5
f 128/2/5 125/2/5 127/2/5
f 129/6/6 130/6/6 133/6/6
f 130/7/6 131/7/6 134/7/6
f 133/6/6 130/6/6 134/6/6
f 131/6/6 132/6/6 135/6/6
f 134/7/6 131/7/6 135/7/6
f 135/6/6 132/6/6 136/6/6
f 134/6/6 135/6/6 137/6/6
f 137/6/6 135/6/6 138/6/6
