# MagicaVoxel @ Ephtracy

# group
g puppetneonLegLeft

# material
mtllib puppetneonLegLeft.mtl
usemtl palette

# normals
vn -1 0 0
vn 1 0 0
vn 0 0 1
vn 0 0 -1
vn 0 -1 0
vn 0 1 0

# texcoords
vt 0.927734 0.5
vt 0.931641 0.5
vt 0.935547 0.5
vt 0.990234 0.5
vt 0.994141 0.5

# verts
v 1 0 3
v 1 0 2
v 1 0 -0
v 1 1 3
v 1 1 2
v 1 1 1
v 1 2 2
v 1 2 1
v 1 3 1
v 1 3 -0
v 1 4 1
v 1 4 -0
v 1 5 1
v 1 5 -0
v 1 6 1
v 1 6 -0
v 1 7 1
v 1 7 -0
v 2 1 -0
v 2 1 -1
v 2 3 -0
v 2 3 -1
v 2 4 -0
v 2 4 -1
v 2 5 -0
v 2 5 -1
v 2 6 -0
v 2 6 -1
v 2 7 -0
v 2 7 -1
v 2 0 3
v 2 0 2
v 2 0 1
v 2 0 -0
v 2 1 3
v 2 1 2
v 2 1 1
v 2 1 -0
v 2 2 2
v 2 2 1
v 2 4 1
v 2 4 -0
v 2 5 1
v 2 5 -0
v 3 0 2
v 3 0 1
v 3 1 2
v 3 1 1
v 3 1 -0
v 3 1 -1
v 3 3 -0
v 3 3 -1
v 3 4 1
v 3 4 -1
v 3 5 1
v 3 5 -1
v 3 6 1
v 3 6 -1
v 3 7 1
v 3 7 -1
v 1 0 3
v 1 1 3
v 2 0 3
v 2 1 3
v 1 1 2
v 1 2 2
v 2 0 2
v 2 1 2
v 2 2 2
v 3 0 2
v 3 1 2
v 1 2 1
v 1 3 1
v 1 4 1
v 1 5 1
v 1 6 1
v 1 7 1
v 2 1 1
v 2 2 1
v 2 3 1
v 2 4 1
v 2 5 1
v 2 6 1
v 2 7 1
v 3 1 1
v 3 4 1
v 3 5 1
v 3 6 1
v 3 7 1
v 2 0 1
v 2 1 1
v 3 0 1
v 3 1 1
v 1 0 -0
v 1 3 -0
v 1 4 -0
v 1 5 -0
v 1 6 -0
v 1 7 -0
v 2 0 -0
v 2 1 -0
v 2 3 -0
v 2 4 -0
v 2 5 -0
v 2 6 -0
v 2 7 -0
v 2 1 -1
v 2 3 -1
v 2 4 -1
v 2 5 -1
v 2 6 -1
v 2 7 -1
v 3 1 -1
v 3 3 -1
v 3 4 -1
v 3 5 -1
v 3 6 -1
v 3 7 -1
v 1 0 3
v 2 0 3
v 1 0 2
v 2 0 2
v 3 0 2
v 2 0 1
v 3 0 1
v 1 0 -0
v 2 0 -0
v 2 1 1
v 3 1 1
v 2 1 -0
v 3 1 -0
v 2 1 -1
v 3 1 -1
v 2 5 1
v 3 5 1
v 2 5 -0
v 2 5 -1
v 3 5 -1
v 1 1 3
v 2 1 3
v 1 1 2
v 2 1 2
v 3 1 2
v 2 1 1
v 3 1 1
v 1 2 2
v 2 2 2
v 1 2 1
v 2 2 1
v 2 4 1
v 3 4 1
v 2 4 -0
v 2 4 -1
v 3 4 -1
v 1 7 1
v 2 7 1
v 3 7 1
v 1 7 -0
v 2 7 -0
v 2 7 -1
v 3 7 -1

# faces
f 4/2/1 2/2/1 1/2/1
f 5/1/1 3/1/1 2/1/1
f 5/2/1 2/2/1 4/2/1
f 6/1/1 3/1/1 5/1/1
f 7/4/1 6/4/1 5/4/1
f 8/1/1 3/1/1 6/1/1
f 8/4/1 6/4/1 7/4/1
f 9/1/1 3/1/1 8/1/1
f 10/1/1 3/1/1 9/1/1
f 11/2/1 10/2/1 9/2/1
f 12/2/1 10/2/1 11/2/1
f 13/3/1 12/3/1 11/3/1
f 14/3/1 12/3/1 13/3/1
f 15/2/1 14/2/1 13/2/1
f 16/2/1 14/2/1 15/2/1
f 17/1/1 16/1/1 15/1/1
f 18/1/1 16/1/1 17/1/1
f 21/5/1 20/5/1 19/5/1
f 22/5/1 20/5/1 21/5/1
f 23/4/1 22/4/1 21/4/1
f 24/4/1 22/4/1 23/4/1
f 27/4/1 26/4/1 25/4/1
f 28/4/1 26/4/1 27/4/1
f 29/5/1 28/5/1 27/5/1
f 30/5/1 28/5/1 29/5/1
f 31/2/2 32/2/2 35/2/2
f 35/2/2 32/2/2 36/2/2
f 33/1/2 34/1/2 37/1/2
f 37/1/2 34/1/2 38/1/2
f 36/4/2 37/4/2 39/4/2
f 39/4/2 37/4/2 40/4/2
f 41/3/2 42/3/2 43/3/2
f 43/3/2 42/3/2 44/3/2
f 45/1/2 46/1/2 47/1/2
f 47/1/2 46/1/2 48/1/2
f 49/5/2 50/5/2 51/5/2
f 48/4/2 49/4/2 51/4/2
f 51/5/2 50/5/2 52/5/2
f 48/4/2 51/4/2 53/4/2
f 51/4/2 52/4/2 53/4/2
f 53/4/2 52/4/2 54/4/2
f 55/4/2 56/4/2 57/4/2
f 57/4/2 56/4/2 58/4/2
f 57/5/2 58/5/2 59/5/2
f 59/5/2 58/5/2 60/5/2
f 63/2/3 62/2/3 61/2/3
f 64/2/3 62/2/3 63/2/3
f 68/4/3 66/4/3 65/4/3
f 69/4/3 66/4/3 68/4/3
f 70/1/3 68/1/3 67/1/3
f 71/1/3 68/1/3 70/1/3
f 79/1/3 73/1/3 72/1/3
f 80/2/3 74/2/3 73/2/3
f 80/1/3 73/1/3 79/1/3
f 81/3/3 75/3/3 74/3/3
f 81/2/3 74/2/3 80/2/3
f 82/2/3 76/2/3 75/2/3
f 82/3/3 75/3/3 81/3/3
f 83/1/3 77/1/3 76/1/3
f 83/2/3 76/2/3 82/2/3
f 84/1/3 77/1/3 83/1/3
f 85/4/3 79/4/3 78/4/3
f 85/4/3 80/4/3 79/4/3
f 85/4/3 81/4/3 80/4/3
f 86/4/3 81/4/3 85/4/3
f 87/4/3 83/4/3 82/4/3
f 88/5/3 84/5/3 83/5/3
f 88/4/3 83/4/3 87/4/3
f 89/5/3 84/5/3 88/5/3
f 90/1/4 91/1/4 92/1/4
f 92/1/4 91/1/4 93/1/4
f 94/1/4 95/1/4 100/1/4
f 100/1/4 95/1/4 101/1/4
f 95/2/4 96/2/4 102/2/4
f 101/1/4 95/1/4 102/1/4
f 96/3/4 97/3/4 103/3/4
f 102/2/4 96/2/4 103/2/4
f 97/2/4 98/2/4 104/2/4
f 103/3/4 97/3/4 104/3/4
f 98/1/4 99/1/4 105/1/4
f 104/2/4 98/2/4 105/2/4
f 105/1/4 99/1/4 106/1/4
f 107/5/4 108/5/4 113/5/4
f 108/4/4 109/4/4 114/4/4
f 113/5/4 108/5/4 114/5/4
f 114/4/4 109/4/4 115/4/4
f 110/4/4 111/4/4 116/4/4
f 111/5/4 112/5/4 117/5/4
f 116/4/4 111/4/4 117/4/4
f 117/5/4 112/5/4 118/5/4
f 121/2/5 120/2/5 119/2/5
f 122/2/5 120/2/5 121/2/5
f 124/1/5 122/1/5 121/1/5
f 124/1/5 123/1/5 122/1/5
f 125/1/5 123/1/5 124/1/5
f 126/1/5 124/1/5 121/1/5
f 127/1/5 124/1/5 126/1/5
f 130/4/5 129/4/5 128/4/5
f 131/4/5 129/4/5 130/4/5
f 132/5/5 131/5/5 130/5/5
f 133/5/5 131/5/5 132/5/5
f 136/4/5 135/4/5 134/4/5
f 137/4/5 135/4/5 136/4/5
f 138/4/5 135/4/5 137/4/5
f 139/2/6 140/2/6 141/2/6
f 141/2/6 140/2/6 142/2/6
f 142/1/6 143/1/6 144/1/6
f 144/1/6 143/1/6 145/1/6
f 146/4/6 147/4/6 148/4/6
f 148/4/6 147/4/6 149/4/6
f 150/4/6 151/4/6 152/4/6
f 152/4/6 151/4/6 153/4/6
f 153/4/6 151/4/6 154/4/6
f 155/1/6 156/1/6 158/1/6
f 156/5/6 157/5/6 159/5/6
f 158/1/6 156/1/6 159/1/6
f 159/5/6 157/5/6 160/5/6
f 160/5/6 157/5/6 161/5/6
