# MagicaVoxel @ Ephtracy

# group
g johnnycape

# material
mtllib johnnycape.mtl
usemtl palette

# normals
vn -1 0 0
vn 1 0 0
vn 0 0 1
vn 0 0 -1
vn 0 -1 0
vn 0 1 0

# texcoords
vt 0.841797 0.5
vt 0.865234 0.5
vt 0.869141 0.5

# verts
v -2 7 -7
v -2 7 -8
v -2 8 -4
v -2 8 -6
v -2 8 -7
v -2 8 -8
v -2 9 -2
v -2 9 -3
v -2 9 -4
v -2 9 -6
v -2 9 -7
v -2 10 3
v -2 10 1
v -2 10 -0
v -2 10 -1
v -2 10 -2
v -2 10 -3
v -2 10 -4
v -2 11 3
v -2 11 1
v -2 11 -0
v -2 11 -1
v -2 11 -2
v -1 6 -7
v -1 6 -8
v -1 7 -4
v -1 7 -6
v -1 7 -7
v -1 7 -8
v -1 8 -2
v -1 8 -3
v -1 8 -4
v -1 8 -6
v -1 8 -7
v -1 9 -1
v -1 9 -2
v -1 9 -3
v -1 9 -4
v -1 10 -1
v -1 10 -2
v 0 9 3
v 0 9 2
v 0 10 3
v 0 10 2
v 1 7 -7
v 1 7 -8
v 1 8 -4
v 1 8 -6
v 1 8 -7
v 1 8 -8
v 1 9 -2
v 1 9 -3
v 1 9 -4
v 1 9 -6
v 1 9 -7
v 1 10 3
v 1 10 2
v 1 10 1
v 1 10 -0
v 1 10 -1
v 1 10 -2
v 1 10 -3
v 1 10 -4
v 1 11 3
v 1 11 2
v 1 11 1
v 1 11 -0
v 1 11 -1
v 1 11 -2
v -1 7 -7
v -1 7 -8
v -1 8 -4
v -1 8 -6
v -1 8 -7
v -1 8 -8
v -1 9 -2
v -1 9 -3
v -1 9 -4
v -1 9 -6
v -1 9 -7
v -1 10 2
v -1 10 1
v -1 10 -0
v -1 10 -1
v -1 10 -2
v -1 10 -3
v -1 10 -4
v -1 11 2
v -1 11 1
v -1 11 -0
v -1 11 -1
v -1 11 -2
v 0 10 3
v 0 10 2
v 0 11 3
v 0 11 2
v 1 6 -7
v 1 6 -8
v 1 7 -4
v 1 7 -6
v 1 7 -7
v 1 7 -8
v 1 8 -2
v 1 8 -3
v 1 8 -4
v 1 8 -6
v 1 8 -7
v 1 9 3
v 1 9 2
v 1 9 -1
v 1 9 -2
v 1 9 -3
v 1 9 -4
v 1 10 3
v 1 10 2
v 1 10 -1
v 1 10 -2
v 2 7 -7
v 2 7 -8
v 2 8 -4
v 2 8 -6
v 2 8 -7
v 2 8 -8
v 2 9 -2
v 2 9 -3
v 2 9 -4
v 2 9 -6
v 2 9 -7
v 2 10 3
v 2 10 2
v 2 10 1
v 2 10 -0
v 2 10 -1
v 2 10 -2
v 2 10 -3
v 2 10 -4
v 2 11 3
v 2 11 2
v 2 11 1
v 2 11 -0
v 2 11 -1
v 2 11 -2
v -2 10 3
v -2 11 3
v -1 10 3
v -1 11 3
v 0 9 3
v 0 10 3
v 0 11 3
v 1 9 3
v 1 10 3
v 1 11 3
v 2 10 3
v 2 11 3
v -1 10 -0
v -1 11 -0
v 1 10 -0
v 1 11 -0
v -1 9 -1
v -1 10 -1
v 1 9 -1
v 1 10 -1
v -2 9 -2
v -2 10 -2
v -1 8 -2
v -1 9 -2
v -1 10 -2
v 1 8 -2
v 1 9 -2
v 1 10 -2
v 2 9 -2
v 2 10 -2
v -2 8 -4
v -2 9 -4
v -1 7 -4
v -1 8 -4
v -1 9 -4
v 1 7 -4
v 1 8 -4
v 1 9 -4
v 2 8 -4
v 2 9 -4
v -2 7 -7
v -2 8 -7
v -1 6 -7
v -1 7 -7
v -1 8 -7
v 1 6 -7
v 1 7 -7
v 1 8 -7
v 2 7 -7
v 2 8 -7
v -1 10 2
v -1 11 2
v 0 9 2
v 0 10 2
v 0 11 2
v 1 9 2
v 1 10 2
v -1 10 -1
v -1 11 -1
v 1 10 -1
v 1 11 -1
v -2 10 -2
v -2 11 -2
v -1 9 -2
v -1 10 -2
v -1 11 -2
v 1 9 -2
v 1 10 -2
v 1 11 -2
v 2 10 -2
v 2 11 -2
v -2 9 -4
v -2 10 -4
v -1 8 -4
v -1 9 -4
v -1 10 -4
v 1 8 -4
v 1 9 -4
v 1 10 -4
v 2 9 -4
v 2 10 -4
v -2 8 -7
v -2 9 -7
v -1 7 -7
v -1 8 -7
v -1 9 -7
v 1 7 -7
v 1 8 -7
v 1 9 -7
v 2 8 -7
v 2 9 -7
v -2 7 -8
v -2 8 -8
v -1 6 -8
v -1 7 -8
v -1 8 -8
v 1 6 -8
v 1 7 -8
v 1 8 -8
v 2 7 -8
v 2 8 -8
v -1 6 -7
v 1 6 -7
v -1 6 -8
v 1 6 -8
v -1 7 -4
v 1 7 -4
v -1 7 -6
v 1 7 -6
v -2 7 -7
v -1 7 -7
v 1 7 -7
v 2 7 -7
v -2 7 -8
v -1 7 -8
v 1 7 -8
v 2 7 -8
v -1 8 -2
v 1 8 -2
v -1 8 -3
v 1 8 -3
v -2 8 -4
v -1 8 -4
v 1 8 -4
v 2 8 -4
v -2 8 -6
v -1 8 -6
v 1 8 -6
v 2 8 -6
v -2 8 -7
v -1 8 -7
v 1 8 -7
v 2 8 -7
v 0 9 3
v 1 9 3
v 0 9 2
v 1 9 2
v -1 9 -1
v 1 9 -1
v -2 9 -2
v -1 9 -2
v 1 9 -2
v 2 9 -2
v -2 9 -3
v -1 9 -3
v 1 9 -3
v 2 9 -3
v -2 9 -4
v -1 9 -4
v 1 9 -4
v 2 9 -4
v -2 10 3
v -1 10 3
v 0 10 3
v 1 10 3
v 2 10 3
v -1 10 2
v 0 10 2
v 1 10 2
v 2 10 2
v -2 10 1
v -1 10 1
v 1 10 1
v 2 10 1
v -2 10 -0
v -1 10 -0
v 1 10 -0
v 2 10 -0
v -2 10 -1
v -1 10 -1
v 1 10 -1
v 2 10 -1
v -2 10 -2
v -1 10 -2
v 1 10 -2
v 2 10 -2
v -1 7 -7
v 1 7 -7
v -1 7 -8
v 1 7 -8
v -1 8 -4
v 1 8 -4
v -1 8 -6
v 1 8 -6
v -2 8 -7
v -1 8 -7
v 1 8 -7
v 2 8 -7
v -2 8 -8
v -1 8 -8
v 1 8 -8
v 2 8 -8
v -1 9 -2
v 1 9 -2
v -1 9 -3
v 1 9 -3
v -2 9 -4
v -1 9 -4
v 1 9 -4
v 2 9 -4
v -2 9 -6
v -1 9 -6
v 1 9 -6
v 2 9 -6
v -2 9 -7
v -1 9 -7
v 1 9 -7
v 2 9 -7
v 0 10 3
v 1 10 3
v 0 10 2
v 1 10 2
v -1 10 -1
v 1 10 -1
v -2 10 -2
v -1 10 -2
v 1 10 -2
v 2 10 -2
v -2 10 -3
v -1 10 -3
v 1 10 -3
v 2 10 -3
v -2 10 -4
v -1 10 -4
v 1 10 -4
v 2 10 -4
v -2 11 3
v -1 11 3
v 0 11 3
v 1 11 3
v 2 11 3
v -1 11 2
v 0 11 2
v 1 11 2
v 2 11 2
v -2 11 1
v -1 11 1
v 1 11 1
v 2 11 1
v -2 11 -0
v -1 11 -0
v 1 11 -0
v 2 11 -0
v -2 11 -1
v -1 11 -1
v 1 11 -1
v 2 11 -1
v -2 11 -2
v -1 11 -2
v 1 11 -2
v 2 11 -2

# faces
f 5/1/1 2/1/1 1/1/1
f 6/1/1 2/1/1 5/1/1
f 9/3/1 4/3/1 3/3/1
f 10/1/1 5/1/1 4/1/1
f 10/3/1 4/3/1 9/3/1
f 11/1/1 5/1/1 10/1/1
f 16/3/1 8/3/1 7/3/1
f 17/1/1 9/1/1 8/1/1
f 17/3/1 8/3/1 16/3/1
f 18/1/1 9/1/1 17/1/1
f 19/3/1 13/3/1 12/3/1
f 20/2/1 14/2/1 13/2/1
f 20/3/1 13/3/1 19/3/1
f 21/3/1 15/3/1 14/3/1
f 21/2/1 14/2/1 20/2/1
f 22/1/1 16/1/1 15/1/1
f 22/3/1 15/3/1 21/3/1
f 23/1/1 16/1/1 22/1/1
f 28/3/1 25/3/1 24/3/1
f 29/3/1 25/3/1 28/3/1
f 32/2/1 27/2/1 26/2/1
f 33/3/1 28/3/1 27/3/1
f 33/2/1 27/2/1 32/2/1
f 34/3/1 28/3/1 33/3/1
f 36/2/1 31/2/1 30/2/1
f 37/3/1 32/3/1 31/3/1
f 37/2/1 31/2/1 36/2/1
f 38/3/1 32/3/1 37/3/1
f 39/3/1 36/3/1 35/3/1
f 40/3/1 36/3/1 39/3/1
f 43/1/1 42/1/1 41/1/1
f 44/1/1 42/1/1 43/1/1
f 49/1/1 46/1/1 45/1/1
f 50/1/1 46/1/1 49/1/1
f 53/3/1 48/3/1 47/3/1
f 54/1/1 49/1/1 48/1/1
f 54/3/1 48/3/1 53/3/1
f 55/1/1 49/1/1 54/1/1
f 61/3/1 52/3/1 51/3/1
f 62/1/1 53/1/1 52/1/1
f 62/3/1 52/3/1 61/3/1
f 63/1/1 53/1/1 62/1/1
f 64/1/1 57/1/1 56/1/1
f 65/3/1 58/3/1 57/3/1
f 65/1/1 57/1/1 64/1/1
f 66/2/1 59/2/1 58/2/1
f 66/3/1 58/3/1 65/3/1
f 67/2/1 59/2/1 66/2/1
f 68/1/1 61/1/1 60/1/1
f 69/1/1 61/1/1 68/1/1
f 70/1/2 71/1/2 74/1/2
f 74/1/2 71/1/2 75/1/2
f 72/3/2 73/3/2 78/3/2
f 73/1/2 74/1/2 79/1/2
f 78/3/2 73/3/2 79/3/2
f 79/1/2 74/1/2 80/1/2
f 76/3/2 77/3/2 85/3/2
f 77/1/2 78/1/2 86/1/2
f 85/3/2 77/3/2 86/3/2
f 86/1/2 78/1/2 87/1/2
f 81/3/2 82/3/2 88/3/2
f 82/2/2 83/2/2 89/2/2
f 88/3/2 82/3/2 89/3/2
f 89/2/2 83/2/2 90/2/2
f 84/1/2 85/1/2 91/1/2
f 91/1/2 85/1/2 92/1/2
f 93/1/2 94/1/2 95/1/2
f 95/1/2 94/1/2 96/1/2
f 97/3/2 98/3/2 101/3/2
f 101/3/2 98/3/2 102/3/2
f 99/2/2 100/2/2 105/2/2
f 100/3/2 101/3/2 106/3/2
f 105/2/2 100/2/2 106/2/2
f 106/3/2 101/3/2 107/3/2
f 103/2/2 104/2/2 111/2/2
f 104/3/2 105/3/2 112/3/2
f 111/2/2 104/2/2 112/2/2
f 112/3/2 105/3/2 113/3/2
f 108/1/2 109/1/2 114/1/2
f 114/1/2 109/1/2 115/1/2
f 110/3/2 111/3/2 116/3/2
f 116/3/2 111/3/2 117/3/2
f 118/1/2 119/1/2 122/1/2
f 122/1/2 119/1/2 123/1/2
f 120/3/2 121/3/2 126/3/2
f 121/1/2 122/1/2 127/1/2
f 126/3/2 121/3/2 127/3/2
f 127/1/2 122/1/2 128/1/2
f 124/3/2 125/3/2 134/3/2
f 125/1/2 126/1/2 135/1/2
f 134/3/2 125/3/2 135/3/2
f 135/1/2 126/1/2 136/1/2
f 129/1/2 130/1/2 137/1/2
f 130/3/2 131/3/2 138/3/2
f 137/1/2 130/1/2 138/1/2
f 131/2/2 132/2/2 139/2/2
f 138/3/2 131/3/2 139/3/2
f 132/3/2 133/3/2 140/3/2
f 139/2/2 132/2/2 140/2/2
f 133/1/2 134/1/2 141/1/2
f 140/3/2 133/3/2 141/3/2
f 141/1/2 134/1/2 142/1/2
f 145/3/3 144/3/3 143/3/3
f 146/3/3 144/3/3 145/3/3
f 148/1/3 146/1/3 145/1/3
f 149/1/3 146/1/3 148/1/3
f 150/1/3 148/1/3 147/1/3
f 151/1/3 148/1/3 150/1/3
f 153/1/3 152/1/3 151/1/3
f 154/1/3 152/1/3 153/1/3
f 157/2/3 156/2/3 155/2/3
f 158/2/3 156/2/3 157/2/3
f 161/3/3 160/3/3 159/3/3
f 162/3/3 160/3/3 161/3/3
f 166/3/3 164/3/3 163/3/3
f 167/3/3 164/3/3 166/3/3
f 168/2/3 166/2/3 165/2/3
f 169/2/3 166/2/3 168/2/3
f 171/3/3 170/3/3 169/3/3
f 172/3/3 170/3/3 171/3/3
f 176/3/3 174/3/3 173/3/3
f 177/3/3 174/3/3 176/3/3
f 178/2/3 176/2/3 175/2/3
f 179/2/3 176/2/3 178/2/3
f 181/3/3 180/3/3 179/3/3
f 182/3/3 180/3/3 181/3/3
f 186/1/3 184/1/3 183/1/3
f 187/1/3 184/1/3 186/1/3
f 188/3/3 186/3/3 185/3/3
f 189/3/3 186/3/3 188/3/3
f 191/1/3 190/1/3 189/1/3
f 192/1/3 190/1/3 191/1/3
f 193/1/4 194/1/4 196/1/4
f 196/1/4 194/1/4 197/1/4
f 195/1/4 196/1/4 198/1/4
f 198/1/4 196/1/4 199/1/4
f 200/2/4 201/2/4 202/2/4
f 202/2/4 201/2/4 203/2/4
f 204/1/4 205/1/4 207/1/4
f 207/1/4 205/1/4 208/1/4
f 206/3/4 207/3/4 209/3/4
f 209/3/4 207/3/4 210/3/4
f 210/1/4 211/1/4 212/1/4
f 212/1/4 211/1/4 213/1/4
f 214/1/4 215/1/4 217/1/4
f 217/1/4 215/1/4 218/1/4
f 216/3/4 217/3/4 219/3/4
f 219/3/4 217/3/4 220/3/4
f 220/1/4 221/1/4 222/1/4
f 222/1/4 221/1/4 223/1/4
f 224/1/4 225/1/4 227/1/4
f 227/1/4 225/1/4 228/1/4
f 226/3/4 227/3/4 229/3/4
f 229/3/4 227/3/4 230/3/4
f 230/1/4 231/1/4 232/1/4
f 232/1/4 231/1/4 233/1/4
f 234/1/4 235/1/4 237/1/4
f 237/1/4 235/1/4 238/1/4
f 236/3/4 237/3/4 239/3/4
f 239/3/4 237/3/4 240/3/4
f 240/1/4 241/1/4 242/1/4
f 242/1/4 241/1/4 243/1/4
f 246/3/5 245/3/5 244/3/5
f 247/3/5 245/3/5 246/3/5
f 250/2/5 249/2/5 248/2/5
f 251/2/5 249/2/5 250/2/5
f 253/3/5 251/3/5 250/3/5
f 254/3/5 251/3/5 253/3/5
f 256/1/5 253/1/5 252/1/5
f 257/1/5 253/1/5 256/1/5
f 258/1/5 255/1/5 254/1/5
f 259/1/5 255/1/5 258/1/5
f 262/2/5 261/2/5 260/2/5
f 263/2/5 261/2/5 262/2/5
f 265/3/5 263/3/5 262/3/5
f 266/3/5 263/3/5 265/3/5
f 268/3/5 265/3/5 264/3/5
f 269/3/5 265/3/5 268/3/5
f 270/3/5 267/3/5 266/3/5
f 271/3/5 267/3/5 270/3/5
f 272/1/5 269/1/5 268/1/5
f 273/1/5 269/1/5 272/1/5
f 274/1/5 271/1/5 270/1/5
f 275/1/5 271/1/5 274/1/5
f 278/1/5 277/1/5 276/1/5
f 279/1/5 277/1/5 278/1/5
f 283/3/5 281/3/5 280/3/5
f 284/3/5 281/3/5 283/3/5
f 286/3/5 283/3/5 282/3/5
f 287/3/5 283/3/5 286/3/5
f 288/3/5 285/3/5 284/3/5
f 289/3/5 285/3/5 288/3/5
f 290/1/5 287/1/5 286/1/5
f 291/1/5 287/1/5 290/1/5
f 292/1/5 289/1/5 288/1/5
f 293/1/5 289/1/5 292/1/5
f 299/3/5 295/3/5 294/3/5
f 299/1/5 296/1/5 295/1/5
f 300/1/5 296/1/5 299/1/5
f 301/1/5 298/1/5 297/1/5
f 302/1/5 298/1/5 301/1/5
f 303/3/5 299/3/5 294/3/5
f 304/3/5 299/3/5 303/3/5
f 305/3/5 302/3/5 301/3/5
f 306/3/5 302/3/5 305/3/5
f 307/2/5 304/2/5 303/2/5
f 308/2/5 304/2/5 307/2/5
f 309/2/5 306/2/5 305/2/5
f 310/2/5 306/2/5 309/2/5
f 311/3/5 308/3/5 307/3/5
f 312/2/5 309/2/5 308/2/5
f 312/3/5 308/3/5 311/3/5
f 313/3/5 310/3/5 309/3/5
f 313/2/5 309/2/5 312/2/5
f 314/3/5 310/3/5 313/3/5
f 315/1/5 312/1/5 311/1/5
f 316/1/5 312/1/5 315/1/5
f 317/1/5 314/1/5 313/1/5
f 318/1/5 314/1/5 317/1/5
f 319/3/6 320/3/6 321/3/6
f 321/3/6 320/3/6 322/3/6
f 323/2/6 324/2/6 325/2/6
f 325/2/6 324/2/6 326/2/6
f 325/3/6 326/3/6 328/3/6
f 328/3/6 326/3/6 329/3/6
f 327/1/6 328/1/6 331/1/6
f 331/1/6 328/1/6 332/1/6
f 329/1/6 330/1/6 333/1/6
f 333/1/6 330/1/6 334/1/6
f 335/2/6 336/2/6 337/2/6
f 337/2/6 336/2/6 338/2/6
f 337/3/6 338/3/6 340/3/6
f 340/3/6 338/3/6 341/3/6
f 339/3/6 340/3/6 343/3/6
f 343/3/6 340/3/6 344/3/6
f 341/3/6 342/3/6 345/3/6
f 345/3/6 342/3/6 346/3/6
f 343/1/6 344/1/6 347/1/6
f 347/1/6 344/1/6 348/1/6
f 345/1/6 346/1/6 349/1/6
f 349/1/6 346/1/6 350/1/6
f 351/1/6 352/1/6 353/1/6
f 353/1/6 352/1/6 354/1/6
f 355/3/6 356/3/6 358/3/6
f 358/3/6 356/3/6 359/3/6
f 357/3/6 358/3/6 361/3/6
f 361/3/6 358/3/6 362/3/6
f 359/3/6 360/3/6 363/3/6
f 363/3/6 360/3/6 364/3/6
f 361/1/6 362/1/6 365/1/6
f 365/1/6 362/1/6 366/1/6
f 363/1/6 364/1/6 367/1/6
f 367/1/6 364/1/6 368/1/6
f 369/3/6 370/3/6 374/3/6
f 370/1/6 371/1/6 374/1/6
f 374/1/6 371/1/6 375/1/6
f 372/1/6 373/1/6 376/1/6
f 376/1/6 373/1/6 377/1/6
f 369/3/6 374/3/6 378/3/6
f 378/3/6 374/3/6 379/3/6
f 376/3/6 377/3/6 380/3/6
f 380/3/6 377/3/6 381/3/6
f 378/2/6 379/2/6 382/2/6
f 382/2/6 379/2/6 383/2/6
f 380/2/6 381/2/6 384/2/6
f 384/2/6 381/2/6 385/2/6
f 382/3/6 383/3/6 386/3/6
f 383/2/6 384/2/6 387/2/6
f 386/3/6 383/3/6 387/3/6
f 384/3/6 385/3/6 388/3/6
f 387/2/6 384/2/6 388/2/6
f 388/3/6 385/3/6 389/3/6
f 386/1/6 387/1/6 390/1/6
f 390/1/6 387/1/6 391/1/6
f 388/1/6 389/1/6 392/1/6
f 392/1/6 389/1/6 393/1/6
