# MagicaVoxel @ Ephtracy

# group
g johnnyLegLeft

# material
mtllib johnnyLegLeft.mtl
usemtl palette

# normals
vn -1 0 0
vn 1 0 0
vn 0 0 1
vn 0 0 -1
vn 0 -1 0
vn 0 1 0

# texcoords
vt 0.904297 0.5
vt 0.962891 0.5
vt 0.966797 0.5
vt 0.986328 0.5
vt 0.994141 0.5

# verts
v 1 0 4
v 1 0 3
v 1 0 2
v 1 0 1
v 1 0 -0
v 1 1 4
v 1 1 3
v 1 1 2
v 1 1 1
v 1 2 2
v 1 2 1
v 1 2 -0
v 1 3 1
v 1 3 -0
v 2 1 3
v 2 1 2
v 2 2 3
v 2 2 2
v 2 2 1
v 2 3 1
v 2 3 -0
v 2 4 2
v 2 4 1
v 2 4 -0
v 3 0 4
v 3 0 3
v 3 0 2
v 3 0 -0
v 3 1 4
v 3 1 3
v 3 1 2
v 3 1 -0
v 3 2 3
v 3 2 2
v 3 2 1
v 3 2 -0
v 3 4 2
v 3 4 1
v 3 4 -0
v 1 0 4
v 1 1 4
v 2 0 4
v 2 1 4
v 3 0 4
v 3 1 4
v 2 1 3
v 2 2 3
v 3 1 3
v 3 2 3
v 1 1 2
v 1 2 2
v 2 1 2
v 2 2 2
v 2 4 2
v 3 2 2
v 3 4 2
v 1 2 1
v 1 3 1
v 2 2 1
v 2 3 1
v 1 0 -0
v 1 2 -0
v 1 3 -0
v 2 1 -0
v 2 2 -0
v 2 3 -0
v 2 4 -0
v 3 0 -0
v 3 1 -0
v 3 2 -0
v 3 4 -0
v 1 0 4
v 2 0 4
v 3 0 4
v 1 0 3
v 2 0 3
v 3 0 3
v 1 0 2
v 2 0 2
v 3 0 2
v 1 0 1
v 2 0 1
v 1 0 -0
v 3 0 -0
v 1 1 4
v 2 1 4
v 3 1 4
v 1 1 3
v 2 1 3
v 3 1 3
v 1 1 2
v 2 1 2
v 2 2 3
v 3 2 3
v 1 2 2
v 2 2 2
v 3 2 2
v 1 2 1
v 2 2 1
v 1 3 1
v 2 3 1
v 1 3 -0
v 2 3 -0
v 2 4 2
v 3 4 2
v 2 4 1
v 3 4 1
v 2 4 -0
v 3 4 -0

# faces
f 6/1/1 2/1/1 1/1/1
f 7/2/1 3/2/1 2/2/1
f 7/1/1 2/1/1 6/1/1
f 8/3/1 4/3/1 3/3/1
f 8/2/1 3/2/1 7/2/1
f 9/4/1 5/4/1 4/4/1
f 9/3/1 4/3/1 8/3/1
f 10/1/1 9/1/1 8/1/1
f 11/4/1 5/4/1 9/4/1
f 11/1/1 9/1/1 10/1/1
f 12/4/1 5/4/1 11/4/1
f 13/3/1 12/3/1 11/3/1
f 14/3/1 12/3/1 13/3/1
f 17/5/1 16/5/1 15/5/1
f 18/5/1 16/5/1 17/5/1
f 20/1/1 19/1/1 18/1/1
f 22/1/1 20/1/1 18/1/1
f 23/5/1 21/5/1 20/5/1
f 23/1/1 20/1/1 22/1/1
f 24/5/1 21/5/1 23/5/1
f 25/5/2 26/5/2 29/5/2
f 26/3/2 27/3/2 30/3/2
f 29/5/2 26/5/2 30/5/2
f 27/4/2 28/4/2 31/4/2
f 30/3/2 27/3/2 31/3/2
f 31/4/2 28/4/2 32/4/2
f 30/5/2 31/5/2 33/5/2
f 31/3/2 32/3/2 34/3/2
f 33/5/2 31/5/2 34/5/2
f 34/3/2 32/3/2 35/3/2
f 35/3/2 32/3/2 36/3/2
f 34/1/2 35/1/2 37/1/2
f 35/5/2 36/5/2 38/5/2
f 37/1/2 35/1/2 38/1/2
f 38/5/2 36/5/2 39/5/2
f 42/1/3 41/1/3 40/1/3
f 43/1/3 41/1/3 42/1/3
f 44/5/3 43/5/3 42/5/3
f 45/5/3 43/5/3 44/5/3
f 48/5/3 47/5/3 46/5/3
f 49/5/3 47/5/3 48/5/3
f 52/1/3 51/1/3 50/1/3
f 53/1/3 51/1/3 52/1/3
f 55/1/3 54/1/3 53/1/3
f 56/1/3 54/1/3 55/1/3
f 59/3/3 58/3/3 57/3/3
f 60/3/3 58/3/3 59/3/3
f 61/4/4 62/4/4 64/4/4
f 62/3/4 63/3/4 65/3/4
f 64/4/4 62/4/4 65/4/4
f 65/3/4 63/3/4 66/3/4
f 61/4/4 64/4/4 68/4/4
f 64/3/4 65/3/4 69/3/4
f 68/4/4 64/4/4 69/4/4
f 66/5/4 67/5/4 70/5/4
f 69/3/4 65/3/4 70/3/4
f 65/5/4 66/5/4 70/5/4
f 70/5/4 67/5/4 71/5/4
f 75/1/5 73/1/5 72/1/5
f 76/5/5 74/5/5 73/5/5
f 76/1/5 73/1/5 75/1/5
f 77/5/5 74/5/5 76/5/5
f 78/2/5 76/2/5 75/2/5
f 79/3/5 77/3/5 76/3/5
f 79/2/5 76/2/5 78/2/5
f 80/3/5 77/3/5 79/3/5
f 81/3/5 79/3/5 78/3/5
f 82/4/5 80/4/5 79/4/5
f 82/3/5 79/3/5 81/3/5
f 83/4/5 82/4/5 81/4/5
f 84/4/5 80/4/5 82/4/5
f 84/4/5 82/4/5 83/4/5
f 85/1/6 86/1/6 88/1/6
f 86/5/6 87/5/6 89/5/6
f 88/1/6 86/1/6 89/1/6
f 89/5/6 87/5/6 90/5/6
f 88/2/6 89/2/6 91/2/6
f 91/2/6 89/2/6 92/2/6
f 93/5/6 94/5/6 96/5/6
f 96/5/6 94/5/6 97/5/6
f 95/1/6 96/1/6 98/1/6
f 98/1/6 96/1/6 99/1/6
f 100/3/6 101/3/6 102/3/6
f 102/3/6 101/3/6 103/3/6
f 104/1/6 105/1/6 106/1/6
f 106/1/6 105/1/6 107/1/6
f 106/5/6 107/5/6 108/5/6
f 108/5/6 107/5/6 109/5/6
