# MagicaVoxel @ Ephtracy

# group
g johnnyArmRight

# material
mtllib johnnyArmRight.mtl
usemtl palette

# normals
vn -1 0 0
vn 1 0 0
vn 0 0 1
vn 0 0 -1
vn 0 -1 0
vn 0 1 0

# texcoords
vt 0.904297 0.5
vt 0.962891 0.5
vt 0.966797 0.5
vt 0.986328 0.5
vt 0.994141 0.5

# verts
v -6 1 2
v -6 1 1
v -6 1 -0
v -6 2 2
v -6 2 1
v -6 2 -0
v -6 3 1
v -6 3 -0
v -6 4 2
v -6 4 1
v -6 4 -0
v -6 5 1
v -6 5 -0
v -6 6 1
v -6 6 -0
v -6 7 2
v -6 7 1
v -6 8 1
v -6 8 -0
v -6 9 2
v -6 9 1
v -6 9 -0
v -5 1 2
v -5 1 1
v -5 1 -0
v -5 2 2
v -5 2 1
v -5 2 -0
v -5 3 2
v -5 3 1
v -5 4 2
v -5 4 1
v -5 5 1
v -5 6 1
v -5 7 2
v -5 7 1
v -5 9 2
v -5 9 1
v -4 2 2
v -4 2 1
v -4 2 -0
v -4 3 2
v -4 3 1
v -4 3 -0
v -4 4 1
v -4 4 -0
v -4 5 1
v -4 5 -0
v -4 6 1
v -4 6 -0
v -4 9 1
v -4 9 -0
v -6 1 2
v -6 2 2
v -6 4 2
v -6 7 2
v -6 9 2
v -5 1 2
v -5 2 2
v -5 3 2
v -5 4 2
v -5 7 2
v -5 9 2
v -4 2 2
v -4 3 2
v -5 3 1
v -5 4 1
v -5 5 1
v -5 6 1
v -5 7 1
v -5 9 1
v -4 3 1
v -4 4 1
v -4 5 1
v -4 6 1
v -4 9 1
v -6 5 1
v -6 6 1
v -5 5 1
v -5 6 1
v -6 1 -0
v -6 2 -0
v -6 3 -0
v -6 4 -0
v -6 5 -0
v -6 6 -0
v -6 8 -0
v -6 9 -0
v -5 1 -0
v -5 2 -0
v -5 3 -0
v -5 4 -0
v -5 5 -0
v -5 6 -0
v -5 8 -0
v -5 9 -0
v -4 2 -0
v -4 3 -0
v -4 4 -0
v -4 5 -0
v -4 6 -0
v -4 9 -0
v -6 1 2
v -5 1 2
v -6 1 1
v -5 1 1
v -6 1 -0
v -5 1 -0
v -5 2 2
v -4 2 2
v -5 2 1
v -4 2 1
v -5 2 -0
v -4 2 -0
v -6 6 1
v -5 6 1
v -4 6 1
v -6 6 -0
v -5 6 -0
v -4 6 -0
v -5 3 2
v -4 3 2
v -5 3 1
v -4 3 1
v -6 5 1
v -5 5 1
v -4 5 1
v -6 5 -0
v -5 5 -0
v -4 5 -0
v -6 9 2
v -5 9 2
v -6 9 1
v -5 9 1
v -4 9 1
v -6 9 -0
v -5 9 -0
v -4 9 -0

# faces
f 4/1/1 2/1/1 1/1/1
f 5/4/1 3/4/1 2/4/1
f 5/1/1 2/1/1 4/1/1
f 6/4/1 3/4/1 5/4/1
f 7/3/1 5/3/1 4/3/1
f 7/1/1 6/1/1 5/1/1
f 8/1/1 6/1/1 7/1/1
f 9/3/1 7/3/1 4/3/1
f 10/4/1 8/4/1 7/4/1
f 10/3/1 7/3/1 9/3/1
f 11/4/1 8/4/1 10/4/1
f 12/5/1 10/5/1 9/5/1
f 12/3/1 11/3/1 10/3/1
f 13/3/1 11/3/1 12/3/1
f 14/5/1 12/5/1 9/5/1
f 16/5/1 14/5/1 9/5/1
f 17/4/1 15/4/1 14/4/1
f 17/5/1 14/5/1 16/5/1
f 18/3/1 17/3/1 16/3/1
f 18/4/1 15/4/1 17/4/1
f 19/4/1 15/4/1 18/4/1
f 20/3/1 18/3/1 16/3/1
f 21/5/1 19/5/1 18/5/1
f 21/3/1 18/3/1 20/3/1
f 22/5/1 19/5/1 21/5/1
f 23/1/2 24/1/2 26/1/2
f 24/4/2 25/4/2 27/4/2
f 26/1/2 24/1/2 27/1/2
f 27/4/2 25/4/2 28/4/2
f 29/3/2 30/3/2 31/3/2
f 31/3/2 30/3/2 32/3/2
f 31/5/2 32/5/2 33/5/2
f 31/5/2 33/5/2 34/5/2
f 31/5/2 34/5/2 35/5/2
f 35/5/2 34/5/2 36/5/2
f 35/3/2 36/3/2 37/3/2
f 37/3/2 36/3/2 38/3/2
f 39/5/2 40/5/2 42/5/2
f 40/3/2 41/3/2 43/3/2
f 42/5/2 40/5/2 43/5/2
f 43/3/2 41/3/2 44/3/2
f 43/2/2 44/2/2 45/2/2
f 45/2/2 44/2/2 46/2/2
f 45/1/2 46/1/2 47/1/2
f 47/1/2 46/1/2 48/1/2
f 49/1/2 50/1/2 51/1/2
f 51/1/2 50/1/2 52/1/2
f 58/1/3 54/1/3 53/1/3
f 59/3/3 55/3/3 54/3/3
f 59/1/3 54/1/3 58/1/3
f 60/3/3 55/3/3 59/3/3
f 61/5/3 56/5/3 55/5/3
f 61/3/3 55/3/3 60/3/3
f 62/3/3 57/3/3 56/3/3
f 62/5/3 56/5/3 61/5/3
f 63/3/3 57/3/3 62/3/3
f 64/5/3 60/5/3 59/5/3
f 65/5/3 60/5/3 64/5/3
f 72/2/3 67/2/3 66/2/3
f 73/1/3 68/1/3 67/1/3
f 73/2/3 67/2/3 72/2/3
f 74/1/3 68/1/3 73/1/3
f 75/1/3 71/1/3 70/1/3
f 75/1/3 70/1/3 69/1/3
f 76/1/3 71/1/3 75/1/3
f 77/5/4 78/5/4 79/5/4
f 79/5/4 78/5/4 80/5/4
f 81/4/4 82/4/4 89/4/4
f 82/1/4 83/1/4 90/1/4
f 89/4/4 82/4/4 90/4/4
f 83/4/4 84/4/4 91/4/4
f 90/1/4 83/1/4 91/1/4
f 84/3/4 85/3/4 92/3/4
f 91/4/4 84/4/4 92/4/4
f 92/3/4 85/3/4 93/3/4
f 86/4/4 87/4/4 94/4/4
f 87/5/4 88/5/4 95/5/4
f 94/4/4 87/4/4 95/4/4
f 95/5/4 88/5/4 96/5/4
f 90/3/4 91/3/4 97/3/4
f 91/2/4 92/2/4 98/2/4
f 97/3/4 91/3/4 98/3/4
f 92/1/4 93/1/4 99/1/4
f 98/2/4 92/2/4 99/2/4
f 99/1/4 93/1/4 100/1/4
f 95/1/4 96/1/4 101/1/4
f 94/1/4 95/1/4 101/1/4
f 101/1/4 96/1/4 102/1/4
f 105/1/5 104/1/5 103/1/5
f 106/1/5 104/1/5 105/1/5
f 107/4/5 106/4/5 105/4/5
f 108/4/5 106/4/5 107/4/5
f 111/5/5 110/5/5 109/5/5
f 112/5/5 110/5/5 111/5/5
f 113/3/5 112/3/5 111/3/5
f 114/3/5 112/3/5 113/3/5
f 118/4/5 116/4/5 115/4/5
f 119/1/5 117/1/5 116/1/5
f 119/4/5 116/4/5 118/4/5
f 120/1/5 117/1/5 119/1/5
f 121/5/6 122/5/6 123/5/6
f 123/5/6 122/5/6 124/5/6
f 125/3/6 126/3/6 128/3/6
f 126/1/6 127/1/6 129/1/6
f 128/3/6 126/3/6 129/3/6
f 129/1/6 127/1/6 130/1/6
f 131/3/6 132/3/6 133/3/6
f 133/3/6 132/3/6 134/3/6
f 133/5/6 134/5/6 136/5/6
f 134/1/6 135/1/6 137/1/6
f 136/5/6 134/5/6 137/5/6
f 137/1/6 135/1/6 138/1/6
