# MagicaVoxel @ Ephtracy

# group
g johnnyLegRight

# material
mtllib johnnyLegRight.mtl
usemtl palette

# normals
vn -1 0 0
vn 1 0 0
vn 0 0 1
vn 0 0 -1
vn 0 -1 0
vn 0 1 0

# texcoords
vt 0.904297 0.5
vt 0.962891 0.5
vt 0.966797 0.5
vt 0.986328 0.5
vt 0.994141 0.5

# verts
v -3 0 4
v -3 0 3
v -3 0 2
v -3 0 -0
v -3 1 4
v -3 1 3
v -3 1 2
v -3 1 -0
v -3 2 3
v -3 2 2
v -3 2 1
v -3 2 -0
v -3 4 2
v -3 4 1
v -3 4 -0
v -2 1 3
v -2 1 2
v -2 2 3
v -2 2 2
v -2 2 1
v -2 3 1
v -2 3 -0
v -2 4 2
v -2 4 1
v -2 4 -0
v -1 0 4
v -1 0 3
v -1 0 2
v -1 0 1
v -1 0 -0
v -1 1 4
v -1 1 3
v -1 1 2
v -1 1 1
v -1 2 2
v -1 2 1
v -1 2 -0
v -1 3 1
v -1 3 -0
v -3 0 4
v -3 1 4
v -2 0 4
v -2 1 4
v -1 0 4
v -1 1 4
v -3 1 3
v -3 2 3
v -2 1 3
v -2 2 3
v -3 2 2
v -3 4 2
v -2 1 2
v -2 2 2
v -2 4 2
v -1 1 2
v -1 2 2
v -2 2 1
v -2 3 1
v -1 2 1
v -1 3 1
v -3 0 -0
v -3 1 -0
v -3 2 -0
v -3 4 -0
v -2 1 -0
v -2 2 -0
v -2 3 -0
v -2 4 -0
v -1 0 -0
v -1 2 -0
v -1 3 -0
v -3 0 4
v -2 0 4
v -1 0 4
v -3 0 3
v -2 0 3
v -1 0 3
v -3 0 2
v -2 0 2
v -1 0 2
v -2 0 1
v -1 0 1
v -3 0 -0
v -1 0 -0
v -3 1 4
v -2 1 4
v -1 1 4
v -3 1 3
v -2 1 3
v -1 1 3
v -2 1 2
v -1 1 2
v -3 2 3
v -2 2 3
v -3 2 2
v -2 2 2
v -1 2 2
v -2 2 1
v -1 2 1
v -2 3 1
v -1 3 1
v -2 3 -0
v -1 3 -0
v -3 4 2
v -2 4 2
v -3 4 1
v -2 4 1
v -3 4 -0
v -2 4 -0

# faces
f 5/5/1 2/5/1 1/5/1
f 6/3/1 3/3/1 2/3/1
f 6/5/1 2/5/1 5/5/1
f 7/4/1 4/4/1 3/4/1
f 7/3/1 3/3/1 6/3/1
f 8/4/1 4/4/1 7/4/1
f 9/5/1 7/5/1 6/5/1
f 10/3/1 8/3/1 7/3/1
f 10/5/1 7/5/1 9/5/1
f 11/3/1 8/3/1 10/3/1
f 12/3/1 8/3/1 11/3/1
f 13/1/1 11/1/1 10/1/1
f 14/5/1 12/5/1 11/5/1
f 14/1/1 11/1/1 13/1/1
f 15/5/1 12/5/1 14/5/1
f 16/5/2 17/5/2 18/5/2
f 18/5/2 17/5/2 19/5/2
f 19/1/2 20/1/2 21/1/2
f 19/1/2 21/1/2 23/1/2
f 21/5/2 22/5/2 24/5/2
f 23/1/2 21/1/2 24/1/2
f 24/5/2 22/5/2 25/5/2
f 26/1/2 27/1/2 31/1/2
f 27/2/2 28/2/2 32/2/2
f 31/1/2 27/1/2 32/1/2
f 28/3/2 29/3/2 33/3/2
f 32/2/2 28/2/2 33/2/2
f 29/4/2 30/4/2 34/4/2
f 33/3/2 29/3/2 34/3/2
f 33/1/2 34/1/2 35/1/2
f 34/4/2 30/4/2 36/4/2
f 35/1/2 34/1/2 36/1/2
f 36/4/2 30/4/2 37/4/2
f 36/3/2 37/3/2 38/3/2
f 38/3/2 37/3/2 39/3/2
f 42/5/3 41/5/3 40/5/3
f 43/5/3 41/5/3 42/5/3
f 44/1/3 43/1/3 42/1/3
f 45/1/3 43/1/3 44/1/3
f 48/5/3 47/5/3 46/5/3
f 49/5/3 47/5/3 48/5/3
f 53/1/3 51/1/3 50/1/3
f 54/1/3 51/1/3 53/1/3
f 55/1/3 53/1/3 52/1/3
f 56/1/3 53/1/3 55/1/3
f 59/3/3 58/3/3 57/3/3
f 60/3/3 58/3/3 59/3/3
f 61/4/4 62/4/4 65/4/4
f 62/3/4 63/3/4 65/3/4
f 63/5/4 64/5/4 66/5/4
f 65/3/4 63/3/4 66/3/4
f 66/5/4 64/5/4 67/5/4
f 67/5/4 64/5/4 68/5/4
f 61/4/4 65/4/4 69/4/4
f 65/4/4 66/4/4 69/4/4
f 66/3/4 67/3/4 70/3/4
f 69/4/4 66/4/4 70/4/4
f 70/3/4 67/3/4 71/3/4
f 75/5/5 73/5/5 72/5/5
f 76/1/5 74/1/5 73/1/5
f 76/5/5 73/5/5 75/5/5
f 77/1/5 74/1/5 76/1/5
f 78/3/5 76/3/5 75/3/5
f 79/2/5 77/2/5 76/2/5
f 79/3/5 76/3/5 78/3/5
f 80/2/5 77/2/5 79/2/5
f 81/4/5 79/4/5 78/4/5
f 81/3/5 80/3/5 79/3/5
f 82/3/5 80/3/5 81/3/5
f 83/4/5 81/4/5 78/4/5
f 83/4/5 82/4/5 81/4/5
f 84/4/5 82/4/5 83/4/5
f 85/5/6 86/5/6 88/5/6
f 86/1/6 87/1/6 89/1/6
f 88/5/6 86/5/6 89/5/6
f 89/1/6 87/1/6 90/1/6
f 89/2/6 90/2/6 91/2/6
f 91/2/6 90/2/6 92/2/6
f 93/5/6 94/5/6 95/5/6
f 95/5/6 94/5/6 96/5/6
f 96/1/6 97/1/6 98/1/6
f 98/1/6 97/1/6 99/1/6
f 100/3/6 101/3/6 102/3/6
f 102/3/6 101/3/6 103/3/6
f 104/1/6 105/1/6 106/1/6
f 106/1/6 105/1/6 107/1/6
f 106/5/6 107/5/6 108/5/6
f 108/5/6 107/5/6 109/5/6
