# MagicaVoxel @ Ephtracy

# group
g johnnyArmLeft

# material
mtllib johnnyArmLeft.mtl
usemtl palette

# normals
vn -1 0 0
vn 1 0 0
vn 0 0 1
vn 0 0 -1
vn 0 -1 0
vn 0 1 0

# texcoords
vt 0.904297 0.5
vt 0.962891 0.5
vt 0.966797 0.5
vt 0.986328 0.5
vt 0.994141 0.5

# verts
v 4 8 8
v 4 8 7
v 4 8 6
v 4 8 5
v 4 8 4
v 4 8 1
v 4 9 8
v 4 9 7
v 4 9 6
v 4 9 5
v 4 9 4
v 4 9 1
v 4 10 8
v 4 10 7
v 5 8 9
v 5 8 8
v 5 9 9
v 5 9 8
v 5 9 7
v 5 9 6
v 5 9 5
v 5 9 4
v 5 9 3
v 5 9 1
v 5 10 9
v 5 10 8
v 5 10 7
v 5 10 6
v 5 10 3
v 5 10 1
v 6 8 9
v 6 8 8
v 6 8 7
v 6 8 6
v 6 8 5
v 6 8 4
v 6 8 3
v 6 8 2
v 6 8 1
v 6 9 9
v 6 9 8
v 6 9 7
v 6 9 6
v 6 9 5
v 6 9 4
v 6 9 3
v 6 9 2
v 6 10 9
v 6 10 8
v 6 10 6
v 6 10 3
v 6 10 1
v 5 8 9
v 5 9 9
v 5 10 9
v 6 8 9
v 6 9 9
v 6 10 9
v 4 8 8
v 4 9 8
v 4 10 8
v 5 8 8
v 5 9 8
v 5 10 8
v 4 8 4
v 4 9 4
v 5 8 4
v 5 9 4
v 6 8 4
v 6 9 4
v 4 9 7
v 4 10 7
v 5 9 7
v 5 10 7
v 4 8 5
v 4 9 5
v 5 8 5
v 5 9 5
v 6 8 5
v 6 9 5
v 4 8 1
v 4 9 1
v 5 8 1
v 5 9 1
v 5 10 1
v 6 8 1
v 6 10 1
v 5 8 9
v 6 8 9
v 4 8 8
v 5 8 8
v 6 8 8
v 4 8 7
v 5 8 7
v 6 8 7
v 4 8 6
v 5 8 6
v 6 8 6
v 4 8 5
v 5 8 5
v 6 8 5
v 4 8 4
v 5 8 4
v 6 8 4
v 5 8 3
v 6 8 3
v 5 8 2
v 6 8 2
v 4 8 1
v 5 8 1
v 6 8 1
v 5 9 5
v 6 9 5
v 5 9 4
v 6 9 4
v 4 9 7
v 5 9 7
v 4 9 6
v 5 9 6
v 4 9 5
v 5 9 5
v 4 9 4
v 5 9 4
v 5 9 3
v 4 9 1
v 5 9 1
v 5 10 9
v 6 10 9
v 4 10 8
v 5 10 8
v 6 10 8
v 4 10 7
v 5 10 7
v 5 10 6
v 6 10 6
v 5 10 3
v 6 10 3
v 5 10 1
v 6 10 1

# faces
f 7/4/1 2/4/1 1/4/1
f 8/2/1 3/2/1 2/2/1
f 8/4/1 2/4/1 7/4/1
f 9/1/1 4/1/1 3/1/1
f 9/2/1 3/2/1 8/2/1
f 10/1/1 4/1/1 9/1/1
f 11/1/1 6/1/1 5/1/1
f 12/1/1 6/1/1 11/1/1
f 13/5/1 8/5/1 7/5/1
f 14/5/1 8/5/1 13/5/1
f 17/4/1 16/4/1 15/4/1
f 18/4/1 16/4/1 17/4/1
f 25/1/1 18/1/1 17/1/1
f 26/1/1 18/1/1 25/1/1
f 27/3/1 20/3/1 19/3/1
f 28/5/1 21/5/1 20/5/1
f 28/3/1 20/3/1 27/3/1
f 28/5/1 22/5/1 21/5/1
f 28/5/1 23/5/1 22/5/1
f 29/3/1 24/3/1 23/3/1
f 29/5/1 23/5/1 28/5/1
f 30/3/1 24/3/1 29/3/1
f 31/4/2 32/4/2 40/4/2
f 32/1/2 33/1/2 41/1/2
f 40/4/2 32/4/2 41/4/2
f 33/4/2 34/4/2 42/4/2
f 41/1/2 33/1/2 42/1/2
f 34/3/2 35/3/2 43/3/2
f 42/4/2 34/4/2 43/4/2
f 43/3/2 35/3/2 44/3/2
f 36/3/2 37/3/2 45/3/2
f 37/4/2 38/4/2 46/4/2
f 45/3/2 37/3/2 46/3/2
f 38/3/2 39/3/2 47/3/2
f 46/4/2 38/4/2 47/4/2
f 40/1/2 41/1/2 48/1/2
f 41/3/2 42/3/2 49/3/2
f 48/1/2 41/1/2 49/1/2
f 42/3/2 43/3/2 49/3/2
f 45/5/2 46/5/2 50/5/2
f 49/3/2 43/3/2 50/3/2
f 43/5/2 44/5/2 50/5/2
f 44/5/2 45/5/2 50/5/2
f 46/3/2 47/3/2 51/3/2
f 50/5/2 46/5/2 51/5/2
f 47/3/2 39/3/2 52/3/2
f 51/3/2 47/3/2 52/3/2
f 56/4/3 54/4/3 53/4/3
f 57/1/3 55/1/3 54/1/3
f 57/4/3 54/4/3 56/4/3
f 58/1/3 55/1/3 57/1/3
f 62/4/3 60/4/3 59/4/3
f 63/5/3 61/5/3 60/5/3
f 63/4/3 60/4/3 62/4/3
f 64/5/3 61/5/3 63/5/3
f 67/1/3 66/1/3 65/1/3
f 68/1/3 66/1/3 67/1/3
f 69/3/3 68/3/3 67/3/3
f 70/3/3 68/3/3 69/3/3
f 71/5/4 72/5/4 73/5/4
f 73/5/4 72/5/4 74/5/4
f 75/1/4 76/1/4 77/1/4
f 77/1/4 76/1/4 78/1/4
f 77/3/4 78/3/4 79/3/4
f 79/3/4 78/3/4 80/3/4
f 81/1/4 82/1/4 83/1/4
f 83/1/4 82/1/4 84/1/4
f 83/3/4 84/3/4 86/3/4
f 84/3/4 85/3/4 86/3/4
f 86/3/4 85/3/4 87/3/4
f 91/4/5 89/4/5 88/4/5
f 92/4/5 89/4/5 91/4/5
f 93/4/5 91/4/5 90/4/5
f 94/1/5 92/1/5 91/1/5
f 94/4/5 91/4/5 93/4/5
f 95/1/5 92/1/5 94/1/5
f 96/2/5 94/2/5 93/2/5
f 97/4/5 95/4/5 94/4/5
f 97/2/5 94/2/5 96/2/5
f 98/4/5 95/4/5 97/4/5
f 99/1/5 97/1/5 96/1/5
f 100/3/5 98/3/5 97/3/5
f 100/1/5 97/1/5 99/1/5
f 101/3/5 98/3/5 100/3/5
f 105/1/5 103/1/5 102/1/5
f 105/3/5 104/3/5 103/3/5
f 106/3/5 104/3/5 105/3/5
f 107/1/5 105/1/5 102/1/5
f 107/4/5 106/4/5 105/4/5
f 108/4/5 106/4/5 107/4/5
f 109/1/5 107/1/5 102/1/5
f 110/3/5 108/3/5 107/3/5
f 110/1/5 107/1/5 109/1/5
f 111/3/5 108/3/5 110/3/5
f 114/5/5 113/5/5 112/5/5
f 115/5/5 113/5/5 114/5/5
f 116/2/6 117/2/6 118/2/6
f 118/2/6 117/2/6 119/2/6
f 118/1/6 119/1/6 120/1/6
f 120/1/6 119/1/6 121/1/6
f 122/1/6 123/1/6 124/1/6
f 122/1/6 124/1/6 125/1/6
f 125/1/6 124/1/6 126/1/6
f 127/1/6 128/1/6 130/1/6
f 130/1/6 128/1/6 131/1/6
f 129/5/6 130/5/6 132/5/6
f 130/3/6 131/3/6 133/3/6
f 132/5/6 130/5/6 133/5/6
f 133/3/6 131/3/6 134/3/6
f 134/3/6 131/3/6 135/3/6
f 134/5/6 135/5/6 136/5/6
f 136/5/6 135/5/6 137/5/6
f 136/3/6 137/3/6 138/3/6
f 138/3/6 137/3/6 139/3/6
