# MagicaVoxel @ Ephtracy

# group
g johnnyArmLeft

# material
mtllib johnnyArmLeft.mtl
usemtl palette

# normals
vn -1 0 0
vn 1 0 0
vn 0 0 1
vn 0 0 -1
vn 0 -1 0
vn 0 1 0

# texcoords
vt 0.904297 0.5
vt 0.962891 0.5
vt 0.966797 0.5
vt 0.986328 0.5
vt 0.994141 0.5

# verts
v 4 2 2
v 4 2 1
v 4 2 -0
v 4 3 2
v 4 3 1
v 4 3 -0
v 4 4 1
v 4 4 -0
v 4 5 1
v 4 5 -0
v 4 6 1
v 4 6 -0
v 4 9 1
v 4 9 -0
v 5 1 2
v 5 1 1
v 5 1 -0
v 5 2 2
v 5 2 1
v 5 2 -0
v 5 3 2
v 5 3 1
v 5 4 2
v 5 4 1
v 5 5 1
v 5 6 1
v 5 7 2
v 5 7 1
v 5 9 2
v 5 9 1
v 6 1 2
v 6 1 1
v 6 1 -0
v 6 2 2
v 6 2 1
v 6 2 -0
v 6 3 1
v 6 3 -0
v 6 4 2
v 6 4 1
v 6 4 -0
v 6 5 1
v 6 5 -0
v 6 6 1
v 6 6 -0
v 6 7 2
v 6 7 1
v 6 7 -0
v 6 8 1
v 6 8 -0
v 6 9 2
v 6 9 -0
v 4 2 2
v 4 3 2
v 5 1 2
v 5 2 2
v 5 3 2
v 5 4 2
v 5 7 2
v 5 9 2
v 6 1 2
v 6 2 2
v 6 4 2
v 6 7 2
v 6 9 2
v 4 3 1
v 4 4 1
v 4 5 1
v 4 6 1
v 4 9 1
v 5 3 1
v 5 4 1
v 5 5 1
v 5 6 1
v 5 7 1
v 5 9 1
v 5 5 1
v 5 6 1
v 6 5 1
v 6 6 1
v 4 2 -0
v 4 3 -0
v 4 4 -0
v 4 5 -0
v 4 6 -0
v 4 9 -0
v 5 1 -0
v 5 2 -0
v 5 3 -0
v 5 4 -0
v 5 5 -0
v 5 6 -0
v 5 7 -0
v 5 8 -0
v 5 9 -0
v 6 1 -0
v 6 2 -0
v 6 3 -0
v 6 4 -0
v 6 5 -0
v 6 6 -0
v 6 7 -0
v 6 8 -0
v 6 9 -0
v 5 1 2
v 6 1 2
v 5 1 1
v 6 1 1
v 5 1 -0
v 6 1 -0
v 4 2 2
v 5 2 2
v 4 2 1
v 5 2 1
v 4 2 -0
v 5 2 -0
v 4 6 1
v 5 6 1
v 6 6 1
v 4 6 -0
v 5 6 -0
v 6 6 -0
v 4 3 2
v 5 3 2
v 4 3 1
v 5 3 1
v 4 5 1
v 5 5 1
v 6 5 1
v 4 5 -0
v 5 5 -0
v 6 5 -0
v 5 9 2
v 6 9 2
v 4 9 1
v 5 9 1
v 4 9 -0
v 5 9 -0
v 6 9 -0

# faces
f 4/5/1 2/5/1 1/5/1
f 5/4/1 3/4/1 2/4/1
f 5/5/1 2/5/1 4/5/1
f 6/4/1 3/4/1 5/4/1
f 7/2/1 6/2/1 5/2/1
f 8/2/1 6/2/1 7/2/1
f 9/1/1 8/1/1 7/1/1
f 10/1/1 8/1/1 9/1/1
f 13/1/1 12/1/1 11/1/1
f 14/1/1 12/1/1 13/1/1
f 18/1/1 16/1/1 15/1/1
f 19/4/1 17/4/1 16/4/1
f 19/1/1 16/1/1 18/1/1
f 20/4/1 17/4/1 19/4/1
f 23/3/1 22/3/1 21/3/1
f 24/3/1 22/3/1 23/3/1
f 25/5/1 24/5/1 23/5/1
f 26/5/1 25/5/1 23/5/1
f 27/5/1 26/5/1 23/5/1
f 28/5/1 26/5/1 27/5/1
f 29/3/1 28/3/1 27/3/1
f 30/3/1 28/3/1 29/3/1
f 31/1/2 32/1/2 34/1/2
f 32/4/2 33/4/2 35/4/2
f 34/1/2 32/1/2 35/1/2
f 35/4/2 33/4/2 36/4/2
f 34/3/2 35/3/2 37/3/2
f 35/1/2 36/1/2 37/1/2
f 37/1/2 36/1/2 38/1/2
f 34/3/2 37/3/2 39/3/2
f 37/4/2 38/4/2 40/4/2
f 39/3/2 37/3/2 40/3/2
f 40/4/2 38/4/2 41/4/2
f 39/5/2 40/5/2 42/5/2
f 40/3/2 41/3/2 42/3/2
f 42/3/2 41/3/2 43/3/2
f 39/5/2 42/5/2 44/5/2
f 39/5/2 44/5/2 46/5/2
f 44/3/2 45/3/2 47/3/2
f 46/5/2 44/5/2 47/5/2
f 47/3/2 45/3/2 48/3/2
f 46/3/2 47/3/2 49/3/2
f 47/4/2 48/4/2 49/4/2
f 49/4/2 48/4/2 50/4/2
f 46/3/2 49/3/2 51/3/2
f 49/3/2 50/3/2 51/3/2
f 51/3/2 50/3/2 52/3/2
f 56/5/3 54/5/3 53/5/3
f 57/5/3 54/5/3 56/5/3
f 61/1/3 56/1/3 55/1/3
f 62/3/3 57/3/3 56/3/3
f 62/1/3 56/1/3 61/1/3
f 62/3/3 58/3/3 57/3/3
f 63/5/3 59/5/3 58/5/3
f 63/3/3 58/3/3 62/3/3
f 64/3/3 60/3/3 59/3/3
f 64/5/3 59/5/3 63/5/3
f 65/3/3 60/3/3 64/3/3
f 71/2/3 67/2/3 66/2/3
f 72/1/3 68/1/3 67/1/3
f 72/2/3 67/2/3 71/2/3
f 73/1/3 68/1/3 72/1/3
f 74/1/3 70/1/3 69/1/3
f 75/1/3 70/1/3 74/1/3
f 76/1/3 70/1/3 75/1/3
f 77/5/4 78/5/4 79/5/4
f 79/5/4 78/5/4 80/5/4
f 81/4/4 82/4/4 88/4/4
f 82/2/4 83/2/4 89/2/4
f 88/4/4 82/4/4 89/4/4
f 83/1/4 84/1/4 90/1/4
f 89/2/4 83/2/4 90/2/4
f 90/1/4 84/1/4 91/1/4
f 85/1/4 86/1/4 92/1/4
f 92/1/4 86/1/4 93/1/4
f 93/1/4 86/1/4 94/1/4
f 94/1/4 86/1/4 95/1/4
f 87/4/4 88/4/4 96/4/4
f 88/1/4 89/1/4 97/1/4
f 96/4/4 88/4/4 97/4/4
f 89/4/4 90/4/4 98/4/4
f 97/1/4 89/1/4 98/1/4
f 90/3/4 91/3/4 99/3/4
f 98/4/4 90/4/4 99/4/4
f 99/3/4 91/3/4 100/3/4
f 92/3/4 93/3/4 101/3/4
f 93/4/4 94/4/4 102/4/4
f 101/3/4 93/3/4 102/3/4
f 94/3/4 95/3/4 103/3/4
f 102/4/4 94/4/4 103/4/4
f 103/3/4 95/3/4 104/3/4
f 107/1/5 106/1/5 105/1/5
f 108/1/5 106/1/5 107/1/5
f 109/4/5 108/4/5 107/4/5
f 110/4/5 108/4/5 109/4/5
f 113/5/5 112/5/5 111/5/5
f 114/5/5 112/5/5 113/5/5
f 115/4/5 114/4/5 113/4/5
f 116/4/5 114/4/5 115/4/5
f 120/1/5 118/1/5 117/1/5
f 121/3/5 119/3/5 118/3/5
f 121/1/5 118/1/5 120/1/5
f 122/3/5 119/3/5 121/3/5
f 123/5/6 124/5/6 125/5/6
f 125/5/6 124/5/6 126/5/6
f 127/1/6 128/1/6 130/1/6
f 128/3/6 129/3/6 131/3/6
f 130/1/6 128/1/6 131/1/6
f 131/3/6 129/3/6 132/3/6
f 133/3/6 134/3/6 136/3/6
f 135/1/6 136/1/6 137/1/6
f 136/3/6 134/3/6 138/3/6
f 137/1/6 136/1/6 138/1/6
f 138/3/6 134/3/6 139/3/6
