# MagicaVoxel @ Ephtracy

# group
g johnnyHead

# material
mtllib johnnyHead.mtl
usemtl palette

# normals
vn -1 0 0
vn 1 0 0
vn 0 0 1
vn 0 0 -1
vn 0 -1 0
vn 0 1 0

# texcoords
vt 0.833984 0.5
vt 0.837891 0.5
vt 0.873047 0.5
vt 0.904297 0.5
vt 0.931641 0.5
vt 0.935547 0.5
vt 0.962891 0.5
vt 0.966797 0.5
vt 0.986328 0.5
vt 0.990234 0.5
vt 0.994141 0.5

# verts
v -3 16 -4
v -3 16 -6
v -3 16 -7
v -3 17 -4
v -3 17 -6
v -3 17 -7
v -2 13 5
v -2 13 4
v -2 13 2
v -2 13 1
v -2 13 -1
v -2 14 5
v -2 14 4
v -2 14 2
v -2 14 1
v -2 14 -1
v -2 14 -2
v -2 15 5
v -2 15 4
v -2 15 -1
v -2 15 -2
v -2 15 -4
v -2 15 -5
v -2 16 4
v -2 16 -1
v -2 16 -2
v -2 16 -4
v -2 16 -5
v -2 17 5
v -2 17 -1
v -1 12 5
v -1 12 3
v -1 12 2
v -1 12 -0
v -1 13 5
v -1 13 4
v -1 13 3
v -1 13 2
v -1 13 1
v -1 13 -0
v -1 14 3
v -1 14 2
v -1 14 -2
v -1 14 -4
v -1 15 -2
v -1 15 -3
v -1 15 -4
v -1 16 -3
v -1 16 -4
v 0 10 3
v 0 10 2
v 0 11 3
v 0 11 2
v 1 11 3
v 1 11 2
v 1 11 1
v 1 12 3
v 1 12 2
v 1 12 1
v 1 13 5
v 1 13 4
v 1 14 5
v 1 14 4
v 1 14 -1
v 1 14 -2
v 1 15 -1
v 1 15 -2
v 1 15 -4
v 1 15 -5
v 1 16 -1
v 1 16 -2
v 1 16 -4
v 1 16 -5
v 2 16 -4
v 2 16 -5
v 2 16 -6
v 2 16 -7
v 2 17 -4
v 2 17 -6
v 2 17 -7
v -2 16 -4
v -2 16 -5
v -2 16 -6
v -2 16 -7
v -2 17 -4
v -2 17 -6
v -2 17 -7
v -1 13 5
v -1 13 4
v -1 14 5
v -1 14 4
v -1 14 -1
v -1 14 -2
v -1 15 -1
v -1 15 -2
v -1 15 -4
v -1 15 -5
v -1 16 -1
v -1 16 -2
v -1 16 -4
v -1 16 -5
v 1 10 3
v 1 10 2
v 1 11 3
v 1 11 2
v 1 12 5
v 1 12 3
v 1 12 1
v 1 12 -0
v 1 13 5
v 1 13 4
v 1 13 3
v 1 13 2
v 1 13 1
v 1 13 -0
v 1 14 3
v 1 14 2
v 1 14 -2
v 1 14 -4
v 1 15 -2
v 1 15 -3
v 1 15 -4
v 1 16 -3
v 1 16 -4
v 2 11 3
v 2 11 2
v 2 11 1
v 2 12 3
v 2 12 2
v 2 13 5
v 2 13 4
v 2 13 2
v 2 13 1
v 2 13 -1
v 2 14 5
v 2 14 4
v 2 14 2
v 2 14 1
v 2 14 -1
v 2 14 -2
v 2 15 5
v 2 15 4
v 2 15 -1
v 2 15 -2
v 2 15 -4
v 2 15 -5
v 2 16 4
v 2 16 -1
v 2 16 -2
v 2 16 -4
v 2 16 -5
v 2 17 5
v 2 17 -1
v 3 16 -4
v 3 16 -6
v 3 16 -7
v 3 17 -4
v 3 17 -6
v 3 17 -7
v -2 13 5
v -2 14 5
v -2 15 5
v -2 17 5
v -1 12 5
v -1 13 5
v -1 14 5
v -1 15 5
v -1 17 5
v 0 15 5
v 0 17 5
v 1 12 5
v 1 13 5
v 1 14 5
v 1 15 5
v 1 17 5
v 2 13 5
v 2 14 5
v 2 15 5
v 2 17 5
v -1 13 3
v -1 14 3
v 0 10 3
v 0 11 3
v 1 10 3
v 1 11 3
v 1 12 3
v 1 13 3
v 1 14 3
v 2 11 3
v 2 12 3
v -2 13 2
v -2 14 2
v -1 12 2
v -1 13 2
v -1 14 2
v 1 12 2
v 1 13 2
v 1 14 2
v 2 12 2
v 2 13 2
v 2 14 2
v -1 14 -2
v -1 15 -2
v 1 14 -2
v 1 15 -2
v -1 15 -3
v -1 16 -3
v 1 15 -3
v 1 16 -3
v -3 16 -4
v -3 17 -4
v -2 15 -4
v -2 16 -4
v -2 17 -4
v -1 15 -4
v -1 16 -4
v 1 15 -4
v 1 16 -4
v 2 15 -4
v 2 16 -4
v 2 17 -4
v 3 16 -4
v 3 17 -4
v -2 13 4
v -2 14 4
v -1 13 4
v -1 14 4
v 1 13 4
v 1 14 4
v 2 13 4
v 2 14 4
v -1 12 3
v -1 13 3
v 1 12 3
v 1 13 3
v 0 10 2
v 0 11 2
v 1 10 2
v 1 11 2
v 1 11 1
v 1 12 1
v 1 13 1
v 2 11 1
v 2 13 1
v -1 12 -0
v -1 13 -0
v 0 13 -0
v 1 12 -0
v 1 13 -0
v -2 13 -1
v -2 14 -1
v -2 16 -1
v -2 17 -1
v -1 13 -1
v -1 14 -1
v -1 15 -1
v -1 16 -1
v -1 17 -1
v 0 13 -1
v 0 14 -1
v 1 13 -1
v 1 14 -1
v 1 15 -1
v 1 16 -1
v 1 17 -1
v 2 13 -1
v 2 14 -1
v 2 16 -1
v 2 17 -1
v -2 14 -2
v -2 15 -2
v -2 16 -2
v -1 14 -2
v -1 15 -2
v -1 16 -2
v 1 14 -2
v 1 15 -2
v 1 16 -2
v 2 14 -2
v 2 15 -2
v 2 16 -2
v -1 14 -4
v -1 15 -4
v -1 16 -4
v 1 14 -4
v 1 15 -4
v 1 16 -4
v -2 15 -5
v -2 16 -5
v -1 15 -5
v -1 16 -5
v 1 15 -5
v 1 16 -5
v 2 15 -5
v 2 16 -5
v -3 16 -7
v -3 17 -7
v -2 16 -7
v -2 17 -7
v 2 16 -7
v 2 17 -7
v 3 16 -7
v 3 17 -7
v 0 10 3
v 1 10 3
v 0 10 2
v 1 10 2
v 1 11 3
v 2 11 3
v 1 11 2
v 2 11 2
v 1 11 1
v 2 11 1
v -1 12 5
v 1 12 5
v -1 12 3
v 1 12 3
v -1 12 2
v 1 12 2
v 1 12 1
v -1 12 -0
v 1 12 -0
v -2 13 5
v -1 13 5
v 1 13 5
v 2 13 5
v -2 13 4
v -1 13 4
v 1 13 4
v 2 13 4
v -1 13 3
v 1 13 3
v -2 13 2
v -1 13 2
v 1 13 2
v -2 13 1
v -1 13 1
v 1 13 1
v 2 13 1
v -1 13 -0
v 0 13 -0
v 1 13 -0
v -2 13 -1
v -1 13 -1
v 0 13 -1
v 1 13 -1
v 2 13 -1
v -1 14 5
v 1 14 5
v -2 14 4
v -1 14 4
v 1 14 4
v 2 14 4
v -1 14 3
v 1 14 3
v -2 14 2
v -1 14 2
v 1 14 2
v 2 14 2
v -2 14 -1
v -1 14 -1
v 1 14 -1
v 2 14 -1
v -2 14 -2
v -1 14 -2
v 1 14 -2
v 2 14 -2
v -1 14 -4
v 1 14 -4
v -2 15 -4
v -1 15 -4
v 1 15 -4
v 2 15 -4
v -2 15 -5
v -1 15 -5
v 1 15 -5
v 2 15 -5
v -3 16 -4
v -2 16 -4
v 2 16 -4
v 3 16 -4
v -2 16 -5
v 2 16 -5
v -3 16 -6
v -2 16 -6
v 2 16 -6
v 3 16 -6
v -3 16 -7
v -2 16 -7
v 2 16 -7
v 3 16 -7
v 0 11 3
v 1 11 3
v 0 11 2
v 1 11 2
v 1 12 3
v 2 12 3
v 1 12 2
v 2 12 2
v -1 13 5
v 1 13 5
v -1 13 4
v 1 13 4
v -1 13 3
v 1 13 3
v -1 15 -2
v 1 15 -2
v -1 15 -3
v 1 15 -3
v -2 16 -1
v -1 16 -1
v 1 16 -1
v 2 16 -1
v -2 16 -2
v -1 16 -2
v 1 16 -2
v 2 16 -2
v -1 16 -3
v 1 16 -3
v -2 16 -4
v -1 16 -4
v 1 16 -4
v 2 16 -4
v -2 16 -5
v -1 16 -5
v 1 16 -5
v 2 16 -5
v -2 17 5
v -1 17 5
v 0 17 5
v 1 17 5
v 2 17 5
v -1 17 4
v 0 17 4
v 1 17 4
v -1 17 3
v 0 17 3
v -2 17 -1
v -1 17 -1
v 1 17 -1
v 2 17 -1
v -3 17 -4
v -2 17 -4
v 2 17 -4
v 3 17 -4
v -3 17 -6
v -2 17 -6
v 2 17 -6
v 3 17 -6
v -3 17 -7
v -2 17 -7
v 2 17 -7
v 3 17 -7

# faces
f 4/4/1 2/4/1 1/4/1
f 5/3/1 3/3/1 2/3/1
f 5/4/1 2/4/1 4/4/1
f 6/3/1 3/3/1 5/3/1
f 12/8/1 8/8/1 7/8/1
f 13/8/1 8/8/1 12/8/1
f 14/4/1 10/4/1 9/4/1
f 15/7/1 11/7/1 10/7/1
f 15/4/1 10/4/1 14/4/1
f 16/7/1 11/7/1 15/7/1
f 18/2/1 13/2/1 12/2/1
f 19/1/1 14/1/1 13/1/1
f 19/2/1 13/2/1 18/2/1
f 19/1/1 15/1/1 14/1/1
f 19/1/1 16/1/1 15/1/1
f 20/7/1 17/7/1 16/7/1
f 20/1/1 16/1/1 19/1/1
f 21/7/1 17/7/1 20/7/1
f 24/10/1 19/10/1 18/10/1
f 24/2/1 20/2/1 19/2/1
f 25/4/1 21/4/1 20/4/1
f 25/2/1 20/2/1 24/2/1
f 26/4/1 21/4/1 25/4/1
f 27/7/1 23/7/1 22/7/1
f 28/7/1 23/7/1 27/7/1
f 29/10/1 24/10/1 18/10/1
f 29/10/1 25/10/1 24/10/1
f 30/10/1 25/10/1 29/10/1
f 35/11/1 32/11/1 31/11/1
f 36/11/1 32/11/1 35/11/1
f 37/11/1 32/11/1 36/11/1
f 38/9/1 34/9/1 33/9/1
f 39/9/1 34/9/1 38/9/1
f 40/9/1 34/9/1 39/9/1
f 41/9/1 38/9/1 37/9/1
f 42/9/1 38/9/1 41/9/1
f 45/7/1 44/7/1 43/7/1
f 46/7/1 44/7/1 45/7/1
f 47/7/1 44/7/1 46/7/1
f 48/4/1 47/4/1 46/4/1
f 49/4/1 47/4/1 48/4/1
f 52/4/1 51/4/1 50/4/1
f 53/4/1 51/4/1 52/4/1
f 57/4/1 55/4/1 54/4/1
f 58/7/1 56/7/1 55/7/1
f 58/4/1 55/4/1 57/4/1
f 59/7/1 56/7/1 58/7/1
f 62/8/1 61/8/1 60/8/1
f 63/8/1 61/8/1 62/8/1
f 66/7/1 65/7/1 64/7/1
f 67/7/1 65/7/1 66/7/1
f 70/4/1 67/4/1 66/4/1
f 71/4/1 67/4/1 70/4/1
f 72/7/1 69/7/1 68/7/1
f 73/7/1 69/7/1 72/7/1
f 78/4/1 75/4/1 74/4/1
f 78/4/1 76/4/1 75/4/1
f 79/3/1 77/3/1 76/3/1
f 79/4/1 76/4/1 78/4/1
f 80/3/1 77/3/1 79/3/1
f 81/4/2 82/4/2 85/4/2
f 82/4/2 83/4/2 85/4/2
f 83/3/2 84/3/2 86/3/2
f 85/4/2 83/4/2 86/4/2
f 86/3/2 84/3/2 87/3/2
f 88/8/2 89/8/2 90/8/2
f 90/8/2 89/8/2 91/8/2
f 92/7/2 93/7/2 94/7/2
f 94/7/2 93/7/2 95/7/2
f 94/4/2 95/4/2 98/4/2
f 98/4/2 95/4/2 99/4/2
f 96/7/2 97/7/2 100/7/2
f 100/7/2 97/7/2 101/7/2
f 102/4/2 103/4/2 104/4/2
f 104/4/2 103/4/2 105/4/2
f 106/11/2 107/11/2 110/11/2
f 110/11/2 107/11/2 111/11/2
f 111/11/2 107/11/2 112/11/2
f 108/9/2 109/9/2 114/9/2
f 114/9/2 109/9/2 115/9/2
f 112/9/2 113/9/2 116/9/2
f 116/9/2 113/9/2 117/9/2
f 118/7/2 119/7/2 120/7/2
f 120/7/2 119/7/2 121/7/2
f 121/7/2 119/7/2 122/7/2
f 121/4/2 122/4/2 123/4/2
f 123/4/2 122/4/2 124/4/2
f 125/4/2 126/4/2 128/4/2
f 126/7/2 127/7/2 129/7/2
f 128/4/2 126/4/2 129/4/2
f 129/7/2 127/7/2 132/7/2
f 132/7/2 127/7/2 133/7/2
f 130/8/2 131/8/2 135/8/2
f 135/8/2 131/8/2 136/8/2
f 132/4/2 133/4/2 137/4/2
f 133/7/2 134/7/2 138/7/2
f 137/4/2 133/4/2 138/4/2
f 138/7/2 134/7/2 139/7/2
f 135/2/2 136/2/2 141/2/2
f 136/1/2 137/1/2 142/1/2
f 141/2/2 136/2/2 142/2/2
f 137/1/2 138/1/2 142/1/2
f 138/1/2 139/1/2 142/1/2
f 139/7/2 140/7/2 143/7/2
f 142/1/2 139/1/2 143/1/2
f 143/7/2 140/7/2 144/7/2
f 141/10/2 142/10/2 147/10/2
f 142/2/2 143/2/2 147/2/2
f 143/4/2 144/4/2 148/4/2
f 147/2/2 143/2/2 148/2/2
f 148/4/2 144/4/2 149/4/2
f 145/7/2 146/7/2 150/7/2
f 150/7/2 146/7/2 151/7/2
f 141/10/2 147/10/2 152/10/2
f 147/10/2 148/10/2 152/10/2
f 152/10/2 148/10/2 153/10/2
f 154/4/2 155/4/2 157/4/2
f 155/3/2 156/3/2 158/3/2
f 157/4/2 155/4/2 158/4/2
f 158/3/2 156/3/2 159/3/2
f 165/8/3 161/8/3 160/8/3
f 166/2/3 162/2/3 161/2/3
f 166/8/3 161/8/3 165/8/3
f 167/10/3 163/10/3 162/10/3
f 167/2/3 162/2/3 166/2/3
f 168/10/3 163/10/3 167/10/3
f 169/6/3 167/6/3 166/6/3
f 169/6/3 168/6/3 167/6/3
f 170/6/3 168/6/3 169/6/3
f 171/11/3 165/11/3 164/11/3
f 172/11/3 165/11/3 171/11/3
f 173/6/3 169/6/3 166/6/3
f 174/5/3 170/5/3 169/5/3
f 174/6/3 169/6/3 173/6/3
f 175/5/3 170/5/3 174/5/3
f 176/8/3 173/8/3 172/8/3
f 177/2/3 174/2/3 173/2/3
f 177/8/3 173/8/3 176/8/3
f 178/10/3 175/10/3 174/10/3
f 178/2/3 174/2/3 177/2/3
f 179/10/3 175/10/3 178/10/3
f 184/4/3 183/4/3 182/4/3
f 185/4/3 183/4/3 184/4/3
f 187/9/3 181/9/3 180/9/3
f 188/9/3 181/9/3 187/9/3
f 189/4/3 186/4/3 185/4/3
f 190/4/3 186/4/3 189/4/3
f 194/4/3 192/4/3 191/4/3
f 195/4/3 192/4/3 194/4/3
f 196/9/3 194/9/3 193/9/3
f 197/9/3 194/9/3 196/9/3
f 199/7/3 197/7/3 196/7/3
f 200/4/3 198/4/3 197/4/3
f 200/7/3 197/7/3 199/7/3
f 201/4/3 198/4/3 200/4/3
f 204/7/3 203/7/3 202/7/3
f 205/7/3 203/7/3 204/7/3
f 208/4/3 207/4/3 206/4/3
f 209/4/3 207/4/3 208/4/3
f 213/4/3 211/4/3 210/4/3
f 214/4/3 211/4/3 213/4/3
f 215/7/3 213/7/3 212/7/3
f 216/7/3 213/7/3 215/7/3
f 219/7/3 218/7/3 217/7/3
f 220/7/3 218/7/3 219/7/3
f 222/4/3 221/4/3 220/4/3
f 223/4/3 221/4/3 222/4/3
f 224/8/4 225/8/4 226/8/4
f 226/8/4 225/8/4 227/8/4
f 228/8/4 229/8/4 230/8/4
f 230/8/4 229/8/4 231/8/4
f 232/11/4 233/11/4 234/11/4
f 234/11/4 233/11/4 235/11/4
f 236/4/4 237/4/4 238/4/4
f 238/4/4 237/4/4 239/4/4
f 240/7/4 241/7/4 243/7/4
f 241/7/4 242/7/4 243/7/4
f 243/7/4 242/7/4 244/7/4
f 245/9/4 246/9/4 247/9/4
f 245/9/4 247/9/4 248/9/4
f 248/9/4 247/9/4 249/9/4
f 250/7/4 251/7/4 254/7/4
f 254/7/4 251/7/4 255/7/4
f 252/10/4 253/10/4 257/10/4
f 257/10/4 253/10/4 258/10/4
f 254/11/4 255/11/4 259/11/4
f 255/6/4 256/6/4 260/6/4
f 259/11/4 255/11/4 260/11/4
f 256/6/4 257/6/4 260/6/4
f 257/6/4 258/6/4 260/6/4
f 259/8/4 260/8/4 261/8/4
f 260/6/4 258/6/4 262/6/4
f 261/8/4 260/8/4 262/8/4
f 262/6/4 258/6/4 263/6/4
f 263/6/4 258/6/4 264/6/4
f 264/6/4 258/6/4 265/6/4
f 261/7/4 262/7/4 266/7/4
f 266/7/4 262/7/4 267/7/4
f 264/10/4 265/10/4 268/10/4
f 268/10/4 265/10/4 269/10/4
f 270/7/4 271/7/4 273/7/4
f 271/4/4 272/4/4 274/4/4
f 273/7/4 271/7/4 274/7/4
f 274/4/4 272/4/4 275/4/4
f 276/7/4 277/7/4 279/7/4
f 277/4/4 278/4/4 280/4/4
f 279/7/4 277/7/4 280/7/4
f 280/4/4 278/4/4 281/4/4
f 282/7/4 283/7/4 285/7/4
f 283/4/4 284/4/4 286/4/4
f 285/7/4 283/7/4 286/7/4
f 286/4/4 284/4/4 287/4/4
f 288/7/4 289/7/4 290/7/4
f 290/7/4 289/7/4 291/7/4
f 292/7/4 293/7/4 294/7/4
f 294/7/4 293/7/4 295/7/4
f 296/3/4 297/3/4 298/3/4
f 298/3/4 297/3/4 299/3/4
f 300/3/4 301/3/4 302/3/4
f 302/3/4 301/3/4 303/3/4
f 306/4/5 305/4/5 304/4/5
f 307/4/5 305/4/5 306/4/5
f 310/4/5 309/4/5 308/4/5
f 311/4/5 309/4/5 310/4/5
f 312/7/5 311/7/5 310/7/5
f 313/7/5 311/7/5 312/7/5
f 316/11/5 315/11/5 314/11/5
f 317/11/5 315/11/5 316/11/5
f 320/9/5 319/9/5 318/9/5
f 321/9/5 320/9/5 318/9/5
f 322/9/5 320/9/5 321/9/5
f 327/8/5 324/8/5 323/8/5
f 328/8/5 324/8/5 327/8/5
f 329/8/5 326/8/5 325/8/5
f 330/8/5 326/8/5 329/8/5
f 334/9/5 332/9/5 331/9/5
f 335/9/5 332/9/5 334/9/5
f 336/4/5 334/4/5 333/4/5
f 337/4/5 334/4/5 336/4/5
f 340/7/5 337/7/5 336/7/5
f 342/7/5 339/7/5 338/7/5
f 343/7/5 340/7/5 336/7/5
f 344/11/5 341/11/5 340/11/5
f 344/7/5 340/7/5 343/7/5
f 345/8/5 342/8/5 341/8/5
f 345/11/5 341/11/5 344/11/5
f 346/7/5 339/7/5 342/7/5
f 346/8/5 342/8/5 345/8/5
f 347/7/5 339/7/5 346/7/5
f 351/6/5 349/6/5 348/6/5
f 352/6/5 349/6/5 351/6/5
f 354/1/5 351/1/5 350/1/5
f 354/6/5 352/6/5 351/6/5
f 355/1/5 353/1/5 352/1/5
f 355/6/5 352/6/5 354/6/5
f 356/1/5 354/1/5 350/1/5
f 357/1/5 354/1/5 356/1/5
f 358/1/5 353/1/5 355/1/5
f 359/1/5 353/1/5 358/1/5
f 364/7/5 361/7/5 360/7/5
f 365/7/5 361/7/5 364/7/5
f 366/7/5 363/7/5 362/7/5
f 367/7/5 363/7/5 366/7/5
f 368/7/5 366/7/5 365/7/5
f 369/7/5 366/7/5 368/7/5
f 374/7/5 371/7/5 370/7/5
f 375/7/5 371/7/5 374/7/5
f 376/7/5 373/7/5 372/7/5
f 377/7/5 373/7/5 376/7/5
f 382/4/5 379/4/5 378/4/5
f 383/4/5 381/4/5 380/4/5
f 384/4/5 382/4/5 378/4/5
f 385/4/5 382/4/5 384/4/5
f 386/4/5 381/4/5 383/4/5
f 387/4/5 381/4/5 386/4/5
f 388/3/5 385/3/5 384/3/5
f 389/3/5 385/3/5 388/3/5
f 390/3/5 387/3/5 386/3/5
f 391/3/5 387/3/5 390/3/5
f 392/4/6 393/4/6 394/4/6
f 394/4/6 393/4/6 395/4/6
f 396/4/6 397/4/6 398/4/6
f 398/4/6 397/4/6 399/4/6
f 400/11/6 401/11/6 402/11/6
f 402/11/6 401/11/6 403/11/6
f 402/11/6 403/11/6 404/11/6
f 404/11/6 403/11/6 405/11/6
f 406/7/6 407/7/6 408/7/6
f 408/7/6 407/7/6 409/7/6
f 410/4/6 411/4/6 414/4/6
f 414/4/6 411/4/6 415/4/6
f 412/4/6 413/4/6 416/4/6
f 416/4/6 413/4/6 417/4/6
f 418/4/6 419/4/6 421/4/6
f 421/4/6 419/4/6 422/4/6
f 420/7/6 421/7/6 424/7/6
f 424/7/6 421/7/6 425/7/6
f 422/7/6 423/7/6 426/7/6
f 426/7/6 423/7/6 427/7/6
f 428/10/6 429/10/6 433/10/6
f 429/6/6 430/6/6 433/6/6
f 430/5/6 431/5/6 434/5/6
f 433/6/6 430/6/6 434/6/6
f 431/10/6 432/10/6 435/10/6
f 434/5/6 431/5/6 435/5/6
f 433/5/6 434/5/6 436/5/6
f 428/10/6 433/10/6 436/10/6
f 434/6/6 435/6/6 437/6/6
f 436/5/6 434/5/6 437/5/6
f 428/10/6 436/10/6 438/10/6
f 436/6/6 437/6/6 439/6/6
f 438/10/6 436/10/6 439/10/6
f 435/10/6 432/10/6 440/10/6
f 439/6/6 437/6/6 440/6/6
f 437/6/6 435/6/6 440/6/6
f 440/10/6 432/10/6 441/10/6
f 442/4/6 443/4/6 446/4/6
f 446/4/6 443/4/6 447/4/6
f 444/4/6 445/4/6 448/4/6
f 448/4/6 445/4/6 449/4/6
f 446/3/6 447/3/6 450/3/6
f 450/3/6 447/3/6 451/3/6
f 448/3/6 449/3/6 452/3/6
f 452/3/6 449/3/6 453/3/6
