# MagicaVoxel @ Ephtracy

# group
g wolfneonLegLeftFront

# material
mtllib wolfneonLegLeftFront.mtl
usemtl palette

# normals
vn -1 0 0
vn 1 0 0
vn 0 0 1
vn 0 0 -1
vn 0 -1 0
vn 0 1 0

# texcoords
vt 0.927734 0.5
vt 0.931641 0.5
vt 0.935547 0.5
vt 0.994141 0.5

# verts
v 0 0 6
v 0 0 5
v 0 0 4
v 0 1 6
v 0 1 5
v 0 1 4
v 0 2 5
v 0 2 4
v 0 4 6
v 0 4 5
v 0 5 6
v 0 5 5
v 0 5 3
v 0 6 6
v 0 6 3
v 1 0 7
v 1 0 6
v 1 1 7
v 1 1 6
v 1 1 5
v 1 2 6
v 1 2 5
v 1 3 6
v 1 3 5
v 1 4 6
v 1 4 5
v 1 0 5
v 1 0 4
v 1 1 5
v 1 1 4
v 1 2 5
v 1 2 4
v 1 4 6
v 1 4 5
v 1 5 6
v 1 5 5
v 1 5 3
v 1 6 6
v 1 6 3
v 2 0 7
v 2 0 6
v 2 0 5
v 2 1 7
v 2 1 6
v 2 1 5
v 2 2 6
v 2 2 5
v 2 3 6
v 2 3 5
v 2 4 6
v 2 4 5
v 1 0 7
v 1 1 7
v 2 0 7
v 2 1 7
v 0 0 6
v 0 1 6
v 0 4 6
v 0 5 6
v 0 6 6
v 1 0 6
v 1 1 6
v 1 2 6
v 1 3 6
v 1 4 6
v 1 5 6
v 1 6 6
v 2 1 6
v 2 2 6
v 2 3 6
v 2 4 6
v 0 1 5
v 0 2 5
v 1 1 5
v 1 2 5
v 0 4 5
v 0 5 5
v 1 0 5
v 1 1 5
v 1 2 5
v 1 3 5
v 1 4 5
v 1 5 5
v 2 0 5
v 2 1 5
v 2 2 5
v 2 3 5
v 2 4 5
v 0 0 4
v 0 1 4
v 0 2 4
v 1 0 4
v 1 1 4
v 1 2 4
v 0 5 3
v 0 6 3
v 1 5 3
v 1 6 3
v 1 0 7
v 2 0 7
v 0 0 6
v 1 0 6
v 2 0 6
v 0 0 5
v 1 0 5
v 2 0 5
v 0 0 4
v 1 0 4
v 1 3 6
v 2 3 6
v 1 3 5
v 2 3 5
v 0 4 6
v 1 4 6
v 0 4 5
v 1 4 5
v 0 5 5
v 1 5 5
v 0 5 3
v 1 5 3
v 1 1 7
v 2 1 7
v 0 1 6
v 1 1 6
v 2 1 6
v 0 1 5
v 1 1 5
v 1 2 6
v 2 2 6
v 0 2 5
v 1 2 5
v 2 2 5
v 0 2 4
v 1 2 4
v 1 4 6
v 2 4 6
v 1 4 5
v 2 4 5
v 0 6 6
v 1 6 6
v 0 6 3
v 1 6 3

# faces
f 4/2/1 2/2/1 1/2/1
f 5/4/1 3/4/1 2/4/1
f 5/2/1 2/2/1 4/2/1
f 6/4/1 3/4/1 5/4/1
f 7/1/1 6/1/1 5/1/1
f 8/1/1 6/1/1 7/1/1
f 11/3/1 10/3/1 9/3/1
f 12/3/1 10/3/1 11/3/1
f 14/2/1 12/2/1 11/2/1
f 14/2/1 13/2/1 12/2/1
f 15/2/1 13/2/1 14/2/1
f 18/3/1 17/3/1 16/3/1
f 19/3/1 17/3/1 18/3/1
f 21/2/1 20/2/1 19/2/1
f 22/2/1 20/2/1 21/2/1
f 25/2/1 24/2/1 23/2/1
f 26/2/1 24/2/1 25/2/1
f 27/4/2 28/4/2 29/4/2
f 29/4/2 28/4/2 30/4/2
f 29/1/2 30/1/2 31/1/2
f 31/1/2 30/1/2 32/1/2
f 33/3/2 34/3/2 35/3/2
f 35/3/2 34/3/2 36/3/2
f 35/2/2 36/2/2 38/2/2
f 36/2/2 37/2/2 38/2/2
f 38/2/2 37/2/2 39/2/2
f 40/3/2 41/3/2 43/3/2
f 41/1/2 42/1/2 44/1/2
f 43/3/2 41/3/2 44/3/2
f 44/1/2 42/1/2 45/1/2
f 44/2/2 45/2/2 46/2/2
f 46/2/2 45/2/2 47/2/2
f 48/2/2 49/2/2 50/2/2
f 50/2/2 49/2/2 51/2/2
f 54/3/3 53/3/3 52/3/3
f 55/3/3 53/3/3 54/3/3
f 61/2/3 57/2/3 56/2/3
f 62/2/3 57/2/3 61/2/3
f 65/3/3 59/3/3 58/3/3
f 66/2/3 60/2/3 59/2/3
f 66/3/3 59/3/3 65/3/3
f 67/2/3 60/2/3 66/2/3
f 68/2/3 63/2/3 62/2/3
f 69/2/3 63/2/3 68/2/3
f 70/2/3 65/2/3 64/2/3
f 71/2/3 65/2/3 70/2/3
f 74/1/3 73/1/3 72/1/3
f 75/1/3 73/1/3 74/1/3
f 76/3/4 77/3/4 82/3/4
f 82/3/4 77/3/4 83/3/4
f 78/1/4 79/1/4 84/1/4
f 79/2/4 80/2/4 85/2/4
f 84/1/4 79/1/4 85/1/4
f 85/2/4 80/2/4 86/2/4
f 81/2/4 82/2/4 87/2/4
f 87/2/4 82/2/4 88/2/4
f 89/4/4 90/4/4 92/4/4
f 90/1/4 91/1/4 93/1/4
f 92/4/4 90/4/4 93/4/4
f 93/1/4 91/1/4 94/1/4
f 95/2/4 96/2/4 97/2/4
f 97/2/4 96/2/4 98/2/4
f 102/3/5 100/3/5 99/3/5
f 103/3/5 100/3/5 102/3/5
f 104/2/5 102/2/5 101/2/5
f 105/1/5 103/1/5 102/1/5
f 105/2/5 102/2/5 104/2/5
f 106/1/5 103/1/5 105/1/5
f 107/4/5 105/4/5 104/4/5
f 108/4/5 105/4/5 107/4/5
f 111/2/5 110/2/5 109/2/5
f 112/2/5 110/2/5 111/2/5
f 115/3/5 114/3/5 113/3/5
f 116/3/5 114/3/5 115/3/5
f 119/2/5 118/2/5 117/2/5
f 120/2/5 118/2/5 119/2/5
f 121/3/6 122/3/6 124/3/6
f 124/3/6 122/3/6 125/3/6
f 123/2/6 124/2/6 126/2/6
f 126/2/6 124/2/6 127/2/6
f 128/2/6 129/2/6 131/2/6
f 131/2/6 129/2/6 132/2/6
f 130/1/6 131/1/6 133/1/6
f 133/1/6 131/1/6 134/1/6
f 135/2/6 136/2/6 137/2/6
f 137/2/6 136/2/6 138/2/6
f 139/2/6 140/2/6 141/2/6
f 141/2/6 140/2/6 142/2/6
